SplineFontDB: 3.0
FontName: Chivo-BoldItalic
FullName: Chivo Bold Italic
FamilyName: Chivo
Weight: Bold
Copyright: Copyright (c) 2011-2014 by Omnibus-Type (www.omnibus-type.com omnibus.type@gmail.com), with Reserved Font Name 'Chivo'
UComments: "Disclaimer+AAoA +AAoA-Omnibus-Type give no warranty in relation to this font, and you use this+AAoA-at your own risk.+AAoA +AAoA-Omnibus-Type shall not be liable for any direct, indirect, consequential, or incidental damages (including damages from loss of business profits, business interruption, loss of business information, and the like) arising out of the use of or inability to use the fonts.+AAoA +AAoA +AAoA-If you have further questions, please contact us:+AAoA-omnibus.type@gmail.com" 

StartChar: .notdef
Encoding: 65536 -1 0
Width: 500
Flags: MW
HStem: 0 50<80 420 80 500> 650 50<80 80 80 420>
VStem: 0 50<95 605 95 700> 450 50<95 605 605 605>
LayerCount: 2
Fore
SplineSet
500 700 m 1
 500 0 l 1
 0 0 l 1
 0 700 l 1
 500 700 l 1
80 650 m 1
 250 395 l 1
 420 650 l 1
 80 650 l 1
220 350 m 1
 50 605 l 1
 50 95 l 1
 220 350 l 1
450 605 m 1
 280 350 l 1
 450 95 l 1
 450 605 l 1
250 305 m 1
 80 50 l 1
 420 50 l 1
 250 305 l 1
EndSplineSet
EndChar

StartChar: A
Encoding: 65 65 1
Width: 686
GlyphClass: 2
Flags: MW
HStem: 0 21G<-46 102 -46 -46 473 473 473 635> 135 117<169 418 228 418 228 442> 521 165<359 364 359 359> 666 20G<299 483 483 483>
VStem: -46 681<0 0>
LayerCount: 2
Fore
SplineSet
169 135 m 1xd8
 102 0 l 1
 -46 0 l 1
 299 686 l 1
 483 686 l 1
 635 0 l 1
 473 0 l 1
 442 135 l 1
 169 135 l 1xd8
364 521 m 1xe8
 359 521 l 1
 315 432 271 342 228 252 c 1
 418 252 l 1
 364 521 l 1xe8
EndSplineSet
Substitution2: "Single Substitution lookup 5 subtable" ordfeminine
Substitution2: "'aalt' Access All Alternates lookup 0 subtable" ordfeminine
Position2: "'cpsp' Capital Spacing lookup 0 subtable" dx=5 dy=0 dh=10 dv=0
EndChar

StartChar: Aacute
Encoding: 193 193 2
Width: 686
GlyphClass: 2
Flags: MW
HStem: 0 21G<-46 102 -46 -46 473 473 473 635> 135 117<169 418 228 418 228 442> 521 165<359 364 359 359> 666 20G<299 483 483 483> 750 145<326 568 326 568>
VStem: -46 681<0 0>
LayerCount: 2
Fore
SplineSet
439 895 m 1xdc
 568 895 l 1
 568 891 l 1
 427 750 l 1
 326 750 l 1
 439 895 l 1xdc
169 135 m 1
 102 0 l 1
 -46 0 l 1
 299 686 l 1
 483 686 l 1
 635 0 l 1
 473 0 l 1
 442 135 l 1
 169 135 l 1
364 521 m 1xec
 359 521 l 1
 315 432 271 342 228 252 c 1
 418 252 l 1
 364 521 l 1xec
EndSplineSet
Position2: "'cpsp' Capital Spacing lookup 0 subtable" dx=5 dy=0 dh=10 dv=0
EndChar

StartChar: Abreve
Encoding: 258 258 3
Width: 686
GlyphClass: 2
Flags: MW
HStem: 0 21G<-46 102 -46 -46 473 473 473 635> 135 117<169 418 228 418 228 442> 521 165<359 364 359 359> 666 20G<299 483 483 483> 788 74<391 448 391 463.5>
VStem: -46 681<0 0>
LayerCount: 2
Fore
SplineSet
410 788 m 0xdc
 309 788 234 849 234 904 c 0
 234 906 234 909 235 912 c 2
 316 912 l 1
 319 888 362 862 420 862 c 0
 476 862 530 890 538 912 c 1
 620 912 l 1
 612 855 517 788 410 788 c 0xdc
169 135 m 1
 102 0 l 1
 -46 0 l 1
 299 686 l 1
 483 686 l 1
 635 0 l 1
 473 0 l 1
 442 135 l 1
 169 135 l 1
364 521 m 1xec
 359 521 l 1
 315 432 271 342 228 252 c 1
 418 252 l 1
 364 521 l 1xec
EndSplineSet
EndChar

StartChar: Acircumflex
Encoding: 194 194 4
Width: 686
GlyphClass: 2
Flags: MW
HStem: 0 21G<-46 102 -46 -46 473 473 473 635> 135 117<169 418 228 418 228 442> 521 165<359 364 359 359> 666 20G<299 483 483 483> 750 145<206 468 365 584 365 479>
VStem: -46 681<0 0>
LayerCount: 2
Fore
SplineSet
365 895 m 1xdc
 468 895 l 1
 506 847 545 798 584 750 c 1
 479 750 l 1
 407 833 l 1
 310 750 l 1
 206 750 l 1
 365 895 l 1xdc
169 135 m 1
 102 0 l 1
 -46 0 l 1
 299 686 l 1
 483 686 l 1
 635 0 l 1
 473 0 l 1
 442 135 l 1
 169 135 l 1
364 521 m 1xec
 359 521 l 1
 315 432 271 342 228 252 c 1
 418 252 l 1
 364 521 l 1xec
EndSplineSet
Position2: "'cpsp' Capital Spacing lookup 0 subtable" dx=5 dy=0 dh=10 dv=0
EndChar

StartChar: Adieresis
Encoding: 196 196 5
Width: 686
GlyphClass: 2
Flags: MW
HStem: 0 21G<-46 102 -46 -46 473 473 473 635> 135 117<169 418 228 418 228 442> 521 165<359 364 359 359> 666 20G<299 483 483 483> 750 122<247 351 230 368 247 434 451 555>
VStem: -46 681<0 0>
LayerCount: 2
Fore
SplineSet
368 872 m 1xdc
 351 750 l 1
 230 750 l 1
 247 872 l 1
 368 872 l 1xdc
572 872 m 1
 555 750 l 1
 434 750 l 1
 451 872 l 1
 572 872 l 1
169 135 m 1
 102 0 l 1
 -46 0 l 1
 299 686 l 1
 483 686 l 1
 635 0 l 1
 473 0 l 1
 442 135 l 1
 169 135 l 1
364 521 m 1xec
 359 521 l 1
 315 432 271 342 228 252 c 1
 418 252 l 1
 364 521 l 1xec
EndSplineSet
Position2: "'cpsp' Capital Spacing lookup 0 subtable" dx=5 dy=0 dh=10 dv=0
EndChar

StartChar: Agrave
Encoding: 192 192 6
Width: 686
GlyphClass: 2
Flags: MW
HStem: 0 21G<-46 102 -46 -46 473 473 473 635> 135 117<169 418 228 418 228 442> 521 165<359 364 359 359> 666 20G<299 483 483 483> 750 145<361 391 263 463 361 361>
VStem: -46 681<0 0>
LayerCount: 2
Fore
SplineSet
261 892 m 1xdc
 263 895 l 1
 391 895 l 1
 463 750 l 1
 361 750 l 1
 261 892 l 1xdc
169 135 m 1
 102 0 l 1
 -46 0 l 1
 299 686 l 1
 483 686 l 1
 635 0 l 1
 473 0 l 1
 442 135 l 1
 169 135 l 1
364 521 m 1xec
 359 521 l 1
 315 432 271 342 228 252 c 1
 418 252 l 1
 364 521 l 1xec
EndSplineSet
Position2: "'cpsp' Capital Spacing lookup 0 subtable" dx=5 dy=0 dh=10 dv=0
EndChar

StartChar: Amacron
Encoding: 256 256 7
Width: 686
GlyphClass: 2
Flags: MW
HStem: 0 21G<-46 102 -46 -46 473 473 473 635> 135 117<169 418 228 418 228 442> 521 165<359 364 359 359> 666 20G<299 483 483 483> 837 74<277 584 266 595>
VStem: -46 681<0 0>
LayerCount: 2
Fore
SplineSet
277 911 m 1xdc
 595 911 l 1
 584 837 l 1
 266 837 l 1
 277 911 l 1xdc
169 135 m 1
 102 0 l 1
 -46 0 l 1
 299 686 l 1
 483 686 l 1
 635 0 l 1
 473 0 l 1
 442 135 l 1
 169 135 l 1
364 521 m 1xec
 359 521 l 1
 315 432 271 342 228 252 c 1
 418 252 l 1
 364 521 l 1xec
EndSplineSet
EndChar

StartChar: Aogonek
Encoding: 260 260 8
Width: 686
GlyphClass: 2
Flags: MW
HStem: -143 50<582.5 585.5> 0 21G<-46 102 -46 -46 473 547 473 473 609 609 609 635> 135 117<228 418 228 442 169 418> 521 165<359 364 359 359> 666 20G<299 483 483 483>
VStem: 482 71<-75 -63.5>
LayerCount: 2
Fore
SplineSet
661 -79 m 1xec
 669 -119 l 1
 638 -135 602 -143 569 -143 c 0
 526 -143 482 -129 482 -83 c 0
 482 -44 515 -19 547 0 c 1
 473 0 l 1
 442 135 l 1
 169 135 l 1
 102 0 l 1
 -46 0 l 1
 299 686 l 1
 483 686 l 1
 635 0 l 1
 609 0 l 1
 584 -13 553 -35 553 -64 c 0
 553 -86 573 -93 592 -93 c 0
 616 -93 639 -87 661 -79 c 1xec
418 252 m 1
 364 521 l 1
 359 521 l 1xf4
 315 432 271 342 228 252 c 1
 418 252 l 1
EndSplineSet
EndChar

StartChar: Aring
Encoding: 197 197 9
Width: 686
GlyphClass: 2
Flags: MW
HStem: 0 21G<-46 102 -46 -46 473 473 473 635> 135 117<169 418 228 418 228 442> 521 165<359 364 359 359> 666 20G<299 483 483 483> 730 53<393.5 418.5 393.5 430> 878 53<400.5 426.5>
VStem: 308 56<814 841> 457 55<818.5 846.5>
LayerCount: 2
Fore
SplineSet
512 841 m 0xdf
 512 779 460 730 400 730 c 0
 347 730 308 768 308 820 c 0
 308 883 362 931 421 931 c 0
 473 931 512 893 512 841 c 0xdf
406 783 m 0
 431 783 457 803 457 834 c 0
 457 859 439 878 414 878 c 0
 387 878 364 856 364 826 c 0
 364 802 381 783 406 783 c 0
169 135 m 1
 102 0 l 1
 -46 0 l 1
 299 686 l 1
 483 686 l 1
 635 0 l 1
 473 0 l 1
 442 135 l 1
 169 135 l 1
364 521 m 1xef
 359 521 l 1
 315 432 271 342 228 252 c 1
 418 252 l 1
 364 521 l 1xef
EndSplineSet
Position2: "'cpsp' Capital Spacing lookup 0 subtable" dx=5 dy=0 dh=10 dv=0
EndChar

StartChar: Atilde
Encoding: 195 195 10
Width: 686
GlyphClass: 2
Flags: MW
HStem: 0 21G<-46 102 -46 -46 473 473 473 635> 135 117<169 418 228 418 228 442> 521 165<359 364 359 359> 666 20G<299 483 483 483> 749 86<455 496 455 501> 786 87<282 323>
VStem: -46 681<0 0>
LayerCount: 2
Fore
SplineSet
540 873 m 1xda
 605 873 l 1xda
 597 813 540 749 462 749 c 0
 398 749 350 786 296 786 c 0xd6
 268 786 249 772 239 749 c 1
 174 749 l 1
 182 808 239 873 317 873 c 0
 381 873 428 835 482 835 c 0
 510 835 530 850 540 873 c 1xda
169 135 m 1
 102 0 l 1
 -46 0 l 1
 299 686 l 1
 483 686 l 1
 635 0 l 1
 473 0 l 1
 442 135 l 1
 169 135 l 1
364 521 m 1xea
 359 521 l 1
 315 432 271 342 228 252 c 1
 418 252 l 1
 364 521 l 1xea
EndSplineSet
Position2: "'cpsp' Capital Spacing lookup 0 subtable" dx=5 dy=0 dh=10 dv=0
EndChar

StartChar: AE
Encoding: 198 198 11
Width: 1004
GlyphClass: 2
Flags: MW
HStem: 0 123<622 915 622 915> 135 117<185 451 260 451 260 458> 290 121<607 914 607 607> 563 123<585 974 585 585>
VStem: 434 157.5
LayerCount: 2
Fore
SplineSet
185 135 m 1
 98 0 l 1
 -48 0 l 1
 392 686 l 1
 1008 686 l 1
 974 563 l 1
 585 563 l 1
 598 411 l 1
 931 411 l 1
 914 290 l 1
 607 290 l 1
 612 236 618 178 622 123 c 1
 915 123 l 1
 915 0 l 1
 469 0 l 1xb8
 458 135 l 1
 185 135 l 1
434 521 m 1
 429 521 l 1xb8
 372 432 316 342 260 252 c 1
 451 252 l 1xf8
 444 342 440 432 434 521 c 1
EndSplineSet
Position2: "'cpsp' Capital Spacing lookup 0 subtable" dx=5 dy=0 dh=10 dv=0
EndChar

StartChar: B
Encoding: 66 66 12
Width: 645
GlyphClass: 2
Flags: MW
HStem: 0 124<186 348 348 369> 291 117<226 371 209 377> 568 118<248 399 248 248>
VStem: 439 148<189.5 239.5> 465 152<482 525>
LayerCount: 2
Fore
SplineSet
120 686 m 1xf0
 454 686 l 2
 547 686 617 626 617 540 c 0xe8
 617 424 537 375 476 359 c 1
 475 352 l 1
 527 341 587 307 587 216 c 0
 587 95 495 0 369 0 c 2
 23 0 l 1
 120 686 l 1xf0
226 408 m 1
 377 408 l 2
 426 408 465 454 465 503 c 0
 465 547 437 568 399 568 c 2
 248 568 l 1
 241 515 233 462 226 408 c 1
186 124 m 1
 348 124 l 2
 398 124 439 158 439 221 c 0
 439 258 411 291 371 291 c 2xf0
 209 291 l 1
 202 235 194 179 186 124 c 1
EndSplineSet
Position2: "'cpsp' Capital Spacing lookup 0 subtable" dx=5 dy=0 dh=10 dv=0
EndChar

StartChar: C
Encoding: 67 67 13
Width: 683
GlyphClass: 2
Flags: MW
HStem: -10 123<286 297 297 311> 573 123<392 406 406 419>
VStem: 35 161<195.5 246> 501 147<453 544 459.5 494>
AnchorPoint: "Bottom" 306 0 basechar 0
LayerCount: 2
Fore
SplineSet
483 270 m 1
 624 270 l 1
 598 88 480 -10 311 -10 c 2
 297 -10 l 2
 144 -10 35 75 35 237 c 0
 35 255 38 277 54 392 c 0
 81 586 214 696 392 696 c 2
 406 696 l 2
 546 696 648 620 648 468 c 0
 648 451 647 433 644 414 c 1
 497 414 l 1
 499 427 500 440 501 453 c 2
 501 457 l 2
 501 531 454 573 384 573 c 0
 269 573 231 498 214 382 c 0
 202 303 196 270 196 240 c 0
 196 151 247 113 325 113 c 0
 416 113 468 165 483 270 c 1
EndSplineSet
Position2: "'cpsp' Capital Spacing lookup 0 subtable" dx=5 dy=0 dh=10 dv=0
EndChar

StartChar: Cacute
Encoding: 262 262 14
Width: 683
GlyphClass: 2
Flags: MW
HStem: -10 123<286 297 297 311> 573 123<392 406 406 419> 750 145<321 563 321 563>
VStem: 35 161<195.5 246> 501 147<453 544 459.5 494>
AnchorPoint: "Bottom" 306 0 basechar 0
LayerCount: 2
Fore
SplineSet
434 895 m 1
 563 895 l 1
 563 891 l 1
 422 750 l 1
 321 750 l 1
 434 895 l 1
483 270 m 1
 624 270 l 1
 598 88 480 -10 311 -10 c 2
 297 -10 l 2
 144 -10 35 75 35 237 c 0
 35 255 38 277 54 392 c 0
 81 586 214 696 392 696 c 2
 406 696 l 2
 546 696 648 620 648 468 c 0
 648 451 647 433 644 414 c 1
 497 414 l 1
 499 427 500 440 501 453 c 2
 501 457 l 2
 501 531 454 573 384 573 c 0
 269 573 231 498 214 382 c 0
 202 303 196 270 196 240 c 0
 196 151 247 113 325 113 c 0
 416 113 468 165 483 270 c 1
EndSplineSet
EndChar

StartChar: Ccaron
Encoding: 268 268 15
Width: 683
GlyphClass: 2
Flags: MW
HStem: -10 123<286 297 297 311> 573 123<392 406 406 419> 750 145<233 453 233 350>
VStem: 35 161<195.5 246> 501 147<453 544 459.5 494>
AnchorPoint: "Bottom" 306 0 basechar 0
LayerCount: 2
Fore
SplineSet
338 895 m 1
 411 812 l 1
 507 895 l 1
 611 895 l 1
 562 850 512 805 453 750 c 1
 350 750 l 1
 233 895 l 1
 338 895 l 1
483 270 m 1
 624 270 l 1
 598 88 480 -10 311 -10 c 2
 297 -10 l 2
 144 -10 35 75 35 237 c 0
 35 255 38 277 54 392 c 0
 81 586 214 696 392 696 c 2
 406 696 l 2
 546 696 648 620 648 468 c 0
 648 451 647 433 644 414 c 1
 497 414 l 1
 499 427 500 440 501 453 c 2
 501 457 l 2
 501 531 454 573 384 573 c 0
 269 573 231 498 214 382 c 0
 202 303 196 270 196 240 c 0
 196 151 247 113 325 113 c 0
 416 113 468 165 483 270 c 1
EndSplineSet
EndChar

StartChar: Ccedilla
Encoding: 199 199 16
Width: 683
GlyphClass: 2
Flags: MW
HStem: -197 55<238.5 274.5 237.5 280> -68 51<262 275 255 285> -10 123<286 297 297 311> 573 123<392 406 406 419>
VStem: 35 161<195.5 246> 315 75<-114.5 -89> 501 147<453 544 459.5 494>
LayerCount: 2
Fore
SplineSet
483 270 m 1
 624 270 l 1
 598 88 480 -10 311 -10 c 2
 297 -10 l 2
 144 -10 35 75 35 237 c 0
 35 255 38 277 54 392 c 0
 81 586 214 696 392 696 c 2
 406 696 l 2
 546 696 648 620 648 468 c 0
 648 451 647 433 644 414 c 1
 497 414 l 1
 499 427 500 440 501 453 c 2
 501 457 l 2
 501 531 454 573 384 573 c 0
 269 573 231 498 214 382 c 0
 202 303 196 270 196 240 c 0
 196 151 247 113 325 113 c 0
 416 113 468 165 483 270 c 1
153 -168 m 1
 181 -116 l 1
 187 -119 214 -142 261 -142 c 0
 288 -142 315 -130 315 -99 c 0
 315 -79 301 -68 275 -68 c 2
 255 -68 l 1
 262 -17 l 1
 285 -17 l 2xde
 337 -17 390 -32 390 -91 c 0
 390 -180 303 -197 257 -197 c 0
 220 -197 177 -187 153 -168 c 1
EndSplineSet
Position2: "'cpsp' Capital Spacing lookup 0 subtable" dx=5 dy=0 dh=10 dv=0
EndChar

StartChar: D
Encoding: 68 68 17
Width: 686
GlyphClass: 2
Flags: MW
HStem: 0 123<196 268> 563 123<257 363 257 257>
VStem: 488 160<429.5 484.5>
LayerCount: 2
Fore
SplineSet
120 686 m 1
 395 686 l 2
 541 686 648 593 648 443 c 0
 648 416 647 409 630 294 c 0
 602 98 478 0 268 0 c 2
 23 0 l 1
 120 686 l 1
196 123 m 1
 301 123 l 2
 388 123 451 174 466 272 c 0
 480 364 488 406 488 449 c 0
 488 520 437 563 363 563 c 2
 257 563 l 1
 196 123 l 1
EndSplineSet
Position2: "'cpsp' Capital Spacing lookup 0 subtable" dx=5 dy=0 dh=10 dv=0
EndChar

StartChar: Eth
Encoding: 208 208 18
Width: 686
GlyphClass: 2
Flags: MW
HStem: 0 123<196 268> 303 80<-16 77 -5 66 232 333> 563 123<257 363 257 257>
VStem: 488 160<429.5 484.5>
LayerCount: 2
Fore
SplineSet
-16 303 m 1
 -5 383 l 1
 77 383 l 1
 120 686 l 1
 395 686 l 2
 541 686 648 593 648 443 c 0
 648 416 647 409 630 294 c 0
 602 98 478 0 268 0 c 2
 23 0 l 1
 66 303 l 1
 -16 303 l 1
196 123 m 1
 301 123 l 2
 388 123 451 174 466 272 c 0
 480 364 488 406 488 449 c 0
 488 520 437 563 363 563 c 2
 257 563 l 1
 232 383 l 1
 344 383 l 1
 333 303 l 1
 221 303 l 1
 196 123 l 1
EndSplineSet
Position2: "'cpsp' Capital Spacing lookup 0 subtable" dx=5 dy=0 dh=10 dv=0
EndChar

StartChar: Dcaron
Encoding: 270 270 19
Width: 686
GlyphClass: 2
Flags: MW
HStem: 0 123<196 268> 563 123<257 363 257 257> 750 145<234 454 234 351>
VStem: 488 160<429.5 484.5>
LayerCount: 2
Fore
SplineSet
339 895 m 1
 412 812 l 1
 508 895 l 1
 612 895 l 1
 563 850 513 805 454 750 c 1
 351 750 l 1
 234 895 l 1
 339 895 l 1
120 686 m 1
 395 686 l 2
 541 686 648 593 648 443 c 0
 648 416 647 409 630 294 c 0
 602 98 478 0 268 0 c 2
 23 0 l 1
 120 686 l 1
196 123 m 1
 301 123 l 2
 388 123 451 174 466 272 c 0
 480 364 488 406 488 449 c 0
 488 520 437 563 363 563 c 2
 257 563 l 1
 196 123 l 1
EndSplineSet
EndChar

StartChar: Dcroat
Encoding: 272 272 20
Width: 686
GlyphClass: 2
Flags: MW
HStem: 0 123<196 268> 303 80<-16 77 -5 66 232 333> 563 123<257 363 257 257>
VStem: 488 160<429.5 484.5>
LayerCount: 2
Fore
SplineSet
-16 303 m 1
 -5 383 l 1
 77 383 l 1
 120 686 l 1
 395 686 l 2
 541 686 648 593 648 443 c 0
 648 416 647 409 630 294 c 0
 602 98 478 0 268 0 c 2
 23 0 l 1
 66 303 l 1
 -16 303 l 1
196 123 m 1
 301 123 l 2
 388 123 451 174 466 272 c 0
 480 364 488 406 488 449 c 0
 488 520 437 563 363 563 c 2
 257 563 l 1
 232 383 l 1
 344 383 l 1
 333 303 l 1
 221 303 l 1
 196 123 l 1
EndSplineSet
EndChar

StartChar: E
Encoding: 69 69 21
Width: 598
GlyphClass: 2
Flags: MW
HStem: 0 123<193 509 193 509> 290 123<233 509 216 526> 563 123<254 568 254 254>
VStem: 23 580
AnchorPoint: "Bottom" 263 0 basechar 0
LayerCount: 2
Fore
SplineSet
120 686 m 1
 603 686 l 1
 568 563 l 1
 254 563 l 1
 233 413 l 1
 526 413 l 1
 509 290 l 1
 216 290 l 1
 193 123 l 1
 509 123 l 1
 509 0 l 1
 23 0 l 1
 120 686 l 1
EndSplineSet
Position2: "'cpsp' Capital Spacing lookup 0 subtable" dx=5 dy=0 dh=10 dv=0
EndChar

StartChar: Eacute
Encoding: 201 201 22
Width: 598
GlyphClass: 2
Flags: MW
HStem: 0 123<193 509 193 509> 290 123<233 509 216 526> 563 123<254 568 254 254> 750 145<316 558 316 558>
VStem: 23 580
LayerCount: 2
Fore
SplineSet
429 895 m 1
 558 895 l 1
 558 891 l 1
 417 750 l 1
 316 750 l 1
 429 895 l 1
120 686 m 1
 603 686 l 1
 568 563 l 1
 254 563 l 1
 233 413 l 1
 526 413 l 1
 509 290 l 1
 216 290 l 1
 193 123 l 1
 509 123 l 1
 509 0 l 1
 23 0 l 1
 120 686 l 1
EndSplineSet
Position2: "'cpsp' Capital Spacing lookup 0 subtable" dx=5 dy=0 dh=10 dv=0
EndChar

StartChar: Ecaron
Encoding: 282 282 23
Width: 598
GlyphClass: 2
Flags: MW
HStem: 0 123<193 509 193 509> 290 123<233 509 216 526> 563 123<254 568 254 254> 750 145<190 410 190 307>
VStem: 23 580
AnchorPoint: "Bottom" 263 0 basechar 0
LayerCount: 2
Fore
SplineSet
295 895 m 1
 368 812 l 1
 464 895 l 1
 568 895 l 1
 519 850 469 805 410 750 c 1
 307 750 l 1
 190 895 l 1
 295 895 l 1
120 686 m 1
 603 686 l 1
 568 563 l 1
 254 563 l 1
 233 413 l 1
 526 413 l 1
 509 290 l 1
 216 290 l 1
 193 123 l 1
 509 123 l 1
 509 0 l 1
 23 0 l 1
 120 686 l 1
EndSplineSet
EndChar

StartChar: Ecircumflex
Encoding: 202 202 24
Width: 598
GlyphClass: 2
Flags: MW
HStem: 0 123<193 509 193 509> 290 123<233 509 216 526> 563 123<254 568 254 254> 750 145<174 436 333 552 333 447>
VStem: 23 580
LayerCount: 2
Fore
SplineSet
333 895 m 1
 436 895 l 1
 474 847 513 798 552 750 c 1
 447 750 l 1
 375 833 l 1
 278 750 l 1
 174 750 l 1
 333 895 l 1
120 686 m 1
 603 686 l 1
 568 563 l 1
 254 563 l 1
 233 413 l 1
 526 413 l 1
 509 290 l 1
 216 290 l 1
 193 123 l 1
 509 123 l 1
 509 0 l 1
 23 0 l 1
 120 686 l 1
EndSplineSet
Position2: "'cpsp' Capital Spacing lookup 0 subtable" dx=5 dy=0 dh=10 dv=0
EndChar

StartChar: Edieresis
Encoding: 203 203 25
Width: 598
GlyphClass: 2
Flags: MW
HStem: 0 123<193 509 193 509> 290 123<233 509 216 526> 563 123<254 568 254 254> 750 122<217 321 200 338 217 404 421 525>
VStem: 23 580
LayerCount: 2
Fore
SplineSet
338 872 m 1
 321 750 l 1
 200 750 l 1
 217 872 l 1
 338 872 l 1
542 872 m 1
 525 750 l 1
 404 750 l 1
 421 872 l 1
 542 872 l 1
120 686 m 1
 603 686 l 1
 568 563 l 1
 254 563 l 1
 233 413 l 1
 526 413 l 1
 509 290 l 1
 216 290 l 1
 193 123 l 1
 509 123 l 1
 509 0 l 1
 23 0 l 1
 120 686 l 1
EndSplineSet
Position2: "'cpsp' Capital Spacing lookup 0 subtable" dx=5 dy=0 dh=10 dv=0
EndChar

StartChar: Edotaccent
Encoding: 278 278 26
Width: 598
GlyphClass: 2
Flags: MW
HStem: 0 123<193 509 193 509> 290 123<233 509 216 526> 563 123<254 568 254 254> 779 132<369.5 392.5>
VStem: 316 133<833.5 854.5>
AnchorPoint: "Bottom" 263 0 basechar 0
LayerCount: 2
Fore
SplineSet
449 853 m 0
 449 814 414 779 371 779 c 0
 340 779 316 803 316 834 c 0
 316 875 348 911 391 911 c 0
 425 911 449 885 449 853 c 0
120 686 m 1
 603 686 l 1
 568 563 l 1
 254 563 l 1
 233 413 l 1
 526 413 l 1
 509 290 l 1
 216 290 l 1
 193 123 l 1
 509 123 l 1
 509 0 l 1
 23 0 l 1
 120 686 l 1
EndSplineSet
EndChar

StartChar: Egrave
Encoding: 200 200 27
Width: 598
GlyphClass: 2
Flags: MW
HStem: 0 123<193 509 193 509> 290 123<233 509 216 526> 563 123<254 568 254 254> 750 145<326 356 228 428 326 326>
VStem: 23 580
LayerCount: 2
Fore
SplineSet
226 892 m 1
 228 895 l 1
 356 895 l 1
 428 750 l 1
 326 750 l 1
 226 892 l 1
120 686 m 1
 603 686 l 1
 568 563 l 1
 254 563 l 1
 233 413 l 1
 526 413 l 1
 509 290 l 1
 216 290 l 1
 193 123 l 1
 509 123 l 1
 509 0 l 1
 23 0 l 1
 120 686 l 1
EndSplineSet
Position2: "'cpsp' Capital Spacing lookup 0 subtable" dx=5 dy=0 dh=10 dv=0
EndChar

StartChar: Emacron
Encoding: 274 274 28
Width: 598
GlyphClass: 2
Flags: MW
HStem: 0 123<193 509 193 509> 290 123<233 509 216 526> 563 123<254 568 254 254> 837 74<233 540 222 551>
VStem: 23 580
AnchorPoint: "Bottom" 263 0 basechar 0
LayerCount: 2
Fore
SplineSet
233 911 m 1
 551 911 l 1
 540 837 l 1
 222 837 l 1
 233 911 l 1
120 686 m 1
 603 686 l 1
 568 563 l 1
 254 563 l 1
 233 413 l 1
 526 413 l 1
 509 290 l 1
 216 290 l 1
 193 123 l 1
 509 123 l 1
 509 0 l 1
 23 0 l 1
 120 686 l 1
EndSplineSet
EndChar

StartChar: Eogonek
Encoding: 280 280 29
Width: 598
GlyphClass: 2
Flags: MW
HStem: -143 50<473.5 476.5> 0 123<193 438 500 509 500 500> 290 123<233 509 216 526> 563 123<254 254 254 568>
VStem: 373 71<-75 -63.5> 438 71<0 123>
AnchorPoint: "Bottom" 263 0 basechar 0
LayerCount: 2
Fore
SplineSet
254 563 m 1x78
 233 413 l 1
 526 413 l 1
 509 290 l 1
 216 290 l 1
 193 123 l 1
 509 123 l 1x74
 509 0 l 1
 500 0 l 1
 475 -13 444 -35 444 -64 c 0
 444 -86 464 -93 483 -93 c 0
 507 -93 530 -87 552 -79 c 1
 560 -119 l 1
 529 -135 493 -143 460 -143 c 0
 417 -143 373 -129 373 -83 c 0xf8
 373 -44 406 -19 438 0 c 1x74
 23 0 l 1
 120 686 l 1
 603 686 l 1
 568 563 l 1
 254 563 l 1x78
EndSplineSet
EndChar

StartChar: F
Encoding: 70 70 30
Width: 563
GlyphClass: 2
Flags: MW
HStem: 0 21G<23 175 23 23> 276 123<231 480 214 497> 563 123<254 254 254 550>
VStem: 23 561
LayerCount: 2
Fore
SplineSet
254 563 m 1
 231 399 l 1
 497 399 l 1
 480 276 l 1
 214 276 l 1
 175 0 l 1
 23 0 l 1
 120 686 l 1
 584 686 l 1
 550 563 l 1
 254 563 l 1
EndSplineSet
Position2: "'cpsp' Capital Spacing lookup 0 subtable" dx=5 dy=0 dh=10 dv=0
EndChar

StartChar: G
Encoding: 71 71 31
Width: 699
GlyphClass: 2
Flags: MW
HStem: -10 123<280.5 281 281 286> 0 21G<505 590 505 505> 261 112<336 475 320 636> 573 123<397 411 411 415.5>
VStem: 36 160<200 249.5> 501 148<477 506>
AnchorPoint: "Bottom" 314 0 basechar 0
LayerCount: 2
Fore
SplineSet
590 0 m 1x7c
 505 0 l 1x7c
 501 16 496 42 492 77 c 1
 441 23 377 -10 286 -10 c 2
 281 -10 l 2
 134 -10 36 84 36 238 c 0
 36 261 44 321 54 392 c 0
 80 579 205 696 397 696 c 2
 411 696 l 2
 545 696 649 617 649 484 c 0
 649 470 647 453 646 442 c 1
 500 442 l 1
 501 451 501 460 501 468 c 0
 501 544 448 573 383 573 c 0
 318 573 270 539 246 486 c 0
 212 412 196 269 196 240 c 0
 196 160 243 113 318 113 c 0xbc
 396 113 459 157 475 261 c 1
 320 261 l 1
 336 373 l 1
 636 373 l 1
 603 136 l 2
 597 92 590 47 590 0 c 1x7c
EndSplineSet
Position2: "'cpsp' Capital Spacing lookup 0 subtable" dx=5 dy=0 dh=10 dv=0
EndChar

StartChar: Gbreve
Encoding: 286 286 32
Width: 699
GlyphClass: 2
Flags: MW
HStem: -10 123<280.5 281 281 286> 0 21G<505 590 505 505> 261 112<336 475 320 636> 573 123<397 411 411 415.5> 788 74<398 455 398 470.5>
VStem: 36 160<200 249.5> 501 148<477 506>
AnchorPoint: "Bottom" 314 0 basechar 0
LayerCount: 2
Fore
SplineSet
417 788 m 0xbe
 316 788 241 849 241 904 c 0
 241 906 241 909 242 912 c 2
 323 912 l 1
 326 888 369 862 427 862 c 0
 483 862 537 890 545 912 c 1
 627 912 l 1
 619 855 524 788 417 788 c 0xbe
590 0 m 1x7e
 505 0 l 1x7e
 501 16 496 42 492 77 c 1
 441 23 377 -10 286 -10 c 2
 281 -10 l 2
 134 -10 36 84 36 238 c 0
 36 261 44 321 54 392 c 0
 80 579 205 696 397 696 c 2
 411 696 l 2
 545 696 649 617 649 484 c 0
 649 470 647 453 646 442 c 1
 500 442 l 1
 501 451 501 460 501 468 c 0
 501 544 448 573 383 573 c 0
 318 573 270 539 246 486 c 0
 212 412 196 269 196 240 c 0
 196 160 243 113 318 113 c 0xbe
 396 113 459 157 475 261 c 1
 320 261 l 1
 336 373 l 1
 636 373 l 1
 603 136 l 2
 597 92 590 47 590 0 c 1x7e
EndSplineSet
EndChar

StartChar: Gcommaaccent
Encoding: 290 290 33
Width: 699
GlyphClass: 2
Flags: MW
HStem: -167 137<242 286 223 388> -10 123<280.5 281 281 286> 0 21G<505 590 505 505> 261 112<336 475 320 636> 573 123<397 411 411 415.5>
VStem: 36 160<200 249.5> 501 148<477 506>
AnchorPoint: "Bottom" 314 0 basechar 0
LayerCount: 2
Fore
SplineSet
590 0 m 1x3e
 505 0 l 1x3e
 501 16 496 42 492 77 c 1
 441 23 377 -10 286 -10 c 2
 281 -10 l 2
 134 -10 36 84 36 238 c 0
 36 261 44 321 54 392 c 0
 80 579 205 696 397 696 c 2
 411 696 l 2
 545 696 649 617 649 484 c 0
 649 470 647 453 646 442 c 1
 500 442 l 1
 501 451 501 460 501 468 c 0
 501 544 448 573 383 573 c 0
 318 573 270 539 246 486 c 0
 212 412 196 269 196 240 c 0
 196 160 243 113 318 113 c 0x5e
 396 113 459 157 475 261 c 1
 320 261 l 1
 336 373 l 1
 636 373 l 1
 603 136 l 2
 597 92 590 47 590 0 c 1x3e
286 -167 m 1xde
 223 -167 l 1
 242 -30 l 1
 388 -30 l 1
 372 -143 l 1
 332 -250 l 1
 258 -250 l 1
 286 -167 l 1xde
EndSplineSet
EndChar

StartChar: H
Encoding: 72 72 34
Width: 691
GlyphClass: 2
Flags: MW
HStem: 0 21G<23 178 23 23 415 415 415 569> 286 128<235 455 218 473> 666 20G<120 274 274 274 512 666 666 666>
VStem: 23 643
LayerCount: 2
Fore
SplineSet
455 286 m 1
 218 286 l 1
 178 0 l 1
 23 0 l 1
 120 686 l 1
 274 686 l 1
 235 414 l 1
 473 414 l 1
 512 686 l 1
 666 686 l 1
 569 0 l 1
 415 0 l 1
 455 286 l 1
EndSplineSet
Position2: "'cpsp' Capital Spacing lookup 0 subtable" dx=5 dy=0 dh=10 dv=0
EndChar

StartChar: I
Encoding: 73 73 35
Width: 461
GlyphClass: 2
Flags: MW
HStem: 0 123<41 122 277 339 23 122> 563 123<120 183 102 436 338 418 338 338>
VStem: 23 413
LayerCount: 2
Fore
SplineSet
436 686 m 1
 418 563 l 1
 338 563 l 1
 277 123 l 1
 357 123 l 1
 339 0 l 1
 23 0 l 1
 41 123 l 1
 122 123 l 1
 183 563 l 1
 102 563 l 1
 120 686 l 1
 436 686 l 1
EndSplineSet
Position2: "'cpsp' Capital Spacing lookup 0 subtable" dx=5 dy=0 dh=10 dv=0
EndChar

StartChar: Iacute
Encoding: 205 205 36
Width: 461
GlyphClass: 2
Flags: MW
HStem: 0 123<41 122 277 339 23 122> 563 123<120 183 102 436 338 418 338 338> 750 145<224 466 224 466>
VStem: 23 443
LayerCount: 2
Fore
SplineSet
337 895 m 1
 466 895 l 1
 466 891 l 1
 325 750 l 1
 224 750 l 1
 337 895 l 1
436 686 m 1
 418 563 l 1
 338 563 l 1
 277 123 l 1
 357 123 l 1
 339 0 l 1
 23 0 l 1
 41 123 l 1
 122 123 l 1
 183 563 l 1
 102 563 l 1
 120 686 l 1
 436 686 l 1
EndSplineSet
Position2: "'cpsp' Capital Spacing lookup 0 subtable" dx=5 dy=0 dh=10 dv=0
EndChar

StartChar: Icircumflex
Encoding: 206 206 37
Width: 461
GlyphClass: 2
Flags: MW
HStem: 0 123<41 122 277 339 23 122> 563 123<120 183 102 436 338 418 338 338> 750 145<97 359 256 475 256 370>
VStem: 23 452
LayerCount: 2
Fore
SplineSet
256 895 m 1
 359 895 l 1
 397 847 436 798 475 750 c 1
 370 750 l 1
 298 833 l 1
 201 750 l 1
 97 750 l 1
 256 895 l 1
436 686 m 1
 418 563 l 1
 338 563 l 1
 277 123 l 1
 357 123 l 1
 339 0 l 1
 23 0 l 1
 41 123 l 1
 122 123 l 1
 183 563 l 1
 102 563 l 1
 120 686 l 1
 436 686 l 1
EndSplineSet
Position2: "'cpsp' Capital Spacing lookup 0 subtable" dx=5 dy=0 dh=10 dv=0
EndChar

StartChar: Idieresis
Encoding: 207 207 38
Width: 461
GlyphClass: 2
Flags: MW
HStem: 0 123<41 122 277 339 23 122> 563 123<120 183 102 436 338 418 338 338> 750 122<142 246 125 263 142 329 346 450>
VStem: 23 444
LayerCount: 2
Fore
SplineSet
263 872 m 1
 246 750 l 1
 125 750 l 1
 142 872 l 1
 263 872 l 1
467 872 m 1
 450 750 l 1
 329 750 l 1
 346 872 l 1
 467 872 l 1
436 686 m 1
 418 563 l 1
 338 563 l 1
 277 123 l 1
 357 123 l 1
 339 0 l 1
 23 0 l 1
 41 123 l 1
 122 123 l 1
 183 563 l 1
 102 563 l 1
 120 686 l 1
 436 686 l 1
EndSplineSet
Position2: "'cpsp' Capital Spacing lookup 0 subtable" dx=5 dy=0 dh=10 dv=0
EndChar

StartChar: Idotaccent
Encoding: 304 304 39
Width: 461
GlyphClass: 2
Flags: MW
HStem: 0 123<41 122 277 339 23 122> 563 123<120 183 102 436 338 418 338 338> 779 132<291.5 314.5>
VStem: 238 133<833.5 854.5>
LayerCount: 2
Fore
SplineSet
371 853 m 0
 371 814 336 779 293 779 c 0
 262 779 238 803 238 834 c 0
 238 875 270 911 313 911 c 0
 347 911 371 885 371 853 c 0
436 686 m 1
 418 563 l 1
 338 563 l 1
 277 123 l 1
 357 123 l 1
 339 0 l 1
 23 0 l 1
 41 123 l 1
 122 123 l 1
 183 563 l 1
 102 563 l 1
 120 686 l 1
 436 686 l 1
EndSplineSet
EndChar

StartChar: Igrave
Encoding: 204 204 40
Width: 461
GlyphClass: 2
Flags: MW
HStem: 0 123<41 122 277 339 23 122> 563 123<120 183 102 436 338 418 338 338> 750 145<234 264 136 336 234 234>
VStem: 23 413
LayerCount: 2
Fore
SplineSet
134 892 m 1
 136 895 l 1
 264 895 l 1
 336 750 l 1
 234 750 l 1
 134 892 l 1
436 686 m 1
 418 563 l 1
 338 563 l 1
 277 123 l 1
 357 123 l 1
 339 0 l 1
 23 0 l 1
 41 123 l 1
 122 123 l 1
 183 563 l 1
 102 563 l 1
 120 686 l 1
 436 686 l 1
EndSplineSet
Position2: "'cpsp' Capital Spacing lookup 0 subtable" dx=5 dy=0 dh=10 dv=0
EndChar

StartChar: Imacron
Encoding: 298 298 41
Width: 461
GlyphClass: 2
Flags: MW
HStem: 0 123<41 122 277 339 23 122> 563 123<120 183 102 436 338 418 338 338> 837 74<155 462 144 473>
VStem: 23 450
LayerCount: 2
Fore
SplineSet
155 911 m 1
 473 911 l 1
 462 837 l 1
 144 837 l 1
 155 911 l 1
436 686 m 1
 418 563 l 1
 338 563 l 1
 277 123 l 1
 357 123 l 1
 339 0 l 1
 23 0 l 1
 41 123 l 1
 122 123 l 1
 183 563 l 1
 102 563 l 1
 120 686 l 1
 436 686 l 1
EndSplineSet
EndChar

StartChar: Iogonek
Encoding: 302 302 42
Width: 461
GlyphClass: 2
Flags: MW
HStem: -143 50<290.5 293.5> 0 123<41 122 41 255 23 122 317 339 317 317> 563 123<120 183 102 436 338 418 338 338>
VStem: 190 71<-75 -63.5>
LayerCount: 2
Fore
SplineSet
338 563 m 1
 277 123 l 1
 357 123 l 1
 339 0 l 1
 317 0 l 1
 292 -13 261 -35 261 -64 c 0
 261 -86 281 -93 300 -93 c 0
 324 -93 347 -87 369 -79 c 1
 377 -119 l 1
 346 -135 310 -143 277 -143 c 0
 234 -143 190 -129 190 -83 c 0
 190 -44 223 -19 255 0 c 1
 23 0 l 1
 41 123 l 1
 122 123 l 1
 183 563 l 1
 102 563 l 1
 120 686 l 1
 436 686 l 1
 418 563 l 1
 338 563 l 1
EndSplineSet
EndChar

StartChar: J
Encoding: 74 74 43
Width: 527
GlyphClass: 2
Flags: MW
HStem: -10 123<127.5 221 178 198> -10 238<127.5 139 -5 178 -5 198> 666 20G<352 503 503 503>
VStem: -14 146<95.5 188>
LayerCount: 2
Fore
SplineSet
-5 228 m 1x70
 139 228 l 1x70
 139 228 132 198 132 178 c 0
 132 142 156 113 200 113 c 0
 242 113 276 142 282 187 c 2
 352 686 l 1
 503 686 l 1
 433 183 l 2
 416 56 318 -10 198 -10 c 2
 178 -10 l 2xb0
 77 -10 -14 44 -14 147 c 0
 -14 158 -14 179 -5 228 c 1x70
EndSplineSet
Position2: "'cpsp' Capital Spacing lookup 0 subtable" dx=5 dy=0 dh=10 dv=0
EndChar

StartChar: K
Encoding: 75 75 44
Width: 660
GlyphClass: 2
Flags: MW
HStem: 0 21G<23 174 23 23 426 601 426 426> 666 20G<120 271 271 271 518 691 691 691>
VStem: 23 668
AnchorPoint: "Bottom" 294 0 basechar 0
LayerCount: 2
Fore
SplineSet
271 686 m 1
 227 372 l 1
 518 686 l 1
 691 686 l 1
 589 578 505 487 419 397 c 1
 480 264 540 132 601 0 c 1
 426 0 l 1
 302 278 l 1
 199 179 l 1
 174 0 l 1
 23 0 l 1
 120 686 l 1
 271 686 l 1
EndSplineSet
Position2: "'cpsp' Capital Spacing lookup 0 subtable" dx=5 dy=0 dh=10 dv=0
EndChar

StartChar: Kcommaaccent
Encoding: 310 310 45
Width: 660
GlyphClass: 2
Flags: MW
HStem: -167 137<222 266 203 368> 0 21G<23 174 23 23 426 601 426 426> 666 20G<120 271 271 271 518 691 691 691>
VStem: 23 668
AnchorPoint: "Bottom" 294 0 basechar 0
LayerCount: 2
Fore
SplineSet
271 686 m 1
 227 372 l 1
 518 686 l 1
 691 686 l 1
 589 578 505 487 419 397 c 1
 480 264 540 132 601 0 c 1
 426 0 l 1
 302 278 l 1
 199 179 l 1
 174 0 l 1
 23 0 l 1
 120 686 l 1
 271 686 l 1
266 -167 m 1xf0
 203 -167 l 1
 222 -30 l 1
 368 -30 l 1
 352 -143 l 1
 312 -250 l 1
 238 -250 l 1
 266 -167 l 1xf0
EndSplineSet
EndChar

StartChar: L
Encoding: 76 76 46
Width: 533
GlyphClass: 2
Flags: MW
HStem: 0 128<196 477 196 477> 666 20G<120 275 275 275>
VStem: 23 454<0 128>
AnchorPoint: "Bottom" 231 0 basechar 0
LayerCount: 2
Fore
SplineSet
120 686 m 1
 275 686 l 1
 196 128 l 1
 477 128 l 1
 477 0 l 1
 23 0 l 1
 120 686 l 1
EndSplineSet
Position2: "'cpsp' Capital Spacing lookup 0 subtable" dx=5 dy=0 dh=10 dv=0
EndChar

StartChar: Lacute
Encoding: 313 313 47
Width: 533
GlyphClass: 2
Flags: MW
HStem: 0 128<196 477 196 477> 666 20G<120 275 275 275> 750 145<166 408 166 408>
VStem: 23 454<0 128>
AnchorPoint: "Bottom" 231 0 basechar 0
LayerCount: 2
Fore
SplineSet
279 895 m 1
 408 895 l 1
 408 891 l 1
 267 750 l 1
 166 750 l 1
 279 895 l 1
120 686 m 1
 275 686 l 1
 196 128 l 1
 477 128 l 1
 477 0 l 1
 23 0 l 1
 120 686 l 1
EndSplineSet
EndChar

StartChar: Lcaron
Encoding: 317 317 48
Width: 533
GlyphClass: 2
Flags: MW
HStem: 0 128<196 477 196 477> 539 147<413 455 120 392>
VStem: 23 536
AnchorPoint: "Bottom" 231 0 basechar 0
LayerCount: 2
Fore
SplineSet
120 686 m 1
 275 686 l 1
 196 128 l 1
 477 128 l 1
 477 0 l 1
 23 0 l 1
 120 686 l 1
455 539 m 1
 392 539 l 1
 413 686 l 1
 559 686 l 1
 542 563 l 1
 476 395 l 1
 403 395 l 1
 455 539 l 1
EndSplineSet
EndChar

StartChar: Lcommaaccent
Encoding: 315 315 49
Width: 533
GlyphClass: 2
Flags: MW
HStem: -167 137<159 203 140 305> 0 128<196 477 196 477> 666 20G<120 275 275 275>
VStem: 23 454<0 128>
AnchorPoint: "Bottom" 231 0 basechar 0
LayerCount: 2
Fore
SplineSet
120 686 m 1
 275 686 l 1
 196 128 l 1
 477 128 l 1
 477 0 l 1
 23 0 l 1
 120 686 l 1
203 -167 m 1xf0
 140 -167 l 1
 159 -30 l 1
 305 -30 l 1
 289 -143 l 1
 249 -250 l 1
 175 -250 l 1
 203 -167 l 1xf0
EndSplineSet
EndChar

StartChar: Lslash
Encoding: 321 321 50
Width: 546
GlyphClass: 2
Flags: MW
HStem: 0 128<196 473 196 473> 666 20G<120 275 275 275>
VStem: -1 474<0 274>
LayerCount: 2
Fore
SplineSet
-1 274 m 1
 10 362 l 1
 34 372 56 383 79 394 c 1
 120 686 l 1
 275 686 l 1
 245 472 l 1
 368 530 l 1
 355 442 l 1
 232 384 l 1
 196 128 l 1
 473 128 l 1
 473 0 l 1
 23 0 l 1
 66 306 l 1
 44 295 21 284 -1 274 c 1
EndSplineSet
Position2: "'cpsp' Capital Spacing lookup 0 subtable" dx=5 dy=0 dh=10 dv=0
EndChar

StartChar: M
Encoding: 77 77 51
Width: 967
GlyphClass: 2
Flags: MW
HStem: 0 21G<23 163 23 23 346 508 346 346 691 691 691 845> 505 181<234 239 234 234 757 762 757 757>
VStem: 23 919<0 686>
LayerCount: 2
Fore
SplineSet
762 505 m 1
 757 505 l 1
 508 0 l 1
 346 0 l 1
 239 505 l 1
 234 505 l 1
 163 0 l 1
 23 0 l 1
 120 686 l 1
 369 686 l 1
 465 233 l 1
 469 233 l 1
 693 686 l 1
 942 686 l 1
 845 0 l 1
 691 0 l 1
 762 505 l 1
EndSplineSet
Position2: "'cpsp' Capital Spacing lookup 0 subtable" dx=5 dy=0 dh=10 dv=0
EndChar

StartChar: N
Encoding: 78 78 52
Width: 691
GlyphClass: 2
Flags: MW
HStem: 0 21G<23 164 23 23 438 569 438 438> 666 20G<120 251 251 251 525 666 666 666>
VStem: 23 643
AnchorPoint: "Bottom" 310 0 basechar 0
LayerCount: 2
Fore
SplineSet
438 0 m 1
 268 316 l 2
 254 342 225 405 225 405 c 1
 221 402 l 1
 164 0 l 1
 23 0 l 1
 120 686 l 1
 251 686 l 1
 422 368 l 2
 437 340 450 309 465 280 c 1
 468 283 l 1
 525 686 l 1
 666 686 l 1
 569 0 l 1
 438 0 l 1
EndSplineSet
Position2: "'cpsp' Capital Spacing lookup 0 subtable" dx=5 dy=0 dh=10 dv=0
EndChar

StartChar: Nacute
Encoding: 323 323 53
Width: 691
GlyphClass: 2
Flags: MW
HStem: 0 21G<23 164 23 23 438 569 438 438> 666 20G<120 251 251 251 525 666 666 666> 750 145<325 567 325 567>
VStem: 23 643
AnchorPoint: "Bottom" 310 0 basechar 0
LayerCount: 2
Fore
SplineSet
438 895 m 1
 567 895 l 1
 567 891 l 1
 426 750 l 1
 325 750 l 1
 438 895 l 1
438 0 m 1
 268 316 l 2
 254 342 225 405 225 405 c 1
 221 402 l 1
 164 0 l 1
 23 0 l 1
 120 686 l 1
 251 686 l 1
 422 368 l 2
 437 340 450 309 465 280 c 1
 468 283 l 1
 525 686 l 1
 666 686 l 1
 569 0 l 1
 438 0 l 1
EndSplineSet
EndChar

StartChar: Ncaron
Encoding: 327 327 54
Width: 691
GlyphClass: 2
Flags: MW
HStem: 0 21G<23 164 23 23 438 569 438 438> 666 20G<120 251 251 251 525 666 666 666> 750 145<237 457 237 354>
VStem: 23 643
AnchorPoint: "Bottom" 310 0 basechar 0
LayerCount: 2
Fore
SplineSet
342 895 m 1
 415 812 l 1
 511 895 l 1
 615 895 l 1
 566 850 516 805 457 750 c 1
 354 750 l 1
 237 895 l 1
 342 895 l 1
438 0 m 1
 268 316 l 2
 254 342 225 405 225 405 c 1
 221 402 l 1
 164 0 l 1
 23 0 l 1
 120 686 l 1
 251 686 l 1
 422 368 l 2
 437 340 450 309 465 280 c 1
 468 283 l 1
 525 686 l 1
 666 686 l 1
 569 0 l 1
 438 0 l 1
EndSplineSet
EndChar

StartChar: Ncommaaccent
Encoding: 325 325 55
Width: 691
GlyphClass: 2
Flags: MW
HStem: -167 137<238 282 219 384> 0 21G<23 164 23 23 438 569 438 438> 666 20G<120 251 251 251 525 666 666 666>
VStem: 23 643
AnchorPoint: "Bottom" 310 0 basechar 0
LayerCount: 2
Fore
SplineSet
438 0 m 1
 268 316 l 2
 254 342 225 405 225 405 c 1
 221 402 l 1
 164 0 l 1
 23 0 l 1
 120 686 l 1
 251 686 l 1
 422 368 l 2
 437 340 450 309 465 280 c 1
 468 283 l 1
 525 686 l 1
 666 686 l 1
 569 0 l 1
 438 0 l 1
282 -167 m 1xf0
 219 -167 l 1
 238 -30 l 1
 384 -30 l 1
 368 -143 l 1
 328 -250 l 1
 254 -250 l 1
 282 -167 l 1xf0
EndSplineSet
EndChar

StartChar: Ntilde
Encoding: 209 209 56
Width: 691
GlyphClass: 2
Flags: MW
HStem: 0 21G<23 164 23 23 438 569 438 438> 666 20G<120 251 251 251 525 666 666 666> 749 86<465 506 465 511> 786 87<292 333>
VStem: 23 643
LayerCount: 2
Fore
SplineSet
550 873 m 1xe8
 615 873 l 1xe8
 607 813 550 749 472 749 c 0
 408 749 360 786 306 786 c 0xd8
 278 786 259 772 249 749 c 1
 184 749 l 1
 192 808 249 873 327 873 c 0
 391 873 438 835 492 835 c 0
 520 835 540 850 550 873 c 1xe8
438 0 m 1
 268 316 l 2
 254 342 225 405 225 405 c 1
 221 402 l 1
 164 0 l 1
 23 0 l 1
 120 686 l 1
 251 686 l 1
 422 368 l 2
 437 340 450 309 465 280 c 1
 468 283 l 1
 525 686 l 1
 666 686 l 1
 569 0 l 1
 438 0 l 1
EndSplineSet
Position2: "'cpsp' Capital Spacing lookup 0 subtable" dx=5 dy=0 dh=10 dv=0
EndChar

StartChar: O
Encoding: 79 79 57
Width: 708
GlyphClass: 2
Flags: MW
HStem: -10 123<284.5 365.5 284.5 386.5> 573 122<334 421>
VStem: 36 161<197.5 253.5 197.5 256> 509 160<429.5 487.5>
LayerCount: 2
Fore
SplineSet
652 294 m 0
 623 91 484 -10 289 -10 c 0
 143 -10 36 86 36 241 c 0
 36 271 38 276 54 391 c 0
 82 592 221 695 416 695 c 0
 562 695 669 599 669 443 c 0
 669 416 668 409 652 294 c 0
487 272 m 0
 501 364 509 406 509 449 c 0
 509 526 458 573 384 573 c 0
 284 573 230 506 215 390 c 0
 203 304 197 271 197 236 c 0
 197 159 247 113 322 113 c 0
 409 113 472 167 487 272 c 0
EndSplineSet
Substitution2: "Single Substitution lookup 5 subtable" ordmasculine
Substitution2: "'aalt' Access All Alternates lookup 0 subtable" ordmasculine
Position2: "'cpsp' Capital Spacing lookup 0 subtable" dx=5 dy=0 dh=10 dv=0
EndChar

StartChar: Oacute
Encoding: 211 211 58
Width: 708
GlyphClass: 2
Flags: MW
HStem: -10 123<284.5 365.5 284.5 386.5> 573 122<334 421> 750 145<364 606 364 606>
VStem: 36 161<197.5 253.5 197.5 256> 509 160<429.5 487.5>
LayerCount: 2
Fore
SplineSet
477 895 m 1
 606 895 l 1
 606 891 l 1
 465 750 l 1
 364 750 l 1
 477 895 l 1
652 294 m 0
 623 91 484 -10 289 -10 c 0
 143 -10 36 86 36 241 c 0
 36 271 38 276 54 391 c 0
 82 592 221 695 416 695 c 0
 562 695 669 599 669 443 c 0
 669 416 668 409 652 294 c 0
487 272 m 0
 501 364 509 406 509 449 c 0
 509 526 458 573 384 573 c 0
 284 573 230 506 215 390 c 0
 203 304 197 271 197 236 c 0
 197 159 247 113 322 113 c 0
 409 113 472 167 487 272 c 0
EndSplineSet
Position2: "'cpsp' Capital Spacing lookup 0 subtable" dx=5 dy=0 dh=10 dv=0
EndChar

StartChar: Ocircumflex
Encoding: 212 212 59
Width: 708
GlyphClass: 2
Flags: MW
HStem: -10 123<284.5 365.5 284.5 386.5> 573 122<334 421> 750 145<236 498 395 614 395 509>
VStem: 36 161<197.5 253.5 197.5 256> 509 160<429.5 487.5>
LayerCount: 2
Fore
SplineSet
395 895 m 1
 498 895 l 1
 536 847 575 798 614 750 c 1
 509 750 l 1
 437 833 l 1
 340 750 l 1
 236 750 l 1
 395 895 l 1
652 294 m 0
 623 91 484 -10 289 -10 c 0
 143 -10 36 86 36 241 c 0
 36 271 38 276 54 391 c 0
 82 592 221 695 416 695 c 0
 562 695 669 599 669 443 c 0
 669 416 668 409 652 294 c 0
487 272 m 0
 501 364 509 406 509 449 c 0
 509 526 458 573 384 573 c 0
 284 573 230 506 215 390 c 0
 203 304 197 271 197 236 c 0
 197 159 247 113 322 113 c 0
 409 113 472 167 487 272 c 0
EndSplineSet
Position2: "'cpsp' Capital Spacing lookup 0 subtable" dx=5 dy=0 dh=10 dv=0
EndChar

StartChar: Odieresis
Encoding: 214 214 60
Width: 708
GlyphClass: 2
Flags: MW
HStem: -10 123<284.5 365.5 284.5 386.5> 573 122<334 421> 750 122<277 381 260 398 277 464 481 585>
VStem: 36 161<197.5 253.5 197.5 256> 509 160<429.5 487.5>
LayerCount: 2
Fore
SplineSet
398 872 m 1
 381 750 l 1
 260 750 l 1
 277 872 l 1
 398 872 l 1
602 872 m 1
 585 750 l 1
 464 750 l 1
 481 872 l 1
 602 872 l 1
652 294 m 0
 623 91 484 -10 289 -10 c 0
 143 -10 36 86 36 241 c 0
 36 271 38 276 54 391 c 0
 82 592 221 695 416 695 c 0
 562 695 669 599 669 443 c 0
 669 416 668 409 652 294 c 0
487 272 m 0
 501 364 509 406 509 449 c 0
 509 526 458 573 384 573 c 0
 284 573 230 506 215 390 c 0
 203 304 197 271 197 236 c 0
 197 159 247 113 322 113 c 0
 409 113 472 167 487 272 c 0
EndSplineSet
Position2: "'cpsp' Capital Spacing lookup 0 subtable" dx=5 dy=0 dh=10 dv=0
EndChar

StartChar: Ograve
Encoding: 210 210 61
Width: 708
GlyphClass: 2
Flags: MW
HStem: -10 123<284.5 365.5 284.5 386.5> 573 122<334 421> 750 145<365 395 267 467 365 365>
VStem: 36 161<197.5 253.5 197.5 256> 509 160<429.5 487.5>
LayerCount: 2
Fore
SplineSet
265 892 m 1
 267 895 l 1
 395 895 l 1
 467 750 l 1
 365 750 l 1
 265 892 l 1
652 294 m 0
 623 91 484 -10 289 -10 c 0
 143 -10 36 86 36 241 c 0
 36 271 38 276 54 391 c 0
 82 592 221 695 416 695 c 0
 562 695 669 599 669 443 c 0
 669 416 668 409 652 294 c 0
487 272 m 0
 501 364 509 406 509 449 c 0
 509 526 458 573 384 573 c 0
 284 573 230 506 215 390 c 0
 203 304 197 271 197 236 c 0
 197 159 247 113 322 113 c 0
 409 113 472 167 487 272 c 0
EndSplineSet
Position2: "'cpsp' Capital Spacing lookup 0 subtable" dx=5 dy=0 dh=10 dv=0
EndChar

StartChar: Ohungarumlaut
Encoding: 336 336 62
Width: 708
GlyphClass: 2
Flags: MW
HStem: -10 123<284.5 365.5 284.5 386.5> 573 122<334 421> 750 145<227 469 227 469 418 418 418 469 341 520>
VStem: 36 161<197.5 253.5 197.5 256> 509 160<429.5 487.5>
LayerCount: 2
Fore
SplineSet
341 895 m 1
 469 895 l 1
 470 892 l 1
 329 750 l 1
 227 750 l 1
 341 895 l 1
532 895 m 1
 660 895 l 1
 661 892 l 1
 520 750 l 1
 418 750 l 1
 532 895 l 1
652 294 m 0
 623 91 484 -10 289 -10 c 0
 143 -10 36 86 36 241 c 0
 36 271 38 276 54 391 c 0
 82 592 221 695 416 695 c 0
 562 695 669 599 669 443 c 0
 669 416 668 409 652 294 c 0
487 272 m 0
 501 364 509 406 509 449 c 0
 509 526 458 573 384 573 c 0
 284 573 230 506 215 390 c 0
 203 304 197 271 197 236 c 0
 197 159 247 113 322 113 c 0
 409 113 472 167 487 272 c 0
EndSplineSet
EndChar

StartChar: Omacron
Encoding: 332 332 63
Width: 708
GlyphClass: 2
Flags: MW
HStem: -10 123<284.5 365.5 284.5 386.5> 573 122<334 421> 837 74<288 595 277 606>
VStem: 36 161<197.5 253.5 197.5 256> 509 160<429.5 487.5>
LayerCount: 2
Fore
SplineSet
288 911 m 1
 606 911 l 1
 595 837 l 1
 277 837 l 1
 288 911 l 1
652 294 m 0
 623 91 484 -10 289 -10 c 0
 143 -10 36 86 36 241 c 0
 36 271 38 276 54 391 c 0
 82 592 221 695 416 695 c 0
 562 695 669 599 669 443 c 0
 669 416 668 409 652 294 c 0
487 272 m 0
 501 364 509 406 509 449 c 0
 509 526 458 573 384 573 c 0
 284 573 230 506 215 390 c 0
 203 304 197 271 197 236 c 0
 197 159 247 113 322 113 c 0
 409 113 472 167 487 272 c 0
EndSplineSet
EndChar

StartChar: Oslash
Encoding: 216 216 64
Width: 708
GlyphClass: 2
Flags: MW
HStem: -10 123<306 365.5 306 386.5> 573 122<334 399.5>
VStem: 36 161<229 253.5 229 256> 509 160<429.5 456>
LayerCount: 2
Fore
SplineSet
652 294 m 0
 623 91 484 -10 289 -10 c 0
 239 -10 194 1 156 22 c 1
 91 -65 l 1
 5 -65 l 1
 101 64 l 1
 60 107 36 167 36 241 c 0
 36 271 38 276 54 391 c 0
 82 592 221 695 416 695 c 0
 465 695 510 684 547 664 c 1
 615 754 l 1
 701 754 l 1
 603 622 l 1
 644 579 669 517 669 443 c 0
 669 416 668 409 652 294 c 0
197 236 m 0
 197 222 198 210 201 199 c 1
 462 549 l 1
 441 564 415 573 384 573 c 0
 284 573 230 506 215 390 c 0
 203 304 197 271 197 236 c 0
487 272 m 0
 501 364 509 406 509 449 c 0
 509 463 507 477 503 489 c 1
 241 137 l 1
 262 121 290 113 322 113 c 0
 409 113 472 167 487 272 c 0
EndSplineSet
Position2: "'cpsp' Capital Spacing lookup 0 subtable" dx=5 dy=0 dh=10 dv=0
EndChar

StartChar: Otilde
Encoding: 213 213 65
Width: 708
GlyphClass: 2
Flags: MW
HStem: -10 123<284.5 365.5 284.5 386.5> 573 122<334 421> 749 86<498 539 498 544> 786 87<325 366>
VStem: 36 161<197.5 253.5 197.5 256> 509 160<429.5 487.5>
LayerCount: 2
Fore
SplineSet
583 873 m 1xec
 648 873 l 1xec
 640 813 583 749 505 749 c 0
 441 749 393 786 339 786 c 0xdc
 311 786 292 772 282 749 c 1
 217 749 l 1
 225 808 282 873 360 873 c 0
 424 873 471 835 525 835 c 0
 553 835 573 850 583 873 c 1xec
652 294 m 0
 623 91 484 -10 289 -10 c 0
 143 -10 36 86 36 241 c 0
 36 271 38 276 54 391 c 0
 82 592 221 695 416 695 c 0
 562 695 669 599 669 443 c 0
 669 416 668 409 652 294 c 0
487 272 m 0
 501 364 509 406 509 449 c 0
 509 526 458 573 384 573 c 0
 284 573 230 506 215 390 c 0
 203 304 197 271 197 236 c 0
 197 159 247 113 322 113 c 0
 409 113 472 167 487 272 c 0
EndSplineSet
Position2: "'cpsp' Capital Spacing lookup 0 subtable" dx=5 dy=0 dh=10 dv=0
EndChar

StartChar: OE
Encoding: 338 338 66
Width: 1024
GlyphClass: 2
Flags: MW
HStem: -10 123<284.5 320.5> 0 123<630 932 630 932> 290 123<670 932 653 949> 563 123<691 991 691 691> 573 122<334 421>
VStem: 36 161<197.5 253.5 197.5 256>
LayerCount: 2
Fore
SplineSet
455 0 m 1x74
 459 32 l 1
 410 4 352 -10 289 -10 c 0
 143 -10 36 86 36 241 c 0
 36 271 38 276 54 391 c 0
 81 592 230 695 406 695 c 0
 459 695 507 681 547 654 c 1xac
 552 686 l 1
 1026 686 l 1
 991 563 l 1
 691 563 l 1
 670 413 l 1
 949 413 l 1
 932 290 l 1
 653 290 l 1
 630 123 l 1
 932 123 l 1
 932 0 l 1
 455 0 l 1x74
487 272 m 0
 501 364 509 406 509 449 c 0
 509 526 458 573 384 573 c 0
 284 573 230 506 215 390 c 0
 203 304 197 271 197 236 c 0
 197 159 247 113 322 113 c 0
 409 113 472 167 487 272 c 0
EndSplineSet
Position2: "'cpsp' Capital Spacing lookup 0 subtable" dx=5 dy=0 dh=10 dv=0
EndChar

StartChar: P
Encoding: 80 80 67
Width: 629
GlyphClass: 2
Flags: MW
HStem: 0 21G<23 177 23 23> 265 121<231 372 372 391 214 372> 563 123<256 397 256 256>
VStem: 474 157<489 509>
LayerCount: 2
Fore
SplineSet
177 0 m 1
 23 0 l 1
 120 686 l 1
 450 686 l 2
 555 686 631 613 631 511 c 0
 631 371 535 265 391 265 c 2
 214 265 l 1
 177 0 l 1
231 386 m 1
 372 386 l 2
 437 386 470 440 474 489 c 0
 474 529 445 563 397 563 c 2
 256 563 l 1
 231 386 l 1
EndSplineSet
Position2: "'cpsp' Capital Spacing lookup 0 subtable" dx=5 dy=0 dh=10 dv=0
EndChar

StartChar: Thorn
Encoding: 222 222 68
Width: 634
GlyphClass: 2
Flags: MW
HStem: 0 21G<23 177 23 23> 154 118<216 362 362 376 199 362> 450 122<258 387 241 435> 666 20G<120 274 274 274>
VStem: 459 156<352.5 400>
LayerCount: 2
Fore
SplineSet
177 0 m 1
 23 0 l 1
 120 686 l 1
 274 686 l 1
 258 572 l 1
 435 572 l 2
 539 572 615 500 615 398 c 0
 615 275 519 154 376 154 c 2
 199 154 l 1
 177 0 l 1
216 272 m 1
 362 272 l 2
 418 272 459 325 459 380 c 0
 459 420 429 450 387 450 c 2
 241 450 l 1
 216 272 l 1
EndSplineSet
Position2: "'cpsp' Capital Spacing lookup 0 subtable" dx=5 dy=0 dh=10 dv=0
EndChar

StartChar: Q
Encoding: 81 81 69
Width: 708
GlyphClass: 2
Flags: MW
HStem: -153 99<459.5 484> -6 21G 1 21G 573 122<345 432>
VStem: 47 161<197.5 253.5 197.5 256> 520 160<429.5 487.5>
LayerCount: 2
Fore
SplineSet
663 294 m 0xbc
 639 129 543 32 404 1 c 1xbc
 411 -25 432 -54 487 -54 c 0
 534 -54 612 -29 612 -28 c 2
 600 -116 l 1
 600 -116 530 -153 438 -153 c 0
 302 -153 256 -72 251 -6 c 1xdc
 130 13 47 104 47 241 c 0
 47 271 49 276 65 391 c 0
 93 592 232 695 427 695 c 0
 573 695 680 599 680 443 c 0
 680 416 679 409 663 294 c 0xbc
498 272 m 0
 512 364 520 406 520 449 c 0
 520 526 469 573 395 573 c 0
 295 573 241 506 226 390 c 0
 214 304 208 271 208 236 c 0
 208 159 258 113 333 113 c 0
 420 113 483 167 498 272 c 0
EndSplineSet
Position2: "'cpsp' Capital Spacing lookup 0 subtable" dx=5 dy=0 dh=10 dv=0
EndChar

StartChar: R
Encoding: 82 82 70
Width: 665
GlyphClass: 2
Flags: MW
HStem: -7 21G<481.5 527> 0 21G<24 176 24 24> 284 121<233 333 216 383> 563 123<255 405 255 255>
VStem: 418 156<201 212.5> 475 160<501 516.5>
AnchorPoint: "Bottom" 297 0 basechar 0
LayerCount: 2
Fore
SplineSet
176 0 m 1x78
 24 0 l 1
 120 686 l 1
 427 686 l 2
 541 686 635 650 635 542 c 0x74
 635 460 588 373 489 355 c 1
 488 348 l 1
 528 334 574 294 574 207 c 0
 574 195 567 123 567 113 c 0
 567 77 578 49 605 40 c 1
 601 6 l 1
 577 -3 542 -7 512 -7 c 0
 451 -7 410 13 410 86 c 0xb8
 410 112 418 152 418 176 c 0
 418 249 384 284 333 284 c 2
 216 284 l 1
 176 0 l 1x78
233 405 m 1
 383 405 l 2
 433 405 475 443 475 498 c 0
 475 535 448 563 405 563 c 2
 255 563 l 1
 233 405 l 1
EndSplineSet
Position2: "'cpsp' Capital Spacing lookup 0 subtable" dx=5 dy=0 dh=10 dv=0
EndChar

StartChar: Racute
Encoding: 340 340 71
Width: 665
GlyphClass: 2
Flags: MW
HStem: -7 21G<481.5 527> 0 21G<24 176 24 24> 284 121<233 333 216 383> 563 123<255 405 255 255> 750 145<312 554 312 554>
VStem: 418 156<201 212.5> 475 160<501 516.5>
AnchorPoint: "Bottom" 297 0 basechar 0
LayerCount: 2
Fore
SplineSet
425 895 m 1x7c
 554 895 l 1
 554 891 l 1
 413 750 l 1
 312 750 l 1
 425 895 l 1x7c
176 0 m 1
 24 0 l 1
 120 686 l 1
 427 686 l 2
 541 686 635 650 635 542 c 0x7a
 635 460 588 373 489 355 c 1
 488 348 l 1
 528 334 574 294 574 207 c 0
 574 195 567 123 567 113 c 0
 567 77 578 49 605 40 c 1
 601 6 l 1
 577 -3 542 -7 512 -7 c 0
 451 -7 410 13 410 86 c 0xbc
 410 112 418 152 418 176 c 0
 418 249 384 284 333 284 c 2
 216 284 l 1
 176 0 l 1
233 405 m 1
 383 405 l 2
 433 405 475 443 475 498 c 0
 475 535 448 563 405 563 c 2
 255 563 l 1
 233 405 l 1
EndSplineSet
EndChar

StartChar: Rcaron
Encoding: 344 344 72
Width: 665
GlyphClass: 2
Flags: MW
HStem: -7 21G<481.5 527> 0 21G<24 176 24 24> 284 121<233 333 216 383> 563 123<255 405 255 255> 750 145<224 444 224 341>
VStem: 418 156<201 212.5> 475 160<501 516.5>
AnchorPoint: "Bottom" 297 0 basechar 0
LayerCount: 2
Fore
SplineSet
329 895 m 1x7c
 402 812 l 1
 498 895 l 1
 602 895 l 1
 553 850 503 805 444 750 c 1
 341 750 l 1
 224 895 l 1
 329 895 l 1x7c
176 0 m 1
 24 0 l 1
 120 686 l 1
 427 686 l 2
 541 686 635 650 635 542 c 0x7a
 635 460 588 373 489 355 c 1
 488 348 l 1
 528 334 574 294 574 207 c 0
 574 195 567 123 567 113 c 0
 567 77 578 49 605 40 c 1
 601 6 l 1
 577 -3 542 -7 512 -7 c 0
 451 -7 410 13 410 86 c 0xbc
 410 112 418 152 418 176 c 0
 418 249 384 284 333 284 c 2
 216 284 l 1
 176 0 l 1
233 405 m 1
 383 405 l 2
 433 405 475 443 475 498 c 0
 475 535 448 563 405 563 c 2
 255 563 l 1
 233 405 l 1
EndSplineSet
EndChar

StartChar: Rcommaaccent
Encoding: 342 342 73
Width: 665
GlyphClass: 2
Flags: MW
HStem: -167 137<225 269 206 371> -7 21G<481.5 527> 0 21G<24 176 24 24> 284 121<233 333 216 383> 563 123<255 405 255 255>
VStem: 418 156<201 212.5> 475 160<501 516.5>
AnchorPoint: "Bottom" 297 0 basechar 0
LayerCount: 2
Fore
SplineSet
176 0 m 1x3c
 24 0 l 1
 120 686 l 1
 427 686 l 2
 541 686 635 650 635 542 c 0x3a
 635 460 588 373 489 355 c 1
 488 348 l 1
 528 334 574 294 574 207 c 0
 574 195 567 123 567 113 c 0
 567 77 578 49 605 40 c 1
 601 6 l 1
 577 -3 542 -7 512 -7 c 0
 451 -7 410 13 410 86 c 0x5c
 410 112 418 152 418 176 c 0
 418 249 384 284 333 284 c 2
 216 284 l 1
 176 0 l 1x3c
233 405 m 1
 383 405 l 2
 433 405 475 443 475 498 c 0
 475 535 448 563 405 563 c 2
 255 563 l 1
 233 405 l 1
269 -167 m 1xbc
 206 -167 l 1
 225 -30 l 1
 371 -30 l 1
 355 -143 l 1
 315 -250 l 1
 241 -250 l 1
 269 -167 l 1xbc
EndSplineSet
EndChar

StartChar: S
Encoding: 83 83 74
Width: 635
GlyphClass: 2
Flags: MW
HStem: -10 125<236.5 323 236.5 371> 575 121<316.5 385.5>
VStem: 12 148<168.5 177> 68 159<441.5 524.5 441.5 546.5> 417 161<173.5 259> 456 146<521 527>
AnchorPoint: "Bottom" 282 0 basechar 0
LayerCount: 2
Fore
SplineSet
578 236 m 0xd8
 578 90 480 -10 262 -10 c 0
 126 -10 12 41 12 168 c 0
 12 186 15 209 19 224 c 1
 165 224 l 1
 161 218 160 201 160 193 c 0xe8
 160 144 199 115 274 115 c 0
 372 115 417 147 417 200 c 0xd8
 417 318 68 241 68 471 c 0
 68 622 197 696 368 696 c 0
 499 696 602 644 602 526 c 0
 602 516 602 504 598 483 c 1
 453 483 l 1
 455 493 456 504 456 506 c 0xd4
 456 548 417 575 354 575 c 0
 279 575 227 549 227 500 c 0
 227 383 578 457 578 236 c 0xd8
EndSplineSet
Position2: "'cpsp' Capital Spacing lookup 0 subtable" dx=5 dy=0 dh=10 dv=0
EndChar

StartChar: Sacute
Encoding: 346 346 75
Width: 635
GlyphClass: 2
Flags: MW
HStem: -10 125<236.5 323 236.5 371> 575 121<316.5 385.5> 750 145<297 539 297 539>
VStem: 12 148<168.5 177> 68 159<441.5 524.5 441.5 546.5> 417 161<173.5 259> 456 146<521 527>
AnchorPoint: "Bottom" 282 0 basechar 0
LayerCount: 2
Fore
SplineSet
410 895 m 1xec
 539 895 l 1
 539 891 l 1
 398 750 l 1
 297 750 l 1
 410 895 l 1xec
578 236 m 0
 578 90 480 -10 262 -10 c 0
 126 -10 12 41 12 168 c 0
 12 186 15 209 19 224 c 1
 165 224 l 1
 161 218 160 201 160 193 c 0xf4
 160 144 199 115 274 115 c 0
 372 115 417 147 417 200 c 0xec
 417 318 68 241 68 471 c 0
 68 622 197 696 368 696 c 0
 499 696 602 644 602 526 c 0
 602 516 602 504 598 483 c 1
 453 483 l 1
 455 493 456 504 456 506 c 0xea
 456 548 417 575 354 575 c 0
 279 575 227 549 227 500 c 0
 227 383 578 457 578 236 c 0
EndSplineSet
EndChar

StartChar: Scaron
Encoding: 352 352 76
Width: 635
GlyphClass: 2
Flags: MW
HStem: -10 125<236.5 323 236.5 371> 575 121<316.5 385.5> 750 145<197 417 197 314>
VStem: 12 148<168.5 177> 68 159<441.5 524.5 441.5 546.5> 417 161<173.5 259> 456 146<521 527>
LayerCount: 2
Fore
SplineSet
302 895 m 1xec
 375 812 l 1
 471 895 l 1
 575 895 l 1
 526 850 476 805 417 750 c 1
 314 750 l 1
 197 895 l 1
 302 895 l 1xec
578 236 m 0
 578 90 480 -10 262 -10 c 0
 126 -10 12 41 12 168 c 0
 12 186 15 209 19 224 c 1
 165 224 l 1
 161 218 160 201 160 193 c 0xf4
 160 144 199 115 274 115 c 0
 372 115 417 147 417 200 c 0xec
 417 318 68 241 68 471 c 0
 68 622 197 696 368 696 c 0
 499 696 602 644 602 526 c 0
 602 516 602 504 598 483 c 1
 453 483 l 1
 455 493 456 504 456 506 c 0xea
 456 548 417 575 354 575 c 0
 279 575 227 549 227 500 c 0
 227 383 578 457 578 236 c 0
EndSplineSet
Position2: "'cpsp' Capital Spacing lookup 0 subtable" dx=5 dy=0 dh=10 dv=0
EndChar

StartChar: Scedilla
Encoding: 350 350 77
Width: 635
GlyphClass: 2
Flags: MW
HStem: -197 55<233.5 269.5 232.5 275> -68 51<257 270 250 280> -10 125<236.5 323 236.5 371> 575 121<316.5 385.5>
VStem: 12 148<168.5 177> 68 159<441.5 524.5 441.5 546.5> 310 75<-114.5 -89> 417 161<173.5 259> 456 146<521 527>
AnchorPoint: "Bottom" 282 0 basechar 0
LayerCount: 2
Fore
SplineSet
578 236 m 0xb7
 578 90 480 -10 262 -10 c 0
 126 -10 12 41 12 168 c 0
 12 186 15 209 19 224 c 1
 165 224 l 1
 161 218 160 201 160 193 c 0xbb
 160 144 199 115 274 115 c 0
 372 115 417 147 417 200 c 0xb7
 417 318 68 241 68 471 c 0
 68 622 197 696 368 696 c 0
 499 696 602 644 602 526 c 0
 602 516 602 504 598 483 c 1
 453 483 l 1
 455 493 456 504 456 506 c 0xb680
 456 548 417 575 354 575 c 0
 279 575 227 549 227 500 c 0
 227 383 578 457 578 236 c 0xb7
148 -168 m 1
 176 -116 l 1
 182 -119 209 -142 256 -142 c 0
 283 -142 310 -130 310 -99 c 0
 310 -79 296 -68 270 -68 c 2
 250 -68 l 1
 257 -17 l 1
 280 -17 l 2xd7
 332 -17 385 -32 385 -91 c 0
 385 -180 298 -197 252 -197 c 0
 215 -197 172 -187 148 -168 c 1
EndSplineSet
EndChar

StartChar: Scommaaccent
Encoding: 536 536 78
Width: 635
GlyphClass: 2
Flags: MW
HStem: -167 137<210 254 191 356> -10 125<236.5 323 236.5 371> 575 121<316.5 385.5>
VStem: 12 148<168.5 177> 68 159<441.5 524.5 441.5 546.5> 417 161<173.5 259> 456 146<521 527>
AnchorPoint: "Bottom" 282 0 basechar 0
LayerCount: 2
Fore
SplineSet
578 236 m 0x6c
 578 90 480 -10 262 -10 c 0
 126 -10 12 41 12 168 c 0
 12 186 15 209 19 224 c 1
 165 224 l 1
 161 218 160 201 160 193 c 0x74
 160 144 199 115 274 115 c 0
 372 115 417 147 417 200 c 0x6c
 417 318 68 241 68 471 c 0
 68 622 197 696 368 696 c 0
 499 696 602 644 602 526 c 0
 602 516 602 504 598 483 c 1
 453 483 l 1
 455 493 456 504 456 506 c 0x6a
 456 548 417 575 354 575 c 0
 279 575 227 549 227 500 c 0
 227 383 578 457 578 236 c 0x6c
254 -167 m 1xec
 191 -167 l 1
 210 -30 l 1
 356 -30 l 1
 340 -143 l 1
 300 -250 l 1
 226 -250 l 1
 254 -167 l 1xec
EndSplineSet
EndChar

StartChar: T
Encoding: 84 84 79
Width: 557
GlyphClass: 2
Flags: MW
HStem: 0 21G<153 306 153 153> 562 124<55 232 37 597 385 385 385 579>
VStem: 37 560<562 686>
AnchorPoint: "Bottom" 230 0 basechar 0
LayerCount: 2
Fore
SplineSet
306 0 m 1
 153 0 l 1
 232 562 l 1
 37 562 l 1
 55 686 l 1
 597 686 l 1
 579 562 l 1
 385 562 l 1
 306 0 l 1
EndSplineSet
Position2: "'cpsp' Capital Spacing lookup 0 subtable" dx=5 dy=0 dh=10 dv=0
EndChar

StartChar: Tcaron
Encoding: 356 356 80
Width: 557
GlyphClass: 2
Flags: MW
HStem: 0 21G<153 306 153 153> 562 124<55 232 37 597 385 385 385 579> 750 145<170 390 170 287>
VStem: 37 560<562 686>
AnchorPoint: "Bottom" 230 0 basechar 0
LayerCount: 2
Fore
SplineSet
275 895 m 1
 348 812 l 1
 444 895 l 1
 548 895 l 1
 499 850 449 805 390 750 c 1
 287 750 l 1
 170 895 l 1
 275 895 l 1
306 0 m 1
 153 0 l 1
 232 562 l 1
 37 562 l 1
 55 686 l 1
 597 686 l 1
 579 562 l 1
 385 562 l 1
 306 0 l 1
EndSplineSet
EndChar

StartChar: Tcedilla
Encoding: 354 354 81
Width: 557
GlyphClass: 2
Flags: MW
HStem: -197 55<181.5 217.5 180.5 223> -68 51<205 218 198 228> 0 21G<153 306 153 153> 562 124<55 232 37 597 385 385 385 579>
VStem: 258 75<-114.5 -89>
AnchorPoint: "Bottom" 230 0 basechar 0
LayerCount: 2
Fore
SplineSet
306 0 m 1
 153 0 l 1
 232 562 l 1
 37 562 l 1
 55 686 l 1
 597 686 l 1
 579 562 l 1
 385 562 l 1
 306 0 l 1
96 -168 m 1
 124 -116 l 1
 130 -119 157 -142 204 -142 c 0
 231 -142 258 -130 258 -99 c 0
 258 -79 244 -68 218 -68 c 2
 198 -68 l 1
 205 -17 l 1
 228 -17 l 2xf8
 280 -17 333 -32 333 -91 c 0
 333 -180 246 -197 200 -197 c 0
 163 -197 120 -187 96 -168 c 1
EndSplineSet
EndChar

StartChar: Tcommaaccent
Encoding: 538 538 82
Width: 557
GlyphClass: 2
Flags: MW
HStem: -167 137<158 202 139 304> 0 21G<153 306 153 153> 562 124<55 232 37 597 385 385 385 579>
VStem: 37 560<562 686>
AnchorPoint: "Bottom" 230 0 basechar 0
LayerCount: 2
Fore
SplineSet
306 0 m 1
 153 0 l 1
 232 562 l 1
 37 562 l 1
 55 686 l 1
 597 686 l 1
 579 562 l 1
 385 562 l 1
 306 0 l 1
202 -167 m 1xf0
 139 -167 l 1
 158 -30 l 1
 304 -30 l 1
 288 -143 l 1
 248 -250 l 1
 174 -250 l 1
 202 -167 l 1xf0
EndSplineSet
EndChar

StartChar: U
Encoding: 85 85 83
Width: 673
GlyphClass: 2
Flags: MW
HStem: -10 122<202 340.5 273 301> 666 20G<112 266 266 266 503 657 657 657>
VStem: 44 156<177.5 189.5>
LayerCount: 2
Fore
SplineSet
657 686 m 1
 592 218 l 2
 572 75 457 -10 301 -10 c 2
 273 -10 l 2
 131 -10 44 64 44 181 c 0
 44 198 45 205 112 686 c 1
 266 686 l 1
 200 215 200 213 200 205 c 0
 200 150 241 112 305 112 c 0
 376 112 429 157 438 221 c 2
 503 686 l 1
 657 686 l 1
EndSplineSet
Position2: "'cpsp' Capital Spacing lookup 0 subtable" dx=5 dy=0 dh=10 dv=0
EndChar

StartChar: Uacute
Encoding: 218 218 84
Width: 673
GlyphClass: 2
Flags: MW
HStem: -10 122<202 340.5 273 301> 666 20G<112 266 266 266 503 657 657 657> 750 145<342 584 342 584>
VStem: 44 156<177.5 189.5>
LayerCount: 2
Fore
SplineSet
455 895 m 1
 584 895 l 1
 584 891 l 1
 443 750 l 1
 342 750 l 1
 455 895 l 1
657 686 m 1
 592 218 l 2
 572 75 457 -10 301 -10 c 2
 273 -10 l 2
 131 -10 44 64 44 181 c 0
 44 198 45 205 112 686 c 1
 266 686 l 1
 200 215 200 213 200 205 c 0
 200 150 241 112 305 112 c 0
 376 112 429 157 438 221 c 2
 503 686 l 1
 657 686 l 1
EndSplineSet
Position2: "'cpsp' Capital Spacing lookup 0 subtable" dx=5 dy=0 dh=10 dv=0
EndChar

StartChar: Ucircumflex
Encoding: 219 219 85
Width: 673
GlyphClass: 2
Flags: MW
HStem: -10 122<202 340.5 273 301> 666 20G<112 266 266 266 503 657 657 657> 750 145<197 459 356 575 356 470>
VStem: 44 156<177.5 189.5>
LayerCount: 2
Fore
SplineSet
356 895 m 1
 459 895 l 1
 497 847 536 798 575 750 c 1
 470 750 l 1
 398 833 l 1
 301 750 l 1
 197 750 l 1
 356 895 l 1
657 686 m 1
 592 218 l 2
 572 75 457 -10 301 -10 c 2
 273 -10 l 2
 131 -10 44 64 44 181 c 0
 44 198 45 205 112 686 c 1
 266 686 l 1
 200 215 200 213 200 205 c 0
 200 150 241 112 305 112 c 0
 376 112 429 157 438 221 c 2
 503 686 l 1
 657 686 l 1
EndSplineSet
Position2: "'cpsp' Capital Spacing lookup 0 subtable" dx=5 dy=0 dh=10 dv=0
EndChar

StartChar: Udieresis
Encoding: 220 220 86
Width: 673
GlyphClass: 2
Flags: MW
HStem: -10 122<202 340.5 273 301> 666 20G<112 266 266 266 503 657 657 657> 750 122<243 347 226 364 243 430 447 551>
VStem: 44 156<177.5 189.5>
LayerCount: 2
Fore
SplineSet
364 872 m 1
 347 750 l 1
 226 750 l 1
 243 872 l 1
 364 872 l 1
568 872 m 1
 551 750 l 1
 430 750 l 1
 447 872 l 1
 568 872 l 1
657 686 m 1
 592 218 l 2
 572 75 457 -10 301 -10 c 2
 273 -10 l 2
 131 -10 44 64 44 181 c 0
 44 198 45 205 112 686 c 1
 266 686 l 1
 200 215 200 213 200 205 c 0
 200 150 241 112 305 112 c 0
 376 112 429 157 438 221 c 2
 503 686 l 1
 657 686 l 1
EndSplineSet
Position2: "'cpsp' Capital Spacing lookup 0 subtable" dx=5 dy=0 dh=10 dv=0
EndChar

StartChar: Ugrave
Encoding: 217 217 87
Width: 673
GlyphClass: 2
Flags: MW
HStem: -10 122<202 340.5 273 301> 666 20G<112 266 266 266 503 657 657 657> 750 145<335 365 237 437 335 335>
VStem: 44 156<177.5 189.5>
LayerCount: 2
Fore
SplineSet
235 892 m 1
 237 895 l 1
 365 895 l 1
 437 750 l 1
 335 750 l 1
 235 892 l 1
657 686 m 1
 592 218 l 2
 572 75 457 -10 301 -10 c 2
 273 -10 l 2
 131 -10 44 64 44 181 c 0
 44 198 45 205 112 686 c 1
 266 686 l 1
 200 215 200 213 200 205 c 0
 200 150 241 112 305 112 c 0
 376 112 429 157 438 221 c 2
 503 686 l 1
 657 686 l 1
EndSplineSet
Position2: "'cpsp' Capital Spacing lookup 0 subtable" dx=5 dy=0 dh=10 dv=0
EndChar

StartChar: Uhungarumlaut
Encoding: 368 368 88
Width: 673
GlyphClass: 2
Flags: MW
HStem: -10 122<202 340.5 273 301> 666 20G<112 266 266 266 503 657 657 657> 750 145<210 452 210 452 401 401 401 452 324 503>
VStem: 44 156<177.5 189.5>
LayerCount: 2
Fore
SplineSet
324 895 m 1
 452 895 l 1
 453 892 l 1
 312 750 l 1
 210 750 l 1
 324 895 l 1
515 895 m 1
 643 895 l 1
 644 892 l 1
 503 750 l 1
 401 750 l 1
 515 895 l 1
657 686 m 1
 592 218 l 2
 572 75 457 -10 301 -10 c 2
 273 -10 l 2
 131 -10 44 64 44 181 c 0
 44 198 45 205 112 686 c 1
 266 686 l 1
 200 215 200 213 200 205 c 0
 200 150 241 112 305 112 c 0
 376 112 429 157 438 221 c 2
 503 686 l 1
 657 686 l 1
EndSplineSet
EndChar

StartChar: Umacron
Encoding: 362 362 89
Width: 673
GlyphClass: 2
Flags: MW
HStem: -10 122<202 340.5 273 301> 666 20G<112 266 266 266 503 657 657 657> 837 74<271 578 260 589>
VStem: 44 156<177.5 189.5>
LayerCount: 2
Fore
SplineSet
271 911 m 1
 589 911 l 1
 578 837 l 1
 260 837 l 1
 271 911 l 1
657 686 m 1
 592 218 l 2
 572 75 457 -10 301 -10 c 2
 273 -10 l 2
 131 -10 44 64 44 181 c 0
 44 198 45 205 112 686 c 1
 266 686 l 1
 200 215 200 213 200 205 c 0
 200 150 241 112 305 112 c 0
 376 112 429 157 438 221 c 2
 503 686 l 1
 657 686 l 1
EndSplineSet
EndChar

StartChar: Uogonek
Encoding: 370 370 90
Width: 673
GlyphClass: 2
Flags: MW
HStem: -143 50<351.5 354.5> -10 122<202 340.5 273 300> 666 20G<112 266 266 266 503 657 657 657>
VStem: 44 156<177.5 189.5> 251 71<-75 -66.5>
LayerCount: 2
Fore
SplineSet
657 686 m 1
 592 218 l 2
 575 97 491 18 371 -4 c 1
 347 -17 322 -38 322 -64 c 0
 322 -86 342 -93 361 -93 c 0
 385 -93 408 -87 430 -79 c 1
 438 -119 l 1
 407 -135 371 -143 338 -143 c 0
 295 -143 251 -129 251 -83 c 0
 251 -50 274 -28 300 -10 c 1
 273 -10 l 2
 131 -10 44 64 44 181 c 0
 44 198 45 205 112 686 c 1
 266 686 l 1
 200 215 200 213 200 205 c 0
 200 150 241 112 305 112 c 0
 376 112 429 157 438 221 c 2
 503 686 l 1
 657 686 l 1
EndSplineSet
EndChar

StartChar: Uring
Encoding: 366 366 91
Width: 673
GlyphClass: 2
Flags: MW
HStem: -10 122<202 340.5 273 301> 666 20G<112 266 266 266 503 657 657 657> 720 53<400.5 425.5 400.5 437> 868 53<407.5 433.5>
VStem: 44 156<177.5 189.5> 315 56<804 831 804 841.5> 464 55<808.5 836.5>
LayerCount: 2
Fore
SplineSet
519 831 m 0
 519 769 467 720 407 720 c 0
 354 720 315 758 315 810 c 0
 315 873 369 921 428 921 c 0
 480 921 519 883 519 831 c 0
413 773 m 0
 438 773 464 793 464 824 c 0
 464 849 446 868 421 868 c 0
 394 868 371 846 371 816 c 0
 371 792 388 773 413 773 c 0
657 686 m 1
 592 218 l 2
 572 75 457 -10 301 -10 c 2
 273 -10 l 2
 131 -10 44 64 44 181 c 0
 44 198 45 205 112 686 c 1
 266 686 l 1
 200 215 200 213 200 205 c 0
 200 150 241 112 305 112 c 0
 376 112 429 157 438 221 c 2
 503 686 l 1
 657 686 l 1
EndSplineSet
EndChar

StartChar: V
Encoding: 86 86 92
Width: 643
GlyphClass: 2
Flags: MW
HStem: 0 21G<183 360 183 183> 666 20G<55 217 217 217 535 683 683 683>
VStem: 55 628<686 686>
LayerCount: 2
Fore
SplineSet
535 686 m 1
 683 686 l 1
 360 0 l 1
 183 0 l 1
 55 686 l 1
 217 686 l 1
 304 196 l 1
 309 196 l 1
 535 686 l 1
EndSplineSet
Position2: "'cpsp' Capital Spacing lookup 0 subtable" dx=5 dy=0 dh=10 dv=0
EndChar

StartChar: W
Encoding: 87 87 93
Width: 972
GlyphClass: 2
Flags: MW
HStem: 0 21G<150 321 150 150 553 553 553 722> 666 20G<55 216 216 216 464 619 619 619 866 1012 1012 1012>
VStem: 55 957<686 686>
LayerCount: 2
Fore
SplineSet
321 0 m 1
 150 0 l 1
 55 686 l 1
 216 686 l 1
 235 536 255 386 274 237 c 1
 279 237 l 1
 341 386 402 536 464 686 c 1
 619 686 l 1
 638 536 658 386 677 237 c 1
 682 237 l 1
 743 386 805 536 866 686 c 1
 1012 686 l 1
 722 0 l 1
 553 0 l 1
 499 412 l 1
 493 412 l 1
 321 0 l 1
EndSplineSet
Position2: "'cpsp' Capital Spacing lookup 0 subtable" dx=5 dy=0 dh=10 dv=0
EndChar

StartChar: X
Encoding: 88 88 94
Width: 658
GlyphClass: 2
Flags: MW
HStem: 0 21G<-48 118 -48 -48 428 609 428 428> 666 20G<70 251 251 251 518 685 685 685>
VStem: -48 733<0 686>
LayerCount: 2
Fore
SplineSet
234 360 m 1
 70 686 l 1
 251 686 l 1
 351 476 l 1
 355 476 l 1
 432 571 498 657 518 686 c 1
 685 686 l 1
 685 686 538 499 428 362 c 1
 489 242 609 0 609 0 c 1
 428 0 l 1
 311 245 l 1
 307 245 l 1
 222 137 142 35 118 0 c 1
 -48 0 l 1
 234 360 l 1
EndSplineSet
Position2: "'cpsp' Capital Spacing lookup 0 subtable" dx=5 dy=0 dh=10 dv=0
EndChar

StartChar: Y
Encoding: 89 89 95
Width: 637
GlyphClass: 2
Flags: MW
HStem: 0 21G<193 347 193 193> 666 20G<55 229 229 229 520 678 678 678>
VStem: 55 623<686 686>
LayerCount: 2
Fore
SplineSet
347 0 m 1
 193 0 l 1
 230 263 l 1
 55 686 l 1
 229 686 l 1
 333 414 l 1
 338 414 l 1
 520 686 l 1
 678 686 l 1
 384 263 l 1
 347 0 l 1
EndSplineSet
Position2: "'cpsp' Capital Spacing lookup 0 subtable" dx=5 dy=0 dh=10 dv=0
EndChar

StartChar: Yacute
Encoding: 221 221 96
Width: 637
GlyphClass: 2
Flags: MW
HStem: 0 21G<193 347 193 193> 666 20G<55 229 229 229 520 678 678 678> 750 145<332 574 332 574>
VStem: 55 623<686 686>
LayerCount: 2
Fore
SplineSet
445 895 m 1
 574 895 l 1
 574 891 l 1
 433 750 l 1
 332 750 l 1
 445 895 l 1
347 0 m 1
 193 0 l 1
 230 263 l 1
 55 686 l 1
 229 686 l 1
 333 414 l 1
 338 414 l 1
 520 686 l 1
 678 686 l 1
 384 263 l 1
 347 0 l 1
EndSplineSet
Position2: "'cpsp' Capital Spacing lookup 0 subtable" dx=5 dy=0 dh=10 dv=0
EndChar

StartChar: Ydieresis
Encoding: 376 376 97
Width: 637
GlyphClass: 2
Flags: MW
HStem: 0 21G<193 347 193 193> 666 20G<55 229 229 229 520 678 678 678> 750 122<234 338 217 355 234 421 438 542>
VStem: 55 623<686 686>
LayerCount: 2
Fore
SplineSet
355 872 m 1
 338 750 l 1
 217 750 l 1
 234 872 l 1
 355 872 l 1
559 872 m 1
 542 750 l 1
 421 750 l 1
 438 872 l 1
 559 872 l 1
347 0 m 1
 193 0 l 1
 230 263 l 1
 55 686 l 1
 229 686 l 1
 333 414 l 1
 338 414 l 1
 520 686 l 1
 678 686 l 1
 384 263 l 1
 347 0 l 1
EndSplineSet
Position2: "'cpsp' Capital Spacing lookup 0 subtable" dx=5 dy=0 dh=10 dv=0
EndChar

StartChar: Z
Encoding: 90 90 98
Width: 631
GlyphClass: 2
Flags: MW
HStem: 0 123<235 540> 563 123<114 388 96 629>
VStem: -6 635
LayerCount: 2
Fore
SplineSet
0 49 m 1
 388 563 l 1
 96 563 l 1
 114 686 l 1
 629 686 l 1
 622 636 l 1
 235 123 l 1
 558 123 l 1
 540 0 l 1
 -6 0 l 1
 0 49 l 1
EndSplineSet
Position2: "'cpsp' Capital Spacing lookup 0 subtable" dx=5 dy=0 dh=10 dv=0
EndChar

StartChar: Zacute
Encoding: 377 377 99
Width: 631
GlyphClass: 2
Flags: MW
HStem: 0 123<235 540> 563 123<114 388 96 629> 750 145<295 537 295 537>
VStem: -6 635
LayerCount: 2
Fore
SplineSet
408 895 m 1
 537 895 l 1
 537 891 l 1
 396 750 l 1
 295 750 l 1
 408 895 l 1
0 49 m 1
 388 563 l 1
 96 563 l 1
 114 686 l 1
 629 686 l 1
 622 636 l 1
 235 123 l 1
 558 123 l 1
 540 0 l 1
 -6 0 l 1
 0 49 l 1
EndSplineSet
EndChar

StartChar: Zcaron
Encoding: 381 381 100
Width: 631
GlyphClass: 2
Flags: MW
HStem: 0 123<235 540> 563 123<114 388 96 629> 750 145<199 419 199 316>
VStem: -6 635
LayerCount: 2
Fore
SplineSet
304 895 m 1
 377 812 l 1
 473 895 l 1
 577 895 l 1
 528 850 478 805 419 750 c 1
 316 750 l 1
 199 895 l 1
 304 895 l 1
0 49 m 1
 388 563 l 1
 96 563 l 1
 114 686 l 1
 629 686 l 1
 622 636 l 1
 235 123 l 1
 558 123 l 1
 540 0 l 1
 -6 0 l 1
 0 49 l 1
EndSplineSet
Position2: "'cpsp' Capital Spacing lookup 0 subtable" dx=5 dy=0 dh=10 dv=0
EndChar

StartChar: Zdotaccent
Encoding: 379 379 101
Width: 631
GlyphClass: 2
Flags: MW
HStem: 0 123<235 540> 563 123<114 388 96 629> 779 132<386.5 409.5>
VStem: 333 133<833.5 854.5>
LayerCount: 2
Fore
SplineSet
466 853 m 0
 466 814 431 779 388 779 c 0
 357 779 333 803 333 834 c 0
 333 875 365 911 408 911 c 0
 442 911 466 885 466 853 c 0
0 49 m 1
 388 563 l 1
 96 563 l 1
 114 686 l 1
 629 686 l 1
 622 636 l 1
 235 123 l 1
 558 123 l 1
 540 0 l 1
 -6 0 l 1
 0 49 l 1
EndSplineSet
EndChar

StartChar: a
Encoding: 97 97 102
Width: 598
GlyphClass: 2
Flags: MW
HStem: -10 100<232 234.5> 415 106<274.5 302.5 197 325.5> 491 20G<450 557 557 557>
VStem: 31 144<152 187.5 152 281>
LayerCount: 2
Fore
SplineSet
450 511 m 1xb0
 557 511 l 1xb0
 544 421 503 132 503 117 c 0
 503 100 512 90 528 90 c 0
 542 90 560 97 570 104 c 1
 556 11 l 1
 535 0 500 -10 466 -10 c 0
 398 -10 365 17 360 66 c 1
 321 21 266 -10 203 -10 c 0
 91 -10 31 66 31 191 c 0
 31 371 122 521 272 521 c 0
 333 521 385 493 411 448 c 1
 417 448 l 1xd0
 450 511 l 1xb0
369 211 m 0
 382 304 383 313 383 322 c 0
 383 384 349 415 302 415 c 0xd0
 247 415 201 375 189 294 c 0
 176 201 175 192 175 183 c 0
 175 121 208 90 256 90 c 0
 310 90 357 130 369 211 c 0
EndSplineSet
Substitution2: "Single Substitution lookup 5 subtable" ordfeminine
Substitution2: "'aalt' Access All Alternates lookup 0 subtable" ordfeminine
EndChar

StartChar: aacute
Encoding: 225 225 103
Width: 598
GlyphClass: 2
Flags: MW
HStem: -10 100<232 234.5> 415 106<274.5 302.5 197 325.5> 491 20G<450 557 557 557> 575 145<263 505 263 505>
VStem: 31 144<152 187.5 152 281>
LayerCount: 2
Fore
SplineSet
376 720 m 1xd8
 505 720 l 1
 505 716 l 1
 364 575 l 1
 263 575 l 1
 376 720 l 1xd8
450 511 m 1xb8
 557 511 l 1xb8
 544 421 503 132 503 117 c 0
 503 100 512 90 528 90 c 0
 542 90 560 97 570 104 c 1
 556 11 l 1
 535 0 500 -10 466 -10 c 0
 398 -10 365 17 360 66 c 1
 321 21 266 -10 203 -10 c 0
 91 -10 31 66 31 191 c 0
 31 371 122 521 272 521 c 0
 333 521 385 493 411 448 c 1
 417 448 l 1xd8
 450 511 l 1xb8
369 211 m 0
 382 304 383 313 383 322 c 0
 383 384 349 415 302 415 c 0xd8
 247 415 201 375 189 294 c 0
 176 201 175 192 175 183 c 0
 175 121 208 90 256 90 c 0
 310 90 357 130 369 211 c 0
EndSplineSet
EndChar

StartChar: abreve
Encoding: 259 259 104
Width: 598
GlyphClass: 2
Flags: MW
HStem: -10 100<232 234.5> 415 106<274.5 302.5 197 325.5> 491 20G<450 557 557 557> 613 74<322 379 322 394.5>
VStem: 31 144<152 187.5 152 281>
LayerCount: 2
Fore
SplineSet
341 613 m 0xd8
 240 613 165 674 165 729 c 0
 165 731 165 734 166 737 c 2
 247 737 l 1
 250 713 293 687 351 687 c 0
 407 687 461 715 469 737 c 1
 551 737 l 1
 543 680 448 613 341 613 c 0xd8
450 511 m 1xb8
 557 511 l 1xb8
 544 421 503 132 503 117 c 0
 503 100 512 90 528 90 c 0
 542 90 560 97 570 104 c 1
 556 11 l 1
 535 0 500 -10 466 -10 c 0
 398 -10 365 17 360 66 c 1
 321 21 266 -10 203 -10 c 0
 91 -10 31 66 31 191 c 0
 31 371 122 521 272 521 c 0
 333 521 385 493 411 448 c 1
 417 448 l 1xd8
 450 511 l 1xb8
369 211 m 0
 382 304 383 313 383 322 c 0
 383 384 349 415 302 415 c 0xd8
 247 415 201 375 189 294 c 0
 176 201 175 192 175 183 c 0
 175 121 208 90 256 90 c 0
 310 90 357 130 369 211 c 0
EndSplineSet
EndChar

StartChar: acircumflex
Encoding: 226 226 105
Width: 598
GlyphClass: 2
Flags: MW
HStem: -10 100<232 234.5> 415 106<274.5 302.5 197 325.5> 491 20G<450 557 557 557> 575 145<143 405 302 521 302 416>
VStem: 31 144<152 187.5 152 281>
LayerCount: 2
Fore
SplineSet
302 720 m 1xd8
 405 720 l 1
 443 672 482 623 521 575 c 1
 416 575 l 1
 344 658 l 1
 247 575 l 1
 143 575 l 1
 302 720 l 1xd8
450 511 m 1xb8
 557 511 l 1xb8
 544 421 503 132 503 117 c 0
 503 100 512 90 528 90 c 0
 542 90 560 97 570 104 c 1
 556 11 l 1
 535 0 500 -10 466 -10 c 0
 398 -10 365 17 360 66 c 1
 321 21 266 -10 203 -10 c 0
 91 -10 31 66 31 191 c 0
 31 371 122 521 272 521 c 0
 333 521 385 493 411 448 c 1
 417 448 l 1xd8
 450 511 l 1xb8
369 211 m 0
 382 304 383 313 383 322 c 0
 383 384 349 415 302 415 c 0xd8
 247 415 201 375 189 294 c 0
 176 201 175 192 175 183 c 0
 175 121 208 90 256 90 c 0
 310 90 357 130 369 211 c 0
EndSplineSet
EndChar

StartChar: adieresis
Encoding: 228 228 106
Width: 598
GlyphClass: 2
Flags: MW
HStem: -10 100<232 234.5> 415 106<274.5 302.5 197 325.5> 491 20G<450 557 557 557> 598 122<178 282 161 299 178 365 382 486>
VStem: 31 144<152 187.5 152 281>
LayerCount: 2
Fore
SplineSet
299 720 m 1xd8
 282 598 l 1
 161 598 l 1
 178 720 l 1
 299 720 l 1xd8
503 720 m 1
 486 598 l 1
 365 598 l 1
 382 720 l 1
 503 720 l 1
450 511 m 1xb8
 557 511 l 1xb8
 544 421 503 132 503 117 c 0
 503 100 512 90 528 90 c 0
 542 90 560 97 570 104 c 1
 556 11 l 1
 535 0 500 -10 466 -10 c 0
 398 -10 365 17 360 66 c 1
 321 21 266 -10 203 -10 c 0
 91 -10 31 66 31 191 c 0
 31 371 122 521 272 521 c 0
 333 521 385 493 411 448 c 1
 417 448 l 1xd8
 450 511 l 1xb8
369 211 m 0
 382 304 383 313 383 322 c 0
 383 384 349 415 302 415 c 0xd8
 247 415 201 375 189 294 c 0
 176 201 175 192 175 183 c 0
 175 121 208 90 256 90 c 0
 310 90 357 130 369 211 c 0
EndSplineSet
EndChar

StartChar: agrave
Encoding: 224 224 107
Width: 598
GlyphClass: 2
Flags: MW
HStem: -10 100<232 234.5> 415 106<274.5 302.5 197 325.5> 491 20G<450 557 557 557> 575 145<270 300 172 372 270 270>
VStem: 31 144<152 187.5 152 281>
LayerCount: 2
Fore
SplineSet
170 717 m 1xd8
 172 720 l 1
 300 720 l 1
 372 575 l 1
 270 575 l 1
 170 717 l 1xd8
450 511 m 1xb8
 557 511 l 1xb8
 544 421 503 132 503 117 c 0
 503 100 512 90 528 90 c 0
 542 90 560 97 570 104 c 1
 556 11 l 1
 535 0 500 -10 466 -10 c 0
 398 -10 365 17 360 66 c 1
 321 21 266 -10 203 -10 c 0
 91 -10 31 66 31 191 c 0
 31 371 122 521 272 521 c 0
 333 521 385 493 411 448 c 1
 417 448 l 1xd8
 450 511 l 1xb8
369 211 m 0
 382 304 383 313 383 322 c 0
 383 384 349 415 302 415 c 0xd8
 247 415 201 375 189 294 c 0
 176 201 175 192 175 183 c 0
 175 121 208 90 256 90 c 0
 310 90 357 130 369 211 c 0
EndSplineSet
EndChar

StartChar: amacron
Encoding: 257 257 108
Width: 598
GlyphClass: 2
Flags: MW
HStem: -10 100<232 234.5> 415 106<274.5 302.5 197 325.5> 491 20G<450 557 557 557> 662 74<208 515 197 526>
VStem: 31 144<152 187.5 152 281>
LayerCount: 2
Fore
SplineSet
208 736 m 1xd8
 526 736 l 1
 515 662 l 1
 197 662 l 1
 208 736 l 1xd8
450 511 m 1xb8
 557 511 l 1xb8
 544 421 503 132 503 117 c 0
 503 100 512 90 528 90 c 0
 542 90 560 97 570 104 c 1
 556 11 l 1
 535 0 500 -10 466 -10 c 0
 398 -10 365 17 360 66 c 1
 321 21 266 -10 203 -10 c 0
 91 -10 31 66 31 191 c 0
 31 371 122 521 272 521 c 0
 333 521 385 493 411 448 c 1
 417 448 l 1xd8
 450 511 l 1xb8
369 211 m 0
 382 304 383 313 383 322 c 0
 383 384 349 415 302 415 c 0xd8
 247 415 201 375 189 294 c 0
 176 201 175 192 175 183 c 0
 175 121 208 90 256 90 c 0
 310 90 357 130 369 211 c 0
EndSplineSet
EndChar

StartChar: aogonek
Encoding: 261 261 109
Width: 598
GlyphClass: 2
Flags: MW
HStem: -143 50<473.5 476.5> -10 100<232 234.5> -6 21G 415 106<274.5 302.5 197 325.5> 491 20G<450 557 557 557>
VStem: 31 144<152 187.5 152 281> 373 71<-75 -65.5>
LayerCount: 2
Fore
SplineSet
483 -93 m 0xd6
 507 -93 530 -87 552 -79 c 1
 560 -119 l 1
 529 -135 493 -143 460 -143 c 0
 417 -143 373 -129 373 -83 c 0
 373 -48 399 -25 428 -6 c 1xb6
 385 2 364 27 360 66 c 1
 321 21 266 -10 203 -10 c 0
 91 -10 31 66 31 191 c 0
 31 371 122 521 272 521 c 0
 333 521 385 493 411 448 c 1
 417 448 l 1xd6
 450 511 l 1
 557 511 l 1xce
 544 421 503 132 503 117 c 0
 503 100 512 90 528 90 c 0
 542 90 560 97 570 104 c 1
 556 11 l 1
 539 2 512 -6 484 -9 c 1
 464 -22 444 -41 444 -64 c 0
 444 -86 464 -93 483 -93 c 0xd6
369 211 m 0
 382 304 383 313 383 322 c 0
 383 384 349 415 302 415 c 0
 247 415 201 375 189 294 c 0
 176 201 175 192 175 183 c 0
 175 121 208 90 256 90 c 0
 310 90 357 130 369 211 c 0
EndSplineSet
EndChar

StartChar: aring
Encoding: 229 229 110
Width: 598
GlyphClass: 2
Flags: MW
HStem: -10 100<232 234.5> 415 106<274.5 302.5 197 325.5> 491 20G<450 557 557 557> 557 53<323.5 348.5 323.5 360> 705 53<330.5 356.5>
VStem: 31 144<152 187.5 152 281> 238 56<641 668 641 678.5> 387 55<645.5 673.5>
LayerCount: 2
Fore
SplineSet
442 668 m 0xdf
 442 606 390 557 330 557 c 0
 277 557 238 595 238 647 c 0
 238 710 292 758 351 758 c 0
 403 758 442 720 442 668 c 0xdf
336 610 m 0
 361 610 387 630 387 661 c 0
 387 686 369 705 344 705 c 0
 317 705 294 683 294 653 c 0
 294 629 311 610 336 610 c 0
450 511 m 1xbf
 557 511 l 1xbf
 544 421 503 132 503 117 c 0
 503 100 512 90 528 90 c 0
 542 90 560 97 570 104 c 1
 556 11 l 1
 535 0 500 -10 466 -10 c 0
 398 -10 365 17 360 66 c 1
 321 21 266 -10 203 -10 c 0
 91 -10 31 66 31 191 c 0
 31 371 122 521 272 521 c 0
 333 521 385 493 411 448 c 1
 417 448 l 1xdf
 450 511 l 1xbf
369 211 m 0
 382 304 383 313 383 322 c 0
 383 384 349 415 302 415 c 0xdf
 247 415 201 375 189 294 c 0
 176 201 175 192 175 183 c 0
 175 121 208 90 256 90 c 0
 310 90 357 130 369 211 c 0
EndSplineSet
EndChar

StartChar: atilde
Encoding: 227 227 111
Width: 598
GlyphClass: 2
Flags: MW
HStem: -10 100<232 234.5> 415 106<274.5 302.5 197 325.5> 491 20G<450 557 557 557> 596 86<398 439 398 444> 633 87<225 266>
VStem: 31 144<152 187.5 152 281>
LayerCount: 2
Fore
SplineSet
483 720 m 1xd4
 548 720 l 1xb4
 540 660 483 596 405 596 c 0
 341 596 293 633 239 633 c 0xcc
 211 633 192 619 182 596 c 1
 117 596 l 1
 125 655 182 720 260 720 c 0
 324 720 371 682 425 682 c 0
 453 682 473 697 483 720 c 1xd4
450 511 m 1
 557 511 l 1xb4
 544 421 503 132 503 117 c 0
 503 100 512 90 528 90 c 0
 542 90 560 97 570 104 c 1
 556 11 l 1
 535 0 500 -10 466 -10 c 0
 398 -10 365 17 360 66 c 1
 321 21 266 -10 203 -10 c 0
 91 -10 31 66 31 191 c 0
 31 371 122 521 272 521 c 0
 333 521 385 493 411 448 c 1
 417 448 l 1xd4
 450 511 l 1
369 211 m 0
 382 304 383 313 383 322 c 0
 383 384 349 415 302 415 c 0xd4
 247 415 201 375 189 294 c 0
 176 201 175 192 175 183 c 0
 175 121 208 90 256 90 c 0
 310 90 357 130 369 211 c 0
EndSplineSet
EndChar

StartChar: ae
Encoding: 230 230 112
Width: 918
GlyphClass: 2
Flags: MW
HStem: -10 98<145.5 276.5 579 593 593 603> 231 80<536 736> 425 96<318 339 339 342.5>
VStem: 21 154<118 171 118 195.5> 71 142<362 362 362 401.5> 739 142<338 366.5>
LayerCount: 2
Fore
SplineSet
869 231 m 1xf4
 524 231 l 1
 522 216 521 202 521 188 c 0
 521 127 545 88 613 88 c 0
 693 88 721 150 726 191 c 1
 862 191 l 1
 846 73 744 -10 603 -10 c 2
 593 -10 l 2
 508 -10 442 21 405 79 c 1
 352 23 266 -10 183 -10 c 0
 108 -10 21 7 21 109 c 0xf4
 21 282 172 311 386 311 c 1
 393 353 393 358 393 362 c 0
 393 395 374 425 311 425 c 0
 242 425 216 383 213 362 c 2
 212 354 l 1
 71 354 l 1xec
 71 449 174 521 318 521 c 2
 339 521 l 2
 416 521 468 503 499 472 c 1
 544 504 602 521 663 521 c 2
 679 521 l 2
 806 521 881 448 881 337 c 0
 881 325 880 311 878 298 c 2
 869 231 l 1xf4
655 423 m 0
 592 423 551 378 536 311 c 1
 736 311 l 1
 739 330 739 335 739 341 c 0
 739 392 703 423 655 423 c 0
370 197 m 2
 375 229 l 1
 243 229 175 205 175 137 c 0
 175 99 205 88 249 88 c 0
 304 88 359 129 370 197 c 2
EndSplineSet
EndChar

StartChar: b
Encoding: 98 98 113
Width: 595
GlyphClass: 2
Flags: MW
HStem: -10 100<251 297 246 378> 0 21G<16 69 16 16> 415 106<288.5 425.5>
VStem: 397 146<317.5 353>
LayerCount: 2
Fore
SplineSet
263 720 m 1xb0
 225 452 l 1
 255 485 308 521 378 521 c 0
 473 521 543 455 543 324 c 0
 543 167 468 -10 288 -10 c 0
 214 -10 161 21 131 78 c 1xb0
 69 0 l 1
 16 0 l 1x70
 117 720 l 1
 263 720 l 1xb0
383 211 m 0
 396 304 397 313 397 322 c 0
 397 384 363 415 316 415 c 0
 261 415 215 375 203 294 c 0
 190 201 189 192 189 183 c 0
 189 121 222 90 270 90 c 0
 324 90 371 130 383 211 c 0
EndSplineSet
EndChar

StartChar: c
Encoding: 99 99 114
Width: 567
GlyphClass: 2
Flags: MW
HStem: -10 100<236.5 249 249 265> 307 214<386 393 324 531 386 386> 421 100<324 337.5>
VStem: 36 146<156.5 187 156.5 273.5> 388 145<335.5 360>
AnchorPoint: "Bottom" 248 0 basechar 0
LayerCount: 2
Fore
SplineSet
196 296 m 0xb8
 183 199 182 191 182 183 c 0
 182 130 210 90 263 90 c 0
 323 90 367 127 378 203 c 1
 516 203 l 1
 495 55 380 -10 265 -10 c 2
 249 -10 l 2
 117 -10 36 63 36 192 c 0
 36 355 123 521 324 521 c 2
 340 521 l 2xb8
 446 521 533 457 533 341 c 0
 533 330 533 319 531 307 c 1
 386 307 l 1xd8
 387 316 388 325 388 334 c 0
 388 386 364 421 311 421 c 0
 249 421 205 365 196 296 c 0xb8
EndSplineSet
EndChar

StartChar: cacute
Encoding: 263 263 115
Width: 567
GlyphClass: 2
Flags: MW
HStem: -10 100<236.5 249 249 265> 307 214<386 393 324 531 386 386> 421 100<324 337.5> 575 145<238 480 238 480>
VStem: 36 146<156.5 187 156.5 273.5> 388 145<335.5 360>
AnchorPoint: "Bottom" 248 0 basechar 0
LayerCount: 2
Fore
SplineSet
351 720 m 1xbc
 480 720 l 1
 480 716 l 1
 339 575 l 1
 238 575 l 1
 351 720 l 1xbc
196 296 m 0
 183 199 182 191 182 183 c 0
 182 130 210 90 263 90 c 0
 323 90 367 127 378 203 c 1
 516 203 l 1
 495 55 380 -10 265 -10 c 2
 249 -10 l 2
 117 -10 36 63 36 192 c 0
 36 355 123 521 324 521 c 2
 340 521 l 2xbc
 446 521 533 457 533 341 c 0
 533 330 533 319 531 307 c 1
 386 307 l 1xdc
 387 316 388 325 388 334 c 0
 388 386 364 421 311 421 c 0
 249 421 205 365 196 296 c 0
EndSplineSet
EndChar

StartChar: ccaron
Encoding: 269 269 116
Width: 567
GlyphClass: 2
Flags: MW
HStem: -10 100<236.5 249 249 265> 307 214<386 393 324 531 386 386> 421 100<324 337.5> 575 145<150 370 150 267>
VStem: 36 146<156.5 187 156.5 273.5> 388 145<335.5 360>
AnchorPoint: "Bottom" 248 0 basechar 0
LayerCount: 2
Fore
SplineSet
255 720 m 1xbc
 328 637 l 1
 424 720 l 1
 528 720 l 1
 479 675 429 630 370 575 c 1
 267 575 l 1
 150 720 l 1
 255 720 l 1xbc
196 296 m 0
 183 199 182 191 182 183 c 0
 182 130 210 90 263 90 c 0
 323 90 367 127 378 203 c 1
 516 203 l 1
 495 55 380 -10 265 -10 c 2
 249 -10 l 2
 117 -10 36 63 36 192 c 0
 36 355 123 521 324 521 c 2
 340 521 l 2xbc
 446 521 533 457 533 341 c 0
 533 330 533 319 531 307 c 1
 386 307 l 1xdc
 387 316 388 325 388 334 c 0
 388 386 364 421 311 421 c 0
 249 421 205 365 196 296 c 0
EndSplineSet
EndChar

StartChar: ccedilla
Encoding: 231 231 117
Width: 571
GlyphClass: 2
Flags: MW
HStem: -197 55<192.5 228.5 191.5 234> -68 51<216 229 209 239> -10 100<238.5 251 251 267> 307 214<388 395 326 533 388 388> 421 100<326 339.5>
VStem: 38 146<156.5 187 156.5 273.5> 269 75<-114.5 -89> 390 145<335.5 360>
LayerCount: 2
Fore
SplineSet
198 296 m 0xaf
 185 199 184 191 184 183 c 0
 184 130 212 90 265 90 c 0
 325 90 369 127 380 203 c 1
 518 203 l 1
 497 55 382 -10 267 -10 c 2
 251 -10 l 2
 119 -10 38 63 38 192 c 0
 38 355 125 521 326 521 c 2
 342 521 l 2xaf
 448 521 535 457 535 341 c 0
 535 330 535 319 533 307 c 1
 388 307 l 1xb7
 389 316 390 325 390 334 c 0
 390 386 366 421 313 421 c 0
 251 421 207 365 198 296 c 0xaf
107 -168 m 1
 135 -116 l 1
 141 -119 168 -142 215 -142 c 0
 242 -142 269 -130 269 -99 c 0
 269 -79 255 -68 229 -68 c 2
 209 -68 l 1
 216 -17 l 1
 239 -17 l 2xcf
 291 -17 344 -32 344 -91 c 0
 344 -180 257 -197 211 -197 c 0
 174 -197 131 -187 107 -168 c 1
EndSplineSet
EndChar

StartChar: d
Encoding: 100 100 118
Width: 595
GlyphClass: 2
Flags: MW
HStem: -10 100<225 235> 415 106<267.5 298 174.5 318.5>
VStem: 23 145<152 187.5 152 259>
LayerCount: 2
Fore
SplineSet
434 720 m 1
 580 720 l 1
 580 720 495 127 495 117 c 0
 495 100 504 90 520 90 c 0
 534 90 552 97 562 104 c 1
 548 11 l 1
 527 0 492 -10 458 -10 c 0
 393 -10 360 14 353 59 c 1
 315 19 267 -10 203 -10 c 0
 100 -10 23 54 23 192 c 0
 23 326 86 521 263 521 c 0
 333 521 376 485 396 452 c 1
 434 720 l 1
362 211 m 0
 375 304 376 313 376 322 c 0
 376 384 342 415 295 415 c 0
 240 415 194 375 182 294 c 0
 169 201 168 192 168 183 c 0
 168 121 201 90 249 90 c 0
 303 90 350 130 362 211 c 0
EndSplineSet
EndChar

StartChar: eth
Encoding: 240 240 119
Width: 614
GlyphClass: 2
Flags: MW
HStem: -10 100<236.5 242 242 258> 421 93<336 338.5> 672 20G<156 156>
VStem: 24 146<155 192 155 289> 405 146<319 356>
LayerCount: 2
Fore
SplineSet
144 597 m 1
 235 637 l 1
 210 657 191 671 156 692 c 1
 249 734 l 1
 278 720 307 703 336 684 c 1
 424 722 l 1
 461 680 l 1
 436 669 410 657 383 646 c 1
 477 562 551 444 551 315 c 0
 551 139 449 -10 258 -10 c 2
 242 -10 l 2
 114 -10 24 65 24 197 c 0
 24 381 124 514 336 514 c 2
 343 514 l 1
 324 546 302 573 280 596 c 1
 185 555 l 1
 144 597 l 1
392 215 m 0
 404 306 405 315 405 323 c 0
 405 389 366 421 311 421 c 0
 248 421 194 380 183 296 c 0
 170 205 170 196 170 188 c 0
 170 122 209 90 264 90 c 0
 325 90 380 131 392 215 c 0
EndSplineSet
EndChar

StartChar: dcaron
Encoding: 271 271 120
Width: 595
GlyphClass: 2
Flags: MW
HStem: -10 100<225 235> 415 106<267.5 298 174.5 318.5> 539 147<633 675 612 779> 539 181<434 675 434 612>
VStem: 23 145<152 187.5 152 259>
LayerCount: 2
Fore
SplineSet
434 720 m 1x98
 580 720 l 1x98
 580 720 495 127 495 117 c 0
 495 100 504 90 520 90 c 0
 534 90 552 97 562 104 c 1
 548 11 l 1
 527 0 492 -10 458 -10 c 0
 393 -10 360 14 353 59 c 1
 315 19 267 -10 203 -10 c 0
 100 -10 23 54 23 192 c 0
 23 326 86 521 263 521 c 0
 333 521 376 485 396 452 c 1xe8
 434 720 l 1x98
675 539 m 1xa8
 612 539 l 1
 633 686 l 1
 779 686 l 1
 762 563 l 1
 696 395 l 1
 623 395 l 1
 675 539 l 1xa8
362 211 m 0
 375 304 376 313 376 322 c 0
 376 384 342 415 295 415 c 0xe8
 240 415 194 375 182 294 c 0
 169 201 168 192 168 183 c 0
 168 121 201 90 249 90 c 0
 303 90 350 130 362 211 c 0
EndSplineSet
EndChar

StartChar: dcroat
Encoding: 273 273 121
Width: 595
GlyphClass: 2
Flags: MW
HStem: -10 100<225 235> 415 106<267.5 298 174.5 318.5> 592 74<271 416 258 426 572 640>
VStem: 23 145<152 187.5 152 259>
LayerCount: 2
Fore
SplineSet
640 592 m 1
 562 592 l 1
 537 417 495 124 495 117 c 0
 495 100 504 90 520 90 c 0
 534 90 552 97 562 104 c 1
 548 11 l 1
 527 0 492 -10 458 -10 c 0
 393 -10 360 14 353 59 c 1
 315 19 267 -10 203 -10 c 0
 100 -10 23 54 23 192 c 0
 23 326 86 521 263 521 c 0
 333 521 376 485 396 452 c 1
 416 592 l 1
 258 592 l 1
 271 666 l 1
 426 666 l 1
 434 720 l 1
 580 720 l 1
 572 666 l 1
 653 666 l 1
 640 592 l 1
362 211 m 0
 375 304 376 313 376 322 c 0
 376 384 342 415 295 415 c 0
 240 415 194 375 182 294 c 0
 169 201 168 192 168 183 c 0
 168 121 201 90 249 90 c 0
 303 90 350 130 362 211 c 0
EndSplineSet
EndChar

StartChar: e
Encoding: 101 101 122
Width: 584
GlyphClass: 2
Flags: MW
HStem: -10 100<246 255 255 271> 231 80<198 400 198 537 187 400> 421 100<330 346 346 348>
VStem: 37 145<158.5 189.5 158.5 291> 402 148<334.5 362.5>
AnchorPoint: "Bottom" 256 0 basechar 0
LayerCount: 2
Fore
SplineSet
390 191 m 1
 530 191 l 1
 511 50 389 -10 271 -10 c 2
 255 -10 l 2
 127 -10 37 65 37 197 c 0
 37 385 148 521 330 521 c 2
 346 521 l 2
 458 521 550 456 550 340 c 0
 550 329 549 318 548 307 c 2
 537 231 l 1
 187 231 l 1
 184 219 182 193 182 186 c 0
 182 131 215 90 277 90 c 0
 337 90 381 123 390 191 c 1
317 421 m 0
 257 421 212 373 198 311 c 1
 400 311 l 1
 401 320 402 329 402 338 c 0
 402 387 379 421 317 421 c 0
EndSplineSet
EndChar

StartChar: eacute
Encoding: 233 233 123
Width: 588
GlyphClass: 2
Flags: MW
HStem: -10 100<248 257 257 273> 231 80<200 402 200 539 189 402> 421 100<332 348 348 350> 575 145<282 524 282 524>
VStem: 39 145<158.5 189.5 158.5 291> 404 148<334.5 362.5>
LayerCount: 2
Fore
SplineSet
395 720 m 1
 524 720 l 1
 524 716 l 1
 383 575 l 1
 282 575 l 1
 395 720 l 1
392 191 m 1
 532 191 l 1
 513 50 391 -10 273 -10 c 2
 257 -10 l 2
 129 -10 39 65 39 197 c 0
 39 385 150 521 332 521 c 2
 348 521 l 2
 460 521 552 456 552 340 c 0
 552 329 551 318 550 307 c 2
 539 231 l 1
 189 231 l 1
 186 219 184 193 184 186 c 0
 184 131 217 90 279 90 c 0
 339 90 383 123 392 191 c 1
319 421 m 0
 259 421 214 373 200 311 c 1
 402 311 l 1
 403 320 404 329 404 338 c 0
 404 387 381 421 319 421 c 0
EndSplineSet
EndChar

StartChar: ecaron
Encoding: 283 283 124
Width: 584
GlyphClass: 2
Flags: MW
HStem: -10 100<246 255 255 271> 231 80<198 400 198 537 187 400> 421 100<330 346 346 348> 575 145<158 378 158 275>
VStem: 37 145<158.5 189.5 158.5 291> 402 148<334.5 362.5>
AnchorPoint: "Bottom" 256 0 basechar 0
LayerCount: 2
Fore
SplineSet
263 720 m 1
 336 637 l 1
 432 720 l 1
 536 720 l 1
 487 675 437 630 378 575 c 1
 275 575 l 1
 158 720 l 1
 263 720 l 1
390 191 m 1
 530 191 l 1
 511 50 389 -10 271 -10 c 2
 255 -10 l 2
 127 -10 37 65 37 197 c 0
 37 385 148 521 330 521 c 2
 346 521 l 2
 458 521 550 456 550 340 c 0
 550 329 549 318 548 307 c 2
 537 231 l 1
 187 231 l 1
 184 219 182 193 182 186 c 0
 182 131 215 90 277 90 c 0
 337 90 381 123 390 191 c 1
317 421 m 0
 257 421 212 373 198 311 c 1
 400 311 l 1
 401 320 402 329 402 338 c 0
 402 387 379 421 317 421 c 0
EndSplineSet
EndChar

StartChar: ecircumflex
Encoding: 234 234 125
Width: 588
GlyphClass: 2
Flags: MW
HStem: -10 100<248 257 257 273> 231 80<200 402 200 539 189 402> 421 100<332 348 348 350> 575 145<163 425 322 541 322 436>
VStem: 39 145<158.5 189.5 158.5 291> 404 148<334.5 362.5>
LayerCount: 2
Fore
SplineSet
322 720 m 1
 425 720 l 1
 463 672 502 623 541 575 c 1
 436 575 l 1
 364 658 l 1
 267 575 l 1
 163 575 l 1
 322 720 l 1
392 191 m 1
 532 191 l 1
 513 50 391 -10 273 -10 c 2
 257 -10 l 2
 129 -10 39 65 39 197 c 0
 39 385 150 521 332 521 c 2
 348 521 l 2
 460 521 552 456 552 340 c 0
 552 329 551 318 550 307 c 2
 539 231 l 1
 189 231 l 1
 186 219 184 193 184 186 c 0
 184 131 217 90 279 90 c 0
 339 90 383 123 392 191 c 1
319 421 m 0
 259 421 214 373 200 311 c 1
 402 311 l 1
 403 320 404 329 404 338 c 0
 404 387 381 421 319 421 c 0
EndSplineSet
EndChar

StartChar: edieresis
Encoding: 235 235 126
Width: 588
GlyphClass: 2
Flags: MW
HStem: -10 100<248 257 257 273> 231 80<200 402 200 539 189 402> 421 100<332 348 348 350> 598 122<204 308 187 325 204 391 408 512>
VStem: 39 145<158.5 189.5 158.5 291> 404 148<334.5 362.5>
LayerCount: 2
Fore
SplineSet
325 720 m 1
 308 598 l 1
 187 598 l 1
 204 720 l 1
 325 720 l 1
529 720 m 1
 512 598 l 1
 391 598 l 1
 408 720 l 1
 529 720 l 1
392 191 m 1
 532 191 l 1
 513 50 391 -10 273 -10 c 2
 257 -10 l 2
 129 -10 39 65 39 197 c 0
 39 385 150 521 332 521 c 2
 348 521 l 2
 460 521 552 456 552 340 c 0
 552 329 551 318 550 307 c 2
 539 231 l 1
 189 231 l 1
 186 219 184 193 184 186 c 0
 184 131 217 90 279 90 c 0
 339 90 383 123 392 191 c 1
319 421 m 0
 259 421 214 373 200 311 c 1
 402 311 l 1
 403 320 404 329 404 338 c 0
 404 387 381 421 319 421 c 0
EndSplineSet
EndChar

StartChar: edotaccent
Encoding: 279 279 127
Width: 584
GlyphClass: 2
Flags: MW
HStem: -10 100<246 255 255 271> 231 80<198 400 198 537 187 400> 421 100<330 346 346 348> 604 132<337.5 360.5>
VStem: 37 145<158.5 189.5 158.5 291> 284 133<658.5 679.5> 402 148<334.5 362.5>
AnchorPoint: "Bottom" 256 0 basechar 0
LayerCount: 2
Fore
SplineSet
417 678 m 0xfc
 417 639 382 604 339 604 c 0
 308 604 284 628 284 659 c 0
 284 700 316 736 359 736 c 0
 393 736 417 710 417 678 c 0xfc
390 191 m 1
 530 191 l 1
 511 50 389 -10 271 -10 c 2
 255 -10 l 2
 127 -10 37 65 37 197 c 0
 37 385 148 521 330 521 c 2
 346 521 l 2
 458 521 550 456 550 340 c 0
 550 329 549 318 548 307 c 2
 537 231 l 1xea
 187 231 l 1
 184 219 182 193 182 186 c 0
 182 131 215 90 277 90 c 0
 337 90 381 123 390 191 c 1
317 421 m 0
 257 421 212 373 198 311 c 1
 400 311 l 1
 401 320 402 329 402 338 c 0
 402 387 379 421 317 421 c 0
EndSplineSet
EndChar

StartChar: egrave
Encoding: 232 232 128
Width: 588
GlyphClass: 2
Flags: MW
HStem: -10 100<248 257 257 273> 231 80<200 402 200 539 189 402> 421 100<332 348 348 350> 575 145<300 330 202 402 300 300>
VStem: 39 145<158.5 189.5 158.5 291> 404 148<334.5 362.5>
LayerCount: 2
Fore
SplineSet
200 717 m 1
 202 720 l 1
 330 720 l 1
 402 575 l 1
 300 575 l 1
 200 717 l 1
392 191 m 1
 532 191 l 1
 513 50 391 -10 273 -10 c 2
 257 -10 l 2
 129 -10 39 65 39 197 c 0
 39 385 150 521 332 521 c 2
 348 521 l 2
 460 521 552 456 552 340 c 0
 552 329 551 318 550 307 c 2
 539 231 l 1
 189 231 l 1
 186 219 184 193 184 186 c 0
 184 131 217 90 279 90 c 0
 339 90 383 123 392 191 c 1
319 421 m 0
 259 421 214 373 200 311 c 1
 402 311 l 1
 403 320 404 329 404 338 c 0
 404 387 381 421 319 421 c 0
EndSplineSet
EndChar

StartChar: emacron
Encoding: 275 275 129
Width: 584
GlyphClass: 2
Flags: MW
HStem: -10 100<246 255 255 271> 231 80<198 400 198 537 187 400> 421 100<330 346 346 348> 662 74<201 508 190 519>
VStem: 37 145<158.5 189.5 158.5 291> 402 148<334.5 362.5>
AnchorPoint: "Bottom" 256 0 basechar 0
LayerCount: 2
Fore
SplineSet
201 736 m 1
 519 736 l 1
 508 662 l 1
 190 662 l 1
 201 736 l 1
390 191 m 1
 530 191 l 1
 511 50 389 -10 271 -10 c 2
 255 -10 l 2
 127 -10 37 65 37 197 c 0
 37 385 148 521 330 521 c 2
 346 521 l 2
 458 521 550 456 550 340 c 0
 550 329 549 318 548 307 c 2
 537 231 l 1
 187 231 l 1
 184 219 182 193 182 186 c 0
 182 131 215 90 277 90 c 0
 337 90 381 123 390 191 c 1
317 421 m 0
 257 421 212 373 198 311 c 1
 400 311 l 1
 401 320 402 329 402 338 c 0
 402 387 379 421 317 421 c 0
EndSplineSet
EndChar

StartChar: eogonek
Encoding: 281 281 130
Width: 584
GlyphClass: 2
Flags: MW
HStem: -143 50<321.5 324.5> -10 100<246 255 255 270> 231 80<198 400 198 537 187 400> 421 100<330 346 346 348>
VStem: 37 145<158.5 189.5 158.5 291> 221 71<-75 -66.5> 402 148<334.5 362.5>
AnchorPoint: "Bottom" 256 0 basechar 0
LayerCount: 2
Fore
SplineSet
330 521 m 2
 346 521 l 2
 458 521 550 456 550 340 c 0
 550 329 549 318 548 307 c 2
 537 231 l 1
 187 231 l 1
 184 219 182 193 182 186 c 0
 182 131 215 90 277 90 c 0
 337 90 381 123 390 191 c 1
 530 191 l 1
 515 79 435 18 344 -2 c 1
 320 -15 292 -36 292 -64 c 0
 292 -86 312 -93 331 -93 c 0
 355 -93 378 -87 400 -79 c 1
 408 -119 l 1
 377 -135 341 -143 308 -143 c 0
 265 -143 221 -129 221 -83 c 0
 221 -50 244 -28 270 -10 c 1
 255 -10 l 2
 127 -10 37 65 37 197 c 0
 37 385 148 521 330 521 c 2
198 311 m 1
 400 311 l 1
 401 320 402 329 402 338 c 0
 402 387 379 421 317 421 c 0
 257 421 212 373 198 311 c 1
EndSplineSet
EndChar

StartChar: f
Encoding: 102 102 131
Width: 363
GlyphClass: 2
Flags: MW
HStem: -185 20 411 100<44 91 31 105 251 356> 630 98<296 305 242 333>
VStem: -108 505 109.5 141.5
LayerCount: 2
Fore
SplineSet
397 707 m 1xf0
 385 618 l 1
 370 623 341 630 325 630 c 0
 267 630 259 591 251 511 c 1
 371 511 l 1
 356 411 l 1
 237 411 l 1
 218 276 198 133 180 -1 c 0
 163 -132 94 -185 -9 -185 c 0
 -41 -185 -85 -178 -108 -165 c 1
 -96 -74 l 1
 -81 -81 -52 -87 -36 -87 c 0
 0 -87 23 -70 30 -21 c 0
 49 121 70 270 91 411 c 1
 31 411 l 1
 44 511 l 1
 105 511 l 1
 114 574 l 2xe8
 130 685 194 728 290 728 c 0
 320 728 371 721 397 707 c 1xf0
EndSplineSet
EndChar

StartChar: g
Encoding: 103 103 132
Width: 572
GlyphClass: 2
Flags: MW
HStem: -186 99<229.5 309 229.5 323> 19 100<163 303.5> 421 100<295 338 215 346.5> 491 20G<522 575 575 575>
VStem: 28 146<-37 -19 -37 -19> 50 144<177 210 177 287>
LayerCount: 2
Fore
SplineSet
28 -19 m 1xd8
 174 -19 l 1
 174 -55 202 -87 257 -87 c 0xe8
 361 -87 361 24 369 88 c 1
 333 48 279 19 216 19 c 0
 110 19 50 98 50 212 c 0
 50 362 127 521 303 521 c 0
 373 521 429 492 460 433 c 1xe4
 480 459 501 485 522 511 c 1
 575 511 l 1
 508 37 l 2
 489 -102 398 -186 248 -186 c 0
 120 -186 28 -129 28 -19 c 1xd8
208 309 m 0xe4
 195 222 194 214 194 206 c 0
 194 148 228 119 276 119 c 0
 331 119 379 156 390 231 c 0
 394 259 402 303 402 326 c 0
 402 390 371 421 322 421 c 0
 268 421 220 384 208 309 c 0xe4
EndSplineSet
EndChar

StartChar: gbreve
Encoding: 287 287 133
Width: 572
GlyphClass: 2
Flags: MW
HStem: -186 99<229.5 309 229.5 323> 19 100<163 303.5> 421 100<295 338 215 346.5> 491 20G<522 575 575 575> 613 74<309 366 309 381.5>
VStem: 28 146<-37 -19 -37 -19> 50 144<177 210 177 287>
LayerCount: 2
Fore
SplineSet
328 613 m 0xea
 227 613 152 674 152 729 c 0
 152 731 152 734 153 737 c 2
 234 737 l 1
 237 713 280 687 338 687 c 0
 394 687 448 715 456 737 c 1
 538 737 l 1
 530 680 435 613 328 613 c 0xea
28 -19 m 1xdc
 174 -19 l 1
 174 -55 202 -87 257 -87 c 0xec
 361 -87 361 24 369 88 c 1
 333 48 279 19 216 19 c 0
 110 19 50 98 50 212 c 0
 50 362 127 521 303 521 c 0
 373 521 429 492 460 433 c 1xea
 480 459 501 485 522 511 c 1
 575 511 l 1
 508 37 l 2
 489 -102 398 -186 248 -186 c 0
 120 -186 28 -129 28 -19 c 1xdc
208 309 m 0xea
 195 222 194 214 194 206 c 0
 194 148 228 119 276 119 c 0
 331 119 379 156 390 231 c 0
 394 259 402 303 402 326 c 0
 402 390 371 421 322 421 c 0
 268 421 220 384 208 309 c 0xea
EndSplineSet
EndChar

StartChar: gcommaaccent
Encoding: 291 291 134
Width: 572
GlyphClass: 2
Flags: MW
HStem: -186 99<229.5 309 229.5 323> 19 100<163 303.5> 421 100<295 338 215 346.5> 491 20G<522 575 575 575> 571 137<370 414 268 433>
VStem: 28 146<-37 -19 -37 -19> 50 144<177 210 177 287>
LayerCount: 2
Fore
SplineSet
370 708 m 1xea
 433 708 l 1
 414 571 l 1
 268 571 l 1
 284 684 l 1
 324 791 l 1
 398 791 l 1
 370 708 l 1xea
28 -19 m 1xdc
 174 -19 l 1
 174 -55 202 -87 257 -87 c 0xec
 361 -87 361 24 369 88 c 1
 333 48 279 19 216 19 c 0
 110 19 50 98 50 212 c 0
 50 362 127 521 303 521 c 0
 373 521 429 492 460 433 c 1xea
 480 459 501 485 522 511 c 1
 575 511 l 1
 508 37 l 2
 489 -102 398 -186 248 -186 c 0
 120 -186 28 -129 28 -19 c 1xdc
208 309 m 0xea
 195 222 194 214 194 206 c 0
 194 148 228 119 276 119 c 0
 331 119 379 156 390 231 c 0
 394 259 402 303 402 326 c 0
 402 390 371 421 322 421 c 0
 268 421 220 384 208 309 c 0xea
EndSplineSet
EndChar

StartChar: h
Encoding: 104 104 135
Width: 598
GlyphClass: 2
Flags: MW
HStem: 0 21G<15 161 15 15 336 482 336 336> 415 106<288.5 420.5>
VStem: 15 519<0 431.5> 383 151<337.5 431.5>
LayerCount: 2
Fore
SplineSet
262 720 m 1xe0
 226 461 l 1
 262 494 312 521 376 521 c 0
 465 521 534 477 534 386 c 0
 534 366 533 367 482 0 c 1
 336 0 l 1
 383 330 383 335 383 340 c 0
 383 384 356 415 314 415 c 0xd0
 263 415 213 371 205 314 c 2
 161 0 l 1
 15 0 l 1
 116 720 l 1
 262 720 l 1xe0
EndSplineSet
EndChar

StartChar: i
Encoding: 105 105 136
Width: 278
GlyphClass: 2
Flags: MW
HStem: 0 21G<15 161 15 15> 491 20G<87 233 233 233> 605 115<115 247 99 263>
VStem: 15 248
LayerCount: 2
Fore
SplineSet
263 720 m 1
 247 605 l 1
 99 605 l 1
 115 720 l 1
 263 720 l 1
87 511 m 1
 233 511 l 1
 161 0 l 1
 15 0 l 1
 87 511 l 1
EndSplineSet
EndChar

StartChar: dotlessi
Encoding: 305 305 137
Width: 278
GlyphClass: 2
Flags: MW
HStem: 0 21G<30 176 30 30> 491 20G<101 247 247 247>
VStem: 30 217
LayerCount: 2
Fore
SplineSet
101 511 m 1
 247 511 l 1
 176 0 l 1
 30 0 l 1
 101 511 l 1
EndSplineSet
EndChar

StartChar: iacute
Encoding: 237 237 138
Width: 278
GlyphClass: 2
Flags: MW
HStem: 0 21G<30 176 30 30> 491 20G<101 247 247 247> 575 145<111 353 111 353>
VStem: 30 323
LayerCount: 2
Fore
SplineSet
224 720 m 1
 353 720 l 1
 353 716 l 1
 212 575 l 1
 111 575 l 1
 224 720 l 1
101 511 m 1
 247 511 l 1
 176 0 l 1
 30 0 l 1
 101 511 l 1
EndSplineSet
EndChar

StartChar: icircumflex
Encoding: 238 238 139
Width: 278
GlyphClass: 2
Flags: MW
HStem: 0 21G<30 176 30 30> 491 20G<101 247 247 247> 575 145<-13 249 146 365 146 260>
VStem: -13 378<575 575>
LayerCount: 2
Fore
SplineSet
146 720 m 1
 249 720 l 1
 287 672 326 623 365 575 c 1
 260 575 l 1
 188 658 l 1
 91 575 l 1
 -13 575 l 1
 146 720 l 1
101 511 m 1
 247 511 l 1
 176 0 l 1
 30 0 l 1
 101 511 l 1
EndSplineSet
EndChar

StartChar: idieresis
Encoding: 239 239 140
Width: 278
GlyphClass: 2
Flags: MW
HStem: 0 21G<30 176 30 30> 491 20G<101 247 247 247> 598 122<41 145 24 162 41 228 245 349>
VStem: 24 342<598 720>
LayerCount: 2
Fore
SplineSet
162 720 m 1
 145 598 l 1
 24 598 l 1
 41 720 l 1
 162 720 l 1
366 720 m 1
 349 598 l 1
 228 598 l 1
 245 720 l 1
 366 720 l 1
101 511 m 1
 247 511 l 1
 176 0 l 1
 30 0 l 1
 101 511 l 1
EndSplineSet
EndChar

StartChar: igrave
Encoding: 236 236 141
Width: 278
GlyphClass: 2
Flags: MW
HStem: 0 21G<30 176 30 30> 491 20G<101 247 247 247> 575 145<142 172 44 244 142 142>
VStem: 30 217
LayerCount: 2
Fore
SplineSet
42 717 m 1
 44 720 l 1
 172 720 l 1
 244 575 l 1
 142 575 l 1
 42 717 l 1
101 511 m 1
 247 511 l 1
 176 0 l 1
 30 0 l 1
 101 511 l 1
EndSplineSet
EndChar

StartChar: imacron
Encoding: 299 299 142
Width: 278
GlyphClass: 2
Flags: MW
HStem: 0 21G<30 176 30 30> 491 20G<101 247 247 247> 662 74<48 355 37 366>
VStem: 30 336
LayerCount: 2
Fore
SplineSet
48 736 m 1
 366 736 l 1
 355 662 l 1
 37 662 l 1
 48 736 l 1
101 511 m 1
 247 511 l 1
 176 0 l 1
 30 0 l 1
 101 511 l 1
EndSplineSet
EndChar

StartChar: iogonek
Encoding: 303 303 143
Width: 278
GlyphClass: 2
Flags: MW
HStem: -143 50<145.5 148.5> 0 21G<30 110 30 30 172 176 172 172> 491 20G<101 247 247 247> 605 115<135 267 119 283>
VStem: 45 71<-75 -63.5>
LayerCount: 2
Fore
SplineSet
283 720 m 1
 267 605 l 1
 119 605 l 1
 135 720 l 1
 283 720 l 1
176 0 m 1
 172 0 l 1
 147 -13 116 -35 116 -64 c 0
 116 -86 136 -93 155 -93 c 0
 179 -93 202 -87 224 -79 c 1
 232 -119 l 1
 201 -135 165 -143 132 -143 c 0
 89 -143 45 -129 45 -83 c 0
 45 -44 78 -19 110 0 c 1
 30 0 l 1
 101 511 l 1
 247 511 l 1
 176 0 l 1
EndSplineSet
EndChar

StartChar: j
Encoding: 106 106 144
Width: 280
GlyphClass: 2
Flags: MW
HStem: -186 20 490 20G<101 247 247 247> 605 115<129 261 113 277>
VStem: -110 387
LayerCount: 2
Fore
SplineSet
277 720 m 1
 261 605 l 1
 113 605 l 1
 129 720 l 1
 277 720 l 1
247 510 m 1
 172 -20 l 2
 156 -133 96 -186 -4 -186 c 0
 -35 -186 -85 -179 -110 -166 c 1
 -97 -73 l 1
 -83 -80 -53 -86 -38 -86 c 0
 -10 -86 18 -77 26 -18 c 2
 101 510 l 1
 247 510 l 1
EndSplineSet
EndChar

StartChar: k
Encoding: 107 107 145
Width: 562
GlyphClass: 2
Flags: MW
HStem: 0 21G<15 161 15 15 339 339 339 513> 491 20G<412 577 577 577>
VStem: 15 562<0 511>
AnchorPoint: "Bottom" 245 0 basechar 0
LayerCount: 2
Fore
SplineSet
241 167 m 1
 177 112 l 1
 161 0 l 1
 15 0 l 1
 116 720 l 1
 262 720 l 1
 199 273 l 1
 412 511 l 1
 577 511 l 1
 355 271 l 1
 513 0 l 1
 339 0 l 1
 241 167 l 1
EndSplineSet
EndChar

StartChar: kcommaaccent
Encoding: 311 311 146
Width: 562
GlyphClass: 2
Flags: MW
HStem: -167 137<173 217 154 319> 0 21G<15 161 15 15 339 339 339 513> 491 20G<412 577 577 577>
VStem: 15 562<0 511>
AnchorPoint: "Bottom" 245 0 basechar 0
LayerCount: 2
Fore
SplineSet
241 167 m 1
 177 112 l 1
 161 0 l 1
 15 0 l 1
 116 720 l 1
 262 720 l 1
 199 273 l 1
 412 511 l 1
 577 511 l 1
 355 271 l 1
 513 0 l 1
 339 0 l 1
 241 167 l 1
217 -167 m 1xf0
 154 -167 l 1
 173 -30 l 1
 319 -30 l 1
 303 -143 l 1
 263 -250 l 1
 189 -250 l 1
 217 -167 l 1xf0
EndSplineSet
EndChar

StartChar: l
Encoding: 108 108 147
Width: 279
GlyphClass: 2
Flags: MW
HStem: 0 21G<15 161 15 15>
VStem: 15 247
AnchorPoint: "Bottom" 104 0 basechar 0
LayerCount: 2
Fore
SplineSet
116 720 m 1
 262 720 l 1
 161 0 l 1
 15 0 l 1
 116 720 l 1
EndSplineSet
EndChar

StartChar: lacute
Encoding: 314 314 148
Width: 279
GlyphClass: 2
Flags: MW
HStem: 0 21G<15 161 15 15> 750 145<132 374 132 374>
VStem: 15 359
AnchorPoint: "Bottom" 104 0 basechar 0
LayerCount: 2
Fore
SplineSet
245 895 m 1
 374 895 l 1
 374 891 l 1
 233 750 l 1
 132 750 l 1
 245 895 l 1
116 720 m 1
 262 720 l 1
 161 0 l 1
 15 0 l 1
 116 720 l 1
EndSplineSet
EndChar

StartChar: lcaron
Encoding: 318 318 149
Width: 279
GlyphClass: 2
Flags: MW
HStem: 0 21G<15 161 15 15> 539 147<352 394 331 498> 539 181<116 394 116 331>
VStem: 15 483
AnchorPoint: "Bottom" 104 0 basechar 0
LayerCount: 2
Fore
SplineSet
116 720 m 1xb0
 262 720 l 1
 161 0 l 1
 15 0 l 1
 116 720 l 1xb0
394 539 m 1xd0
 331 539 l 1
 352 686 l 1
 498 686 l 1
 481 563 l 1
 415 395 l 1
 342 395 l 1
 394 539 l 1xd0
EndSplineSet
EndChar

StartChar: lcommaaccent
Encoding: 316 316 150
Width: 279
GlyphClass: 2
Flags: MW
HStem: -167 137<32 76 13 178> 0 21G<15 161 15 15>
VStem: 13 249
AnchorPoint: "Bottom" 104 0 basechar 0
LayerCount: 2
Fore
SplineSet
116 720 m 1
 262 720 l 1
 161 0 l 1
 15 0 l 1
 116 720 l 1
76 -167 m 1xe0
 13 -167 l 1
 32 -30 l 1
 178 -30 l 1
 162 -143 l 1
 122 -250 l 1
 48 -250 l 1
 76 -167 l 1xe0
EndSplineSet
EndChar

StartChar: lslash
Encoding: 322 322 151
Width: 279
GlyphClass: 2
Flags: MW
HStem: 0 21G<15 161 15 15>
VStem: -16 318<268 500>
LayerCount: 2
Fore
SplineSet
-16 268 m 1
 -4 355 l 1
 19 367 44 378 70 390 c 1
 116 720 l 1
 262 720 l 1
 226 464 l 1
 302 500 l 1
 290 412 l 1
 214 377 l 1
 161 0 l 1
 15 0 l 1
 57 303 l 1
 32 291 7 280 -16 268 c 1
EndSplineSet
EndChar

StartChar: m
Encoding: 109 109 152
Width: 870
GlyphClass: 2
Flags: MW
HStem: 0 21G<29 175 29 29 326 472 326 326 623 769 623 623> 415 106<292 410> 491 20G<101 211 211 211>
VStem: 29 792<0 430> 670 151<370 370.5>
LayerCount: 2
Fore
SplineSet
378 521 m 0xd0
 442 521 494 493 515 439 c 1
 560 497 615 521 675 521 c 0
 758 521 821 474 821 386 c 0
 821 354 820 367 769 0 c 1
 623 0 l 1
 670 336 670 338 670 349 c 0
 670 392 649 415 613 415 c 0
 567 415 524 374 516 317 c 2
 472 0 l 1
 326 0 l 1
 373 335 373 338 373 349 c 0
 373 392 351 415 315 415 c 0
 269 415 227 374 219 317 c 2xc8
 175 0 l 1
 29 0 l 1
 101 511 l 1
 211 511 l 1xb0
 213 486 215 461 216 436 c 1
 261 494 318 521 378 521 c 0xd0
EndSplineSet
EndChar

StartChar: n
Encoding: 110 110 153
Width: 597
GlyphClass: 2
Flags: MW
HStem: 0 21G<29 175 29 29 350 496 350 350> 415 106<302.5 434.5> 491 20G<101 210 210 210>
VStem: 29 519<0 431.5> 397 151<335.5 431.5>
AnchorPoint: "Bottom" 263 0 basechar 0
LayerCount: 2
Fore
SplineSet
210 511 m 1xb0
 215 436 l 1
 253 479 311 521 390 521 c 0
 479 521 548 477 548 386 c 0
 548 362 547 367 496 0 c 1
 350 0 l 1
 397 330 397 331 397 340 c 0
 397 384 370 415 328 415 c 0xc8
 277 415 227 371 219 314 c 2
 175 0 l 1
 29 0 l 1
 101 511 l 1
 210 511 l 1xb0
EndSplineSet
EndChar

StartChar: nacute
Encoding: 324 324 154
Width: 597
GlyphClass: 2
Flags: MW
HStem: 0 21G<29 175 29 29 350 496 350 350> 415 106<302.5 434.5> 491 20G<101 210 210 210> 575 145<253 495 253 495>
VStem: 29 519<0 431.5> 397 151<335.5 431.5>
AnchorPoint: "Bottom" 263 0 basechar 0
LayerCount: 2
Fore
SplineSet
366 720 m 1xb8
 495 720 l 1
 495 716 l 1
 354 575 l 1
 253 575 l 1
 366 720 l 1xb8
210 511 m 1
 215 436 l 1
 253 479 311 521 390 521 c 0
 479 521 548 477 548 386 c 0
 548 362 547 367 496 0 c 1
 350 0 l 1
 397 330 397 331 397 340 c 0
 397 384 370 415 328 415 c 0xd4
 277 415 227 371 219 314 c 2
 175 0 l 1
 29 0 l 1
 101 511 l 1
 210 511 l 1
EndSplineSet
EndChar

StartChar: ncaron
Encoding: 328 328 155
Width: 597
GlyphClass: 2
Flags: MW
HStem: 0 21G<29 175 29 29 350 496 350 350> 415 106<302.5 434.5> 491 20G<101 210 210 210> 575 145<165 385 165 282>
VStem: 29 519<0 431.5> 397 151<335.5 431.5>
AnchorPoint: "Bottom" 263 0 basechar 0
LayerCount: 2
Fore
SplineSet
270 720 m 1xb8
 343 637 l 1
 439 720 l 1
 543 720 l 1
 494 675 444 630 385 575 c 1
 282 575 l 1
 165 720 l 1
 270 720 l 1xb8
210 511 m 1
 215 436 l 1
 253 479 311 521 390 521 c 0
 479 521 548 477 548 386 c 0
 548 362 547 367 496 0 c 1
 350 0 l 1
 397 330 397 331 397 340 c 0
 397 384 370 415 328 415 c 0xd4
 277 415 227 371 219 314 c 2
 175 0 l 1
 29 0 l 1
 101 511 l 1
 210 511 l 1
EndSplineSet
EndChar

StartChar: ncommaaccent
Encoding: 326 326 156
Width: 597
GlyphClass: 2
Flags: MW
HStem: -167 137<191 235 172 337> 0 21G<29 175 29 29 350 496 350 350> 415 106<302.5 434.5> 491 20G<101 210 210 210>
VStem: 29 519<0 431.5> 397 151<335.5 431.5>
AnchorPoint: "Bottom" 263 0 basechar 0
LayerCount: 2
Fore
SplineSet
210 511 m 1x58
 215 436 l 1
 253 479 311 521 390 521 c 0
 479 521 548 477 548 386 c 0
 548 362 547 367 496 0 c 1
 350 0 l 1
 397 330 397 331 397 340 c 0
 397 384 370 415 328 415 c 0x64
 277 415 227 371 219 314 c 2
 175 0 l 1
 29 0 l 1
 101 511 l 1
 210 511 l 1x58
235 -167 m 1xd8
 172 -167 l 1
 191 -30 l 1
 337 -30 l 1
 321 -143 l 1
 281 -250 l 1
 207 -250 l 1
 235 -167 l 1xd8
EndSplineSet
EndChar

StartChar: ntilde
Encoding: 241 241 157
Width: 598
GlyphClass: 2
Flags: MW
HStem: 0 21G<29 175 29 29 350 496 350 350> 415 106<302.5 434.5> 491 20G<101 210 210 210> 596 86<414 455 414 460> 633 87<241 282>
VStem: 29 535 397 151<335.5 431.5>
LayerCount: 2
Fore
SplineSet
499 720 m 1xb4
 564 720 l 1xb4
 556 660 499 596 421 596 c 0
 357 596 309 633 255 633 c 0xac
 227 633 208 619 198 596 c 1
 133 596 l 1
 141 655 198 720 276 720 c 0
 340 720 387 682 441 682 c 0
 469 682 489 697 499 720 c 1xb4
210 511 m 1
 215 436 l 1
 253 479 311 521 390 521 c 0
 479 521 548 477 548 386 c 0
 548 362 547 367 496 0 c 1
 350 0 l 1
 397 330 397 331 397 340 c 0
 397 384 370 415 328 415 c 0xd2
 277 415 227 371 219 314 c 2
 175 0 l 1
 29 0 l 1
 101 511 l 1
 210 511 l 1
EndSplineSet
EndChar

StartChar: o
Encoding: 111 111 158
Width: 602
GlyphClass: 2
Flags: MW
HStem: -10 100<249.5 255 255 271> 421 100<330 346 346 351.5>
VStem: 37 146<155 192 155 294> 418 146<319 356>
LayerCount: 2
Fore
SplineSet
564 314 m 0
 564 129 461 -10 271 -10 c 2
 255 -10 l 2
 127 -10 37 65 37 197 c 0
 37 391 148 521 330 521 c 2
 346 521 l 2
 473 521 564 446 564 314 c 0
405 215 m 0
 417 306 418 315 418 323 c 0
 418 389 379 421 324 421 c 0
 262 421 207 380 196 296 c 0
 184 205 183 196 183 188 c 0
 183 122 222 90 277 90 c 0
 337 90 393 131 405 215 c 0
EndSplineSet
Substitution2: "Single Substitution lookup 5 subtable" ordmasculine
Substitution2: "'aalt' Access All Alternates lookup 0 subtable" ordmasculine
EndChar

StartChar: oacute
Encoding: 243 243 159
Width: 606
GlyphClass: 2
Flags: MW
HStem: -10 100<251.5 257 257 273> 421 100<332 348 348 353.5> 575 145<287 529 287 529>
VStem: 39 146<155 192 155 294> 420 146<319 356>
LayerCount: 2
Fore
SplineSet
400 720 m 1
 529 720 l 1
 529 716 l 1
 388 575 l 1
 287 575 l 1
 400 720 l 1
566 314 m 0
 566 129 463 -10 273 -10 c 2
 257 -10 l 2
 129 -10 39 65 39 197 c 0
 39 391 150 521 332 521 c 2
 348 521 l 2
 475 521 566 446 566 314 c 0
407 215 m 0
 419 306 420 315 420 323 c 0
 420 389 381 421 326 421 c 0
 264 421 209 380 198 296 c 0
 186 205 185 196 185 188 c 0
 185 122 224 90 279 90 c 0
 339 90 395 131 407 215 c 0
EndSplineSet
EndChar

StartChar: ocircumflex
Encoding: 244 244 160
Width: 606
GlyphClass: 2
Flags: MW
HStem: -10 100<251.5 257 257 273> 421 100<332 348 348 353.5> 575 145<154 416 313 532 313 427>
VStem: 39 146<155 192 155 294> 420 146<319 356>
LayerCount: 2
Fore
SplineSet
313 720 m 1
 416 720 l 1
 454 672 493 623 532 575 c 1
 427 575 l 1
 355 658 l 1
 258 575 l 1
 154 575 l 1
 313 720 l 1
566 314 m 0
 566 129 463 -10 273 -10 c 2
 257 -10 l 2
 129 -10 39 65 39 197 c 0
 39 391 150 521 332 521 c 2
 348 521 l 2
 475 521 566 446 566 314 c 0
407 215 m 0
 419 306 420 315 420 323 c 0
 420 389 381 421 326 421 c 0
 264 421 209 380 198 296 c 0
 186 205 185 196 185 188 c 0
 185 122 224 90 279 90 c 0
 339 90 395 131 407 215 c 0
EndSplineSet
EndChar

StartChar: odieresis
Encoding: 246 246 161
Width: 606
GlyphClass: 2
Flags: MW
HStem: -10 100<251.5 257 257 273> 421 100<332 348 348 353.5> 598 122<199 303 182 320 199 386 403 507>
VStem: 39 146<155 192 155 294> 420 146<319 356>
LayerCount: 2
Fore
SplineSet
320 720 m 1
 303 598 l 1
 182 598 l 1
 199 720 l 1
 320 720 l 1
524 720 m 1
 507 598 l 1
 386 598 l 1
 403 720 l 1
 524 720 l 1
566 314 m 0
 566 129 463 -10 273 -10 c 2
 257 -10 l 2
 129 -10 39 65 39 197 c 0
 39 391 150 521 332 521 c 2
 348 521 l 2
 475 521 566 446 566 314 c 0
407 215 m 0
 419 306 420 315 420 323 c 0
 420 389 381 421 326 421 c 0
 264 421 209 380 198 296 c 0
 186 205 185 196 185 188 c 0
 185 122 224 90 279 90 c 0
 339 90 395 131 407 215 c 0
EndSplineSet
EndChar

StartChar: ograve
Encoding: 242 242 162
Width: 606
GlyphClass: 2
Flags: MW
HStem: -10 100<251.5 257 257 273> 421 100<332 348 348 353.5> 575 145<298 328 200 400 298 298>
VStem: 39 146<155 192 155 294> 420 146<319 356>
LayerCount: 2
Fore
SplineSet
198 717 m 1
 200 720 l 1
 328 720 l 1
 400 575 l 1
 298 575 l 1
 198 717 l 1
566 314 m 0
 566 129 463 -10 273 -10 c 2
 257 -10 l 2
 129 -10 39 65 39 197 c 0
 39 391 150 521 332 521 c 2
 348 521 l 2
 475 521 566 446 566 314 c 0
407 215 m 0
 419 306 420 315 420 323 c 0
 420 389 381 421 326 421 c 0
 264 421 209 380 198 296 c 0
 186 205 185 196 185 188 c 0
 185 122 224 90 279 90 c 0
 339 90 395 131 407 215 c 0
EndSplineSet
EndChar

StartChar: ohungarumlaut
Encoding: 337 337 163
Width: 602
GlyphClass: 2
Flags: MW
HStem: -10 100<249.5 255 255 271> 421 100<330 346 346 351.5> 575 145<149 391 149 391 340 340 340 391 263 442>
VStem: 37 146<155 192 155 294> 418 146<319 356>
LayerCount: 2
Fore
SplineSet
263 720 m 1
 391 720 l 1
 392 717 l 1
 251 575 l 1
 149 575 l 1
 263 720 l 1
454 720 m 1
 582 720 l 1
 583 717 l 1
 442 575 l 1
 340 575 l 1
 454 720 l 1
564 314 m 0
 564 129 461 -10 271 -10 c 2
 255 -10 l 2
 127 -10 37 65 37 197 c 0
 37 391 148 521 330 521 c 2
 346 521 l 2
 473 521 564 446 564 314 c 0
405 215 m 0
 417 306 418 315 418 323 c 0
 418 389 379 421 324 421 c 0
 262 421 207 380 196 296 c 0
 184 205 183 196 183 188 c 0
 183 122 222 90 277 90 c 0
 337 90 393 131 405 215 c 0
EndSplineSet
EndChar

StartChar: omacron
Encoding: 333 333 164
Width: 602
GlyphClass: 2
Flags: MW
HStem: -10 100<249.5 255 255 271> 421 100<330 346 346 351.5> 662 74<210 517 199 528>
VStem: 37 146<155 192 155 294> 418 146<319 356>
LayerCount: 2
Fore
SplineSet
210 736 m 1
 528 736 l 1
 517 662 l 1
 199 662 l 1
 210 736 l 1
564 314 m 0
 564 129 461 -10 271 -10 c 2
 255 -10 l 2
 127 -10 37 65 37 197 c 0
 37 391 148 521 330 521 c 2
 346 521 l 2
 473 521 564 446 564 314 c 0
405 215 m 0
 417 306 418 315 418 323 c 0
 418 389 379 421 324 421 c 0
 262 421 207 380 196 296 c 0
 184 205 183 196 183 188 c 0
 183 122 222 90 277 90 c 0
 337 90 393 131 405 215 c 0
EndSplineSet
EndChar

StartChar: oslash
Encoding: 248 248 165
Width: 606
GlyphClass: 2
Flags: MW
HStem: -10 100<235.5 307 266.5 271> 421 100<330 335>
VStem: 37 146<181.5 192 181.5 294> 418 146<319 328.5>
LayerCount: 2
Fore
SplineSet
564 314 m 0
 564 129 461 -10 271 -10 c 2
 255 -10 l 2
 216 -10 181 -3 150 10 c 1
 100 -55 l 1
 25 -55 l 1
 35 -42 62 -6 100 42 c 1
 60 78 37 130 37 197 c 0
 37 391 148 521 330 521 c 2
 346 521 l 2
 386 521 422 513 453 499 c 1
 478 532 496 557 505 568 c 1
 580 568 l 1
 502 467 l 1
 541 431 564 380 564 314 c 0
187 154 m 1
 380 405 l 1
 365 415 346 421 324 421 c 0
 262 421 207 380 196 296 c 0
 184 205 183 196 183 188 c 0
 183 175 184 164 187 154 c 1
405 215 m 0
 417 306 418 315 418 323 c 0
 418 334 416 344 414 353 c 1
 222 104 l 1
 237 94 256 90 277 90 c 0
 337 90 393 131 405 215 c 0
EndSplineSet
EndChar

StartChar: otilde
Encoding: 245 245 166
Width: 606
GlyphClass: 2
Flags: MW
HStem: -10 100<251.5 257 257 273> 421 100<332 348 348 353.5> 596 86<417 458 417 463> 633 87<244 285>
VStem: 39 146<155 192 155 294> 420 146<319 356>
LayerCount: 2
Fore
SplineSet
502 720 m 1xec
 567 720 l 1xec
 559 660 502 596 424 596 c 0
 360 596 312 633 258 633 c 0xdc
 230 633 211 619 201 596 c 1
 136 596 l 1
 144 655 201 720 279 720 c 0
 343 720 390 682 444 682 c 0
 472 682 492 697 502 720 c 1xec
566 314 m 0
 566 129 463 -10 273 -10 c 2
 257 -10 l 2
 129 -10 39 65 39 197 c 0
 39 391 150 521 332 521 c 2
 348 521 l 2
 475 521 566 446 566 314 c 0
407 215 m 0
 419 306 420 315 420 323 c 0
 420 389 381 421 326 421 c 0
 264 421 209 380 198 296 c 0
 186 205 185 196 185 188 c 0
 185 122 224 90 279 90 c 0
 339 90 395 131 407 215 c 0
EndSplineSet
EndChar

StartChar: oe
Encoding: 339 339 167
Width: 946
GlyphClass: 2
Flags: MW
HStem: -10 100<249.5 255 255 271 608 617 617 633> 231 80<560 762 560 899 549 762> 421 100<330 346 346 351.5 692 708 708 710>
VStem: 37 146<155 192 155 294> 764 148<334.5 362.5>
LayerCount: 2
Fore
SplineSet
330 521 m 2
 346 521 l 2
 413 521 471 499 510 460 c 1
 557 498 619 521 692 521 c 2
 708 521 l 2
 820 521 912 456 912 340 c 0
 912 329 911 318 910 307 c 2
 899 231 l 1
 549 231 l 1
 546 219 544 193 544 186 c 0
 544 131 577 90 639 90 c 0
 699 90 743 123 752 191 c 1
 892 191 l 1
 873 50 751 -10 633 -10 c 2
 617 -10 l 2
 550 -10 493 10 454 49 c 1
 407 11 346 -10 271 -10 c 2
 255 -10 l 2
 127 -10 37 65 37 197 c 0
 37 391 148 521 330 521 c 2
405 215 m 0
 417 306 418 315 418 323 c 0
 418 389 379 421 324 421 c 0
 262 421 207 380 196 296 c 0
 184 205 183 196 183 188 c 0
 183 122 222 90 277 90 c 0
 337 90 393 131 405 215 c 0
679 421 m 0
 619 421 574 373 560 311 c 1
 762 311 l 1
 763 320 764 329 764 338 c 0
 764 387 741 421 679 421 c 0
EndSplineSet
EndChar

StartChar: p
Encoding: 112 112 168
Width: 595
GlyphClass: 2
Flags: MW
HStem: -181 21G<16 162 16 16> -10 106<294 324.5 273.5 414.5> 421 100<355.5 367> 491 20G<113 228 228 228>
VStem: 424 144<323.5 359>
LayerCount: 2
Fore
SplineSet
113 511 m 1xd8
 228 511 l 1xd8
 230 490 233 469 234 447 c 1
 272 489 322 521 389 521 c 0xe8
 492 521 568 457 568 319 c 0
 568 166 500 -10 329 -10 c 0
 259 -10 216 26 196 59 c 1
 162 -181 l 1
 16 -181 l 1
 113 511 l 1xd8
230 300 m 0
 217 207 216 198 216 189 c 0
 216 127 250 96 297 96 c 0
 352 96 398 136 410 217 c 0
 423 310 424 319 424 328 c 0
 424 390 391 421 343 421 c 0xe8
 289 421 242 381 230 300 c 0
EndSplineSet
EndChar

StartChar: thorn
Encoding: 254 254 169
Width: 597
GlyphClass: 2
Flags: MW
HStem: -181 21G<2 148 2 2> -10 106<280 310 259 400.5> 421 100<346.5 352.5>
VStem: 410 144<323.5 359>
LayerCount: 2
Fore
SplineSet
275 720 m 1
 239 466 l 1
 274 498 318 521 375 521 c 0
 478 521 554 457 554 319 c 0
 554 168 486 -10 315 -10 c 0
 245 -10 202 26 182 59 c 1
 148 -181 l 1
 2 -181 l 1
 129 720 l 1
 275 720 l 1
396 217 m 0
 409 310 410 319 410 328 c 0
 410 390 376 421 329 421 c 0
 274 421 228 381 216 300 c 0
 203 207 202 198 202 189 c 0
 202 127 235 96 283 96 c 0
 337 96 384 136 396 217 c 0
EndSplineSet
EndChar

StartChar: q
Encoding: 113 113 170
Width: 595
GlyphClass: 2
Flags: MW
HStem: -180 21G<332 332 332 478> -10 106<165.5 302.5> 421 100<294 340 213 345> 491 20G<522 575 575 575>
VStem: 48 146<158 193.5 158 265.5>
LayerCount: 2
Fore
SplineSet
332 -180 m 1xe8
 366 59 l 1
 336 26 283 -10 213 -10 c 0
 118 -10 48 56 48 187 c 0
 48 344 123 521 303 521 c 0
 377 521 430 490 460 433 c 1xe8
 522 511 l 1
 575 511 l 1xd8
 478 -180 l 1
 332 -180 l 1xe8
208 300 m 0
 195 207 194 198 194 189 c 0
 194 127 228 96 275 96 c 0
 330 96 376 136 388 217 c 0
 401 310 402 319 402 328 c 0
 402 390 369 421 321 421 c 0
 267 421 220 381 208 300 c 0
EndSplineSet
EndChar

StartChar: r
Encoding: 114 114 171
Width: 489
GlyphClass: 2
Flags: MW
HStem: 0 21G<29 173 29 29> 313 208<360 412.5 323 482 360 360> 412 99<101 326> 412 109<323 326>
VStem: 29 466<0 433> 364 131<348.5 433>
AnchorPoint: "Bottom" 101 0 basechar 0
LayerCount: 2
Fore
SplineSet
482 313 m 1xc4
 360 313 l 1xc4
 364 341 364 346 364 351 c 0
 364 382 349 412 303 412 c 0
 253 412 224 367 217 316 c 2x94
 173 0 l 1
 29 0 l 1
 101 511 l 1
 209 511 l 1xa8
 216 436 l 1
 222 447 275 521 371 521 c 0x94
 454 521 495 470 495 396 c 0
 495 376 486 323 482 313 c 1xc4
EndSplineSet
EndChar

StartChar: racute
Encoding: 341 341 172
Width: 489
GlyphClass: 2
Flags: MW
HStem: 0 21G<29 173 29 29> 313 208<360 412.5 323 482 360 360> 412 99<101 326> 412 109<323 326> 575 145<199 441 199 441>
VStem: 29 466<0 433> 364 131<348.5 433>
AnchorPoint: "Bottom" 101 0 basechar 0
LayerCount: 2
Fore
SplineSet
312 720 m 1x9c
 441 720 l 1
 441 716 l 1
 300 575 l 1
 199 575 l 1
 312 720 l 1x9c
482 313 m 1xca
 360 313 l 1xca
 364 341 364 346 364 351 c 0
 364 382 349 412 303 412 c 0
 253 412 224 367 217 316 c 2x9a
 173 0 l 1
 29 0 l 1
 101 511 l 1
 209 511 l 1xac
 216 436 l 1
 222 447 275 521 371 521 c 0x9a
 454 521 495 470 495 396 c 0
 495 376 486 323 482 313 c 1xca
EndSplineSet
EndChar

StartChar: rcaron
Encoding: 345 345 173
Width: 489
GlyphClass: 2
Flags: MW
HStem: 0 21G<29 173 29 29> 313 208<360 412.5 323 482 360 360> 412 99<101 326> 412 109<323 326> 575 145<111 331 111 228>
VStem: 29 466<0 433> 364 131<348.5 433>
AnchorPoint: "Bottom" 101 0 basechar 0
LayerCount: 2
Fore
SplineSet
216 720 m 1x9c
 289 637 l 1
 385 720 l 1
 489 720 l 1
 440 675 390 630 331 575 c 1
 228 575 l 1
 111 720 l 1
 216 720 l 1x9c
482 313 m 1xca
 360 313 l 1xca
 364 341 364 346 364 351 c 0
 364 382 349 412 303 412 c 0
 253 412 224 367 217 316 c 2x9a
 173 0 l 1
 29 0 l 1
 101 511 l 1
 209 511 l 1xac
 216 436 l 1
 222 447 275 521 371 521 c 0x9a
 454 521 495 470 495 396 c 0
 495 376 486 323 482 313 c 1xca
EndSplineSet
EndChar

StartChar: rcommaaccent
Encoding: 343 343 174
Width: 489
GlyphClass: 2
Flags: MW
HStem: -167 137<29 73 10 175> 0 21G<29 173 29 29> 313 208<360 412.5 323 482 360 360> 412 99<101 326> 412 109<323 326>
VStem: 10 485 364 131<348.5 433>
AnchorPoint: "Bottom" 101 0 basechar 0
LayerCount: 2
Fore
SplineSet
482 313 m 1x62
 360 313 l 1xe2
 364 341 364 346 364 351 c 0
 364 382 349 412 303 412 c 0
 253 412 224 367 217 316 c 2x4a
 173 0 l 1
 29 0 l 1
 101 511 l 1
 209 511 l 1x54
 216 436 l 1
 222 447 275 521 371 521 c 0x4a
 454 521 495 470 495 396 c 0
 495 376 486 323 482 313 c 1x62
73 -167 m 1
 10 -167 l 1
 29 -30 l 1
 175 -30 l 1
 159 -143 l 1
 119 -250 l 1
 45 -250 l 1
 73 -167 l 1
EndSplineSet
EndChar

StartChar: s
Encoding: 115 115 175
Width: 539
GlyphClass: 2
Flags: MW
HStem: -10 100<148 265 217 239> 200.78 120.03 421 100<304 320>
VStem: 12 131<124.5 131.5> 57 137<330.5 386.5 330.5 396.5> 352 140<124 189.5> 378 133<386.5 388.5>
AnchorPoint: "Bottom" 234 0 basechar 0
LayerCount: 2
Fore
SplineSet
16 163 m 1xf4
 144 163 l 1
 143 152 143 149 143 146 c 0xf4
 143 103 192 90 242 90 c 0
 288 90 352 102 352 146 c 0xec
 352 233 57 161 57 334 c 0
 57 459 180 521 304 521 c 2
 324 521 l 2
 422 521 511 473 511 397 c 0
 511 376 505 362 505 361 c 2
 377 361 l 1
 378 371 l 2xea
 378 406 346 421 294 421 c 0
 235 421 194 402 194 371 c 0xec
 194 290 492 363 492 187 c 0
 492 37 360 -10 239 -10 c 2
 206 -10 l 2
 90 -10 12 43 12 124 c 0
 12 139 15 158 16 163 c 1xf4
EndSplineSet
EndChar

StartChar: sacute
Encoding: 347 347 176
Width: 539
GlyphClass: 2
Flags: MW
HStem: -10 100<148 265 217 239> 200.78 120.03 421 100<304 320> 575 145<224 466 224 466>
VStem: 12 131<124.5 131.5> 57 137<330.5 386.5 330.5 396.5> 352 140<124 189.5> 378 133<386.5 388.5>
AnchorPoint: "Bottom" 234 0 basechar 0
LayerCount: 2
Fore
SplineSet
337 720 m 1xf6
 466 720 l 1
 466 716 l 1
 325 575 l 1
 224 575 l 1
 337 720 l 1xf6
16 163 m 1xfa
 144 163 l 1
 143 152 143 149 143 146 c 0xfa
 143 103 192 90 242 90 c 0
 288 90 352 102 352 146 c 0xf6
 352 233 57 161 57 334 c 0
 57 459 180 521 304 521 c 2
 324 521 l 2
 422 521 511 473 511 397 c 0
 511 376 505 362 505 361 c 2
 377 361 l 1
 378 371 l 2xf5
 378 406 346 421 294 421 c 0
 235 421 194 402 194 371 c 0xf6
 194 290 492 363 492 187 c 0
 492 37 360 -10 239 -10 c 2
 206 -10 l 2
 90 -10 12 43 12 124 c 0
 12 139 15 158 16 163 c 1xfa
EndSplineSet
EndChar

StartChar: scaron
Encoding: 353 353 177
Width: 541
GlyphClass: 2
Flags: MW
HStem: -10 100<148 265 217 239> 200.78 120.03 421 100<304 320> 575 145<141 361 141 258>
VStem: 12 131<124.5 131.5> 57 137<330.5 386.5 330.5 396.5> 352 140<124 189.5> 378 133<386.5 388.5>
LayerCount: 2
Fore
SplineSet
246 720 m 1xf6
 319 637 l 1
 415 720 l 1
 519 720 l 1
 470 675 420 630 361 575 c 1
 258 575 l 1
 141 720 l 1
 246 720 l 1xf6
16 163 m 1xfa
 144 163 l 1
 143 152 143 149 143 146 c 0xfa
 143 103 192 90 242 90 c 0
 288 90 352 102 352 146 c 0xf6
 352 233 57 161 57 334 c 0
 57 459 180 521 304 521 c 2
 324 521 l 2
 422 521 511 473 511 397 c 0
 511 376 505 362 505 361 c 2
 377 361 l 1
 378 371 l 2xf5
 378 406 346 421 294 421 c 0
 235 421 194 402 194 371 c 0xf6
 194 290 492 363 492 187 c 0
 492 37 360 -10 239 -10 c 2
 206 -10 l 2
 90 -10 12 43 12 124 c 0
 12 139 15 158 16 163 c 1xfa
EndSplineSet
EndChar

StartChar: scedilla
Encoding: 351 351 178
Width: 539
GlyphClass: 2
Flags: MW
HStem: -197 55<185.5 221.5 184.5 227> -68 51<209 222 202 232> -10 100<148 265 217 239> 200.78 120.03 421 100<304 320>
VStem: 12 131<124.5 131.5> 57 137<330.5 386.5 330.5 396.5> 262 75<-114.5 -89> 352 140<124 189.5> 378 133<386.5 388.5>
AnchorPoint: "Bottom" 234 0 basechar 0
LayerCount: 2
Fore
SplineSet
16 163 m 1xbc80
 144 163 l 1
 143 152 143 149 143 146 c 0xbd80
 143 103 192 90 242 90 c 0
 288 90 352 102 352 146 c 0xba80
 352 233 57 161 57 334 c 0
 57 459 180 521 304 521 c 2
 324 521 l 2
 422 521 511 473 511 397 c 0
 511 376 505 362 505 361 c 2
 377 361 l 1
 378 371 l 2xba40
 378 406 346 421 294 421 c 0
 235 421 194 402 194 371 c 0xba80
 194 290 492 363 492 187 c 0
 492 37 360 -10 239 -10 c 2
 206 -10 l 2
 90 -10 12 43 12 124 c 0
 12 139 15 158 16 163 c 1xbc80
100 -168 m 1
 128 -116 l 1
 134 -119 161 -142 208 -142 c 0
 235 -142 262 -130 262 -99 c 0
 262 -79 248 -68 222 -68 c 2
 202 -68 l 1
 209 -17 l 1
 232 -17 l 2xdb80
 284 -17 337 -32 337 -91 c 0
 337 -180 250 -197 204 -197 c 0
 167 -197 124 -187 100 -168 c 1
EndSplineSet
EndChar

StartChar: scommaaccent
Encoding: 537 537 179
Width: 539
GlyphClass: 2
Flags: MW
HStem: -167 137<162 206 143 308> -10 100<148 265 217 239> 200.78 120.03 421 100<304 320>
VStem: 12 131<124.5 131.5> 57 137<330.5 386.5 330.5 396.5> 352 140<124 189.5> 378 133<386.5 388.5>
AnchorPoint: "Bottom" 234 0 basechar 0
LayerCount: 2
Fore
SplineSet
16 163 m 1x7a
 144 163 l 1
 143 152 143 149 143 146 c 0x7a
 143 103 192 90 242 90 c 0
 288 90 352 102 352 146 c 0x76
 352 233 57 161 57 334 c 0
 57 459 180 521 304 521 c 2
 324 521 l 2
 422 521 511 473 511 397 c 0
 511 376 505 362 505 361 c 2
 377 361 l 1
 378 371 l 2x75
 378 406 346 421 294 421 c 0
 235 421 194 402 194 371 c 0x76
 194 290 492 363 492 187 c 0
 492 37 360 -10 239 -10 c 2
 206 -10 l 2
 90 -10 12 43 12 124 c 0
 12 139 15 158 16 163 c 1x7a
206 -167 m 1xf6
 143 -167 l 1
 162 -30 l 1
 308 -30 l 1
 292 -143 l 1
 252 -250 l 1
 178 -250 l 1
 206 -167 l 1xf6
EndSplineSet
EndChar

StartChar: germandbls
Encoding: 223 223 180
Width: 622
GlyphClass: 2
Flags: MW
HStem: 0 100<246 297 297 305 232 297> 331 100<293 330 279 339> 411 100<50 96 36 110> 628 100<337 390>
VStem: 425 145<197 269.5> 448 145<535.5 573.5>
LayerCount: 2
Fore
SplineSet
570 239 m 0xb8
 570 102 456 0 305 0 c 2
 232 0 l 1
 246 100 l 1
 297 100 l 2
 359 100 425 152 425 242 c 0
 425 297 385 331 330 331 c 2xd8
 279 331 l 1
 293 431 l 1
 339 431 l 2xd4
 394 431 448 480 448 549 c 0
 448 598 414 628 366 628 c 0
 308 628 266 584 258 526 c 2
 175 -66 l 1
 29 -66 l 1
 96 411 l 1
 36 411 l 1
 50 511 l 1
 110 511 l 1
 133 648 258 728 384 728 c 0
 492 728 593 679 593 574 c 0xb4
 593 497 541 420 472 393 c 1
 473 388 l 1
 532 366 570 306 570 239 c 0xb8
EndSplineSet
EndChar

StartChar: t
Encoding: 116 116 181
Width: 371
GlyphClass: 2
Flags: MW
HStem: -10 100<140.5 253.5> 411 100<47 89 33 104 249 354>
VStem: 33 335<411 511> 47 150<59 144.5>
AnchorPoint: "Bottom" 150 0 basechar 0
LayerCount: 2
Fore
SplineSet
310 103 m 1xe0
 297 9 l 1
 269 -2 216 -10 184 -10 c 0
 97 -10 47 19 47 99 c 0
 47 113 48 121 89 411 c 1
 33 411 l 1
 47 511 l 1
 104 511 l 1
 127 674 l 1
 281 674 l 1
 249 511 l 1
 368 511 l 1
 354 411 l 1
 235 411 l 1
 198 151 197 150 197 139 c 0
 197 97 221 90 246 90 c 0xd0
 261 90 293 96 310 103 c 1xe0
EndSplineSet
EndChar

StartChar: tcaron
Encoding: 357 357 182
Width: 371
GlyphClass: 2
Flags: MW
HStem: -10 21G<140.5 200> -10 100<140.5 253.5> 395 116 411 100<47 89 33 104 249 354> 539 135<127 438 127 375> 539 147<396 438 375 542>
VStem: 33 509<411 686> 47 150<59 144.5>
AnchorPoint: "Bottom" 150 0 basechar 0
LayerCount: 2
Fore
SplineSet
438 539 m 1x96
 375 539 l 1
 396 686 l 1
 542 686 l 1x56
 525 563 l 1
 459 395 l 1
 386 395 l 1xa2
 438 539 l 1x96
310 103 m 1
 297 9 l 1
 269 -2 216 -10 184 -10 c 0
 97 -10 47 19 47 99 c 0
 47 113 48 121 89 411 c 1
 33 411 l 1
 47 511 l 1
 104 511 l 1x91
 127 674 l 1
 281 674 l 1x99
 249 511 l 1
 368 511 l 1
 354 411 l 1
 235 411 l 1
 198 151 197 150 197 139 c 0
 197 97 221 90 246 90 c 0x51
 261 90 293 96 310 103 c 1
EndSplineSet
EndChar

StartChar: tcedilla
Encoding: 355 355 183
Width: 371
GlyphClass: 2
Flags: MW
HStem: -197 55<101.5 137.5 100.5 143> -68 51<125 138 118 148> -10 100<140.5 253.5> 411 100<47 89 33 104 249 354>
VStem: 47 150<59 144.5> 178 75<-114.5 -89>
AnchorPoint: "Bottom" 150 0 basechar 0
LayerCount: 2
Fore
SplineSet
310 103 m 1xb8
 297 9 l 1
 269 -2 216 -10 184 -10 c 0
 97 -10 47 19 47 99 c 0
 47 113 48 121 89 411 c 1
 33 411 l 1
 47 511 l 1
 104 511 l 1
 127 674 l 1
 281 674 l 1
 249 511 l 1
 368 511 l 1
 354 411 l 1
 235 411 l 1
 198 151 197 150 197 139 c 0
 197 97 221 90 246 90 c 0
 261 90 293 96 310 103 c 1xb8
16 -168 m 1
 44 -116 l 1
 50 -119 77 -142 124 -142 c 0
 151 -142 178 -130 178 -99 c 0
 178 -79 164 -68 138 -68 c 2
 118 -68 l 1
 125 -17 l 1
 148 -17 l 2
 200 -17 253 -32 253 -91 c 0xd4
 253 -180 166 -197 120 -197 c 0
 83 -197 40 -187 16 -168 c 1
EndSplineSet
EndChar

StartChar: tcommaaccent
Encoding: 539 539 184
Width: 371
GlyphClass: 2
Flags: MW
HStem: -167 137<78 122 59 224> -10 21G<140.5 200> -10 100<140.5 253.5> 411 100<47 89 33 104 249 354>
VStem: 33 335<411 511> 47 150<59 144.5>
AnchorPoint: "Bottom" 150 0 basechar 0
LayerCount: 2
Fore
SplineSet
310 103 m 1x38
 297 9 l 1
 269 -2 216 -10 184 -10 c 0
 97 -10 47 19 47 99 c 0
 47 113 48 121 89 411 c 1
 33 411 l 1
 47 511 l 1
 104 511 l 1
 127 674 l 1
 281 674 l 1
 249 511 l 1
 368 511 l 1
 354 411 l 1
 235 411 l 1
 198 151 197 150 197 139 c 0
 197 97 221 90 246 90 c 0x34
 261 90 293 96 310 103 c 1x38
122 -167 m 1xd4
 59 -167 l 1
 78 -30 l 1
 224 -30 l 1
 208 -143 l 1
 168 -250 l 1
 94 -250 l 1
 122 -167 l 1xd4
EndSplineSet
EndChar

StartChar: u
Encoding: 117 117 185
Width: 612
GlyphClass: 2
Flags: MW
HStem: -10 100<441 544.5> -10 106<161.5 293.5> 491 20G<100 246 246 246 421 567 567 567>
VStem: 48 151<79 174.5>
LayerCount: 2
Fore
SplineSet
421 511 m 1x70
 567 511 l 1
 512 118 511 119 511 114 c 0
 511 96 525 90 537 90 c 0
 552 90 573 98 579 101 c 1xb0
 567 11 l 1
 559 7 526 -10 476 -10 c 0
 406 -10 374 18 370 63 c 1
 332 25 278 -10 206 -10 c 0
 117 -10 48 33 48 125 c 0
 48 142 48 144 100 511 c 1
 246 511 l 1
 199 181 199 179 199 170 c 0
 199 119 226 96 268 96 c 0
 319 96 369 140 377 197 c 2
 421 511 l 1x70
EndSplineSet
EndChar

StartChar: uacute
Encoding: 250 250 186
Width: 611
GlyphClass: 2
Flags: MW
HStem: -10 100<441 544.5> -10 106<161.5 293.5> 491 20G<100 246 246 246 421 567 567 567> 575 145<292 534 292 534>
VStem: 48 151<79 174.5>
LayerCount: 2
Fore
SplineSet
405 720 m 1x78
 534 720 l 1
 534 716 l 1
 393 575 l 1
 292 575 l 1
 405 720 l 1x78
421 511 m 1
 567 511 l 1
 512 118 511 119 511 114 c 0
 511 96 525 90 537 90 c 0
 552 90 573 98 579 101 c 1xb8
 567 11 l 1
 559 7 526 -10 476 -10 c 0
 406 -10 374 18 370 63 c 1
 332 25 278 -10 206 -10 c 0
 117 -10 48 33 48 125 c 0
 48 142 48 144 100 511 c 1
 246 511 l 1
 199 181 199 179 199 170 c 0
 199 119 226 96 268 96 c 0
 319 96 369 140 377 197 c 2
 421 511 l 1
EndSplineSet
EndChar

StartChar: ucircumflex
Encoding: 251 251 187
Width: 611
GlyphClass: 2
Flags: MW
HStem: -10 100<441 544.5> -10 106<161.5 293.5> 491 20G<100 246 246 246 421 567 567 567> 575 145<147 409 306 525 306 420>
VStem: 48 151<79 174.5>
LayerCount: 2
Fore
SplineSet
306 720 m 1x78
 409 720 l 1
 447 672 486 623 525 575 c 1
 420 575 l 1
 348 658 l 1
 251 575 l 1
 147 575 l 1
 306 720 l 1x78
421 511 m 1
 567 511 l 1
 512 118 511 119 511 114 c 0
 511 96 525 90 537 90 c 0
 552 90 573 98 579 101 c 1xb8
 567 11 l 1
 559 7 526 -10 476 -10 c 0
 406 -10 374 18 370 63 c 1
 332 25 278 -10 206 -10 c 0
 117 -10 48 33 48 125 c 0
 48 142 48 144 100 511 c 1
 246 511 l 1
 199 181 199 179 199 170 c 0
 199 119 226 96 268 96 c 0
 319 96 369 140 377 197 c 2
 421 511 l 1
EndSplineSet
EndChar

StartChar: udieresis
Encoding: 252 252 188
Width: 611
GlyphClass: 2
Flags: MW
HStem: -10 100<441 544.5> -10 106<161.5 293.5> 491 20G<100 246 246 246 421 567 567 567> 598 122<194 298 177 315 194 381 398 502>
VStem: 48 151<79 174.5>
LayerCount: 2
Fore
SplineSet
315 720 m 1x78
 298 598 l 1
 177 598 l 1
 194 720 l 1
 315 720 l 1x78
519 720 m 1
 502 598 l 1
 381 598 l 1
 398 720 l 1
 519 720 l 1
421 511 m 1
 567 511 l 1
 512 118 511 119 511 114 c 0
 511 96 525 90 537 90 c 0
 552 90 573 98 579 101 c 1xb8
 567 11 l 1
 559 7 526 -10 476 -10 c 0
 406 -10 374 18 370 63 c 1
 332 25 278 -10 206 -10 c 0
 117 -10 48 33 48 125 c 0
 48 142 48 144 100 511 c 1
 246 511 l 1
 199 181 199 179 199 170 c 0
 199 119 226 96 268 96 c 0
 319 96 369 140 377 197 c 2
 421 511 l 1
EndSplineSet
EndChar

StartChar: ugrave
Encoding: 249 249 189
Width: 611
GlyphClass: 2
Flags: MW
HStem: -10 100<441 544.5> -10 106<161.5 293.5> 491 20G<100 246 246 246 421 567 567 567> 575 145<285 315 187 387 285 285>
VStem: 48 151<79 174.5>
LayerCount: 2
Fore
SplineSet
185 717 m 1x78
 187 720 l 1
 315 720 l 1
 387 575 l 1
 285 575 l 1
 185 717 l 1x78
421 511 m 1
 567 511 l 1
 512 118 511 119 511 114 c 0
 511 96 525 90 537 90 c 0
 552 90 573 98 579 101 c 1xb8
 567 11 l 1
 559 7 526 -10 476 -10 c 0
 406 -10 374 18 370 63 c 1
 332 25 278 -10 206 -10 c 0
 117 -10 48 33 48 125 c 0
 48 142 48 144 100 511 c 1
 246 511 l 1
 199 181 199 179 199 170 c 0
 199 119 226 96 268 96 c 0
 319 96 369 140 377 197 c 2
 421 511 l 1
EndSplineSet
EndChar

StartChar: uhungarumlaut
Encoding: 369 369 190
Width: 612
GlyphClass: 2
Flags: MW
HStem: -10 100<441 544.5> -10 106<161.5 293.5> 491 20G<100 246 246 246 421 567 567 567> 575 145<154 396 154 396 345 345 345 396 268 447>
VStem: 48 151<79 174.5>
LayerCount: 2
Fore
SplineSet
268 720 m 1x78
 396 720 l 1
 397 717 l 1
 256 575 l 1
 154 575 l 1
 268 720 l 1x78
459 720 m 1
 587 720 l 1
 588 717 l 1
 447 575 l 1
 345 575 l 1
 459 720 l 1
421 511 m 1
 567 511 l 1
 512 118 511 119 511 114 c 0
 511 96 525 90 537 90 c 0
 552 90 573 98 579 101 c 1xb8
 567 11 l 1
 559 7 526 -10 476 -10 c 0
 406 -10 374 18 370 63 c 1
 332 25 278 -10 206 -10 c 0
 117 -10 48 33 48 125 c 0
 48 142 48 144 100 511 c 1
 246 511 l 1
 199 181 199 179 199 170 c 0
 199 119 226 96 268 96 c 0
 319 96 369 140 377 197 c 2
 421 511 l 1
EndSplineSet
EndChar

StartChar: umacron
Encoding: 363 363 191
Width: 612
GlyphClass: 2
Flags: MW
HStem: -10 100<441 544.5> -10 106<161.5 293.5> 491 20G<100 246 246 246 421 567 567 567> 662 74<215 522 204 533>
VStem: 48 151<79 174.5>
LayerCount: 2
Fore
SplineSet
215 736 m 1x78
 533 736 l 1
 522 662 l 1
 204 662 l 1
 215 736 l 1x78
421 511 m 1
 567 511 l 1
 512 118 511 119 511 114 c 0
 511 96 525 90 537 90 c 0
 552 90 573 98 579 101 c 1xb8
 567 11 l 1
 559 7 526 -10 476 -10 c 0
 406 -10 374 18 370 63 c 1
 332 25 278 -10 206 -10 c 0
 117 -10 48 33 48 125 c 0
 48 142 48 144 100 511 c 1
 246 511 l 1
 199 181 199 179 199 170 c 0
 199 119 226 96 268 96 c 0
 319 96 369 140 377 197 c 2
 421 511 l 1
EndSplineSet
EndChar

StartChar: uogonek
Encoding: 371 371 192
Width: 612
GlyphClass: 2
Flags: MW
HStem: -143 50<486.5 489.5> -10 106<161.5 293.5> -7 21G 491 20G<100 246 246 246 421 567 567 567>
VStem: 48 151<79 174.5> 386 71<-75 -66>
LayerCount: 2
Fore
SplineSet
496 -93 m 0xbc
 520 -93 543 -87 565 -79 c 1
 573 -119 l 1
 542 -135 506 -143 473 -143 c 0
 430 -143 386 -129 386 -83 c 0
 386 -49 412 -25 440 -7 c 1xbc
 395 1 373 27 370 63 c 1
 332 25 278 -10 206 -10 c 0
 117 -10 48 33 48 125 c 0
 48 142 48 144 100 511 c 1
 246 511 l 1
 199 181 199 179 199 170 c 0
 199 119 226 96 268 96 c 0xdc
 319 96 369 140 377 197 c 2
 421 511 l 1
 567 511 l 1
 512 118 511 119 511 114 c 0
 511 96 525 90 537 90 c 0
 552 90 573 98 579 101 c 1
 567 11 l 1
 560 8 535 -5 497 -9 c 1
 477 -22 457 -41 457 -64 c 0
 457 -86 477 -93 496 -93 c 0xbc
EndSplineSet
EndChar

StartChar: uring
Encoding: 367 367 193
Width: 612
GlyphClass: 2
Flags: MW
HStem: -10 100<441 544.5> -10 106<161.5 293.5> 491 20G<100 246 246 246 421 567 567 567> 545 53<344.5 369.5 344.5 381> 693 53<351.5 377.5>
VStem: 48 151<79 174.5> 259 56<629 656 629 666.5> 408 55<633.5 661.5>
LayerCount: 2
Fore
SplineSet
463 656 m 0x7f
 463 594 411 545 351 545 c 0
 298 545 259 583 259 635 c 0
 259 698 313 746 372 746 c 0
 424 746 463 708 463 656 c 0x7f
357 598 m 0
 382 598 408 618 408 649 c 0
 408 674 390 693 365 693 c 0
 338 693 315 671 315 641 c 0
 315 617 332 598 357 598 c 0
421 511 m 1
 567 511 l 1
 512 118 511 119 511 114 c 0
 511 96 525 90 537 90 c 0
 552 90 573 98 579 101 c 1xbf
 567 11 l 1
 559 7 526 -10 476 -10 c 0
 406 -10 374 18 370 63 c 1
 332 25 278 -10 206 -10 c 0
 117 -10 48 33 48 125 c 0
 48 142 48 144 100 511 c 1
 246 511 l 1
 199 181 199 179 199 170 c 0
 199 119 226 96 268 96 c 0
 319 96 369 140 377 197 c 2
 421 511 l 1
EndSplineSet
EndChar

StartChar: v
Encoding: 118 118 194
Width: 536
GlyphClass: 2
Flags: MW
HStem: 0 21G<149 149 149 314> 0 169<149 264 259 264 259 314> 491 20G<41 196 196 196 423 565 565 565>
VStem: 41 524<511 511>
LayerCount: 2
Fore
SplineSet
149 0 m 1xb0
 41 511 l 1
 196 511 l 1
 259 169 l 1
 264 169 l 1x70
 423 511 l 1
 565 511 l 1
 314 0 l 1
 149 0 l 1xb0
EndSplineSet
EndChar

StartChar: w
Encoding: 119 119 195
Width: 820
GlyphClass: 2
Flags: MW
HStem: 0 21G<126 289 126 126 461 461 461 622> 0 195<236 242 236 289 126 242 568 574> 491 20G<41 192 192 192 377 523 523 523 707 849 849 849>
VStem: 41 808<511 511>
LayerCount: 2
Fore
SplineSet
289 0 m 1xb0
 126 0 l 1
 41 511 l 1
 192 511 l 1
 208 405 222 300 236 195 c 1
 242 195 l 1
 287 300 333 405 377 511 c 1
 523 511 l 1
 539 405 553 300 568 195 c 1
 574 195 l 1x70
 619 300 664 405 707 511 c 1
 849 511 l 1
 622 0 l 1
 461 0 l 1
 417 285 l 1
 411 285 l 1
 289 0 l 1xb0
EndSplineSet
EndChar

StartChar: x
Encoding: 120 120 196
Width: 553
GlyphClass: 2
Flags: MW
HStem: 0 21G<-29 128 -29 -29 341 510 341 341> 491 20G<55 225 225 225 413 571 571 571>
VStem: -29 600<0 511>
LayerCount: 2
Fore
SplineSet
186 264 m 1
 55 511 l 1
 225 511 l 1
 250 462 272 413 296 365 c 1
 300 365 l 1
 339 413 376 462 413 511 c 1
 571 511 l 1
 370 265 l 1
 510 0 l 1
 341 0 l 1
 260 165 l 1
 256 165 l 1
 128 0 l 1
 -29 0 l 1
 186 264 l 1
EndSplineSet
EndChar

StartChar: y
Encoding: 121 121 197
Width: 536
GlyphClass: 2
Flags: MW
HStem: -187 104<61 94.5 61 131.5> 491 20G<55 210 210 210 435 579 579 579>
VStem: -5 584
LayerCount: 2
Fore
SplineSet
579 511 m 1
 329 28 l 2
 267 -92 186 -187 77 -187 c 0
 42 -187 14 -182 -5 -172 c 1
 8 -69 l 1
 21 -75 49 -83 73 -83 c 0
 116 -83 150 -53 177 10 c 1
 55 511 l 1
 210 511 l 1
 277 190 l 1
 283 190 l 1
 435 511 l 1
 579 511 l 1
EndSplineSet
EndChar

StartChar: yacute
Encoding: 253 253 198
Width: 545
GlyphClass: 2
Flags: MW
HStem: -187 104<65 98.5 65 135.5> 491 20G<59 214 214 214 439 583 583 583> 575 145<280 522 280 522>
VStem: -1 584
LayerCount: 2
Fore
SplineSet
393 720 m 1
 522 720 l 1
 522 716 l 1
 381 575 l 1
 280 575 l 1
 393 720 l 1
583 511 m 1
 333 28 l 2
 271 -92 190 -187 81 -187 c 0
 46 -187 18 -182 -1 -172 c 1
 12 -69 l 1
 25 -75 53 -83 77 -83 c 0
 120 -83 154 -53 181 10 c 1
 59 511 l 1
 214 511 l 1
 281 190 l 1
 287 190 l 1
 439 511 l 1
 583 511 l 1
EndSplineSet
EndChar

StartChar: ydieresis
Encoding: 255 255 199
Width: 545
GlyphClass: 2
Flags: MW
HStem: -187 104<65 98.5 65 135.5> 491 20G<59 214 214 214 439 583 583 583> 598 122<180 284 163 301 180 367 384 488>
VStem: -1 584
LayerCount: 2
Fore
SplineSet
301 720 m 1
 284 598 l 1
 163 598 l 1
 180 720 l 1
 301 720 l 1
505 720 m 1
 488 598 l 1
 367 598 l 1
 384 720 l 1
 505 720 l 1
583 511 m 1
 333 28 l 2
 271 -92 190 -187 81 -187 c 0
 46 -187 18 -182 -1 -172 c 1
 12 -69 l 1
 25 -75 53 -83 77 -83 c 0
 120 -83 154 -53 181 10 c 1
 59 511 l 1
 214 511 l 1
 281 190 l 1
 287 190 l 1
 439 511 l 1
 583 511 l 1
EndSplineSet
EndChar

StartChar: z
Encoding: 122 122 200
Width: 486
GlyphClass: 2
Flags: MW
HStem: 0 100<206 419> 411 100<84 275 70 482>
VStem: 0 482
LayerCount: 2
Fore
SplineSet
7 50 m 1
 275 411 l 1
 70 411 l 1
 84 511 l 1
 482 511 l 1
 476 462 l 1
 206 100 l 1
 433 100 l 1
 419 0 l 1
 0 0 l 1
 7 50 l 1
EndSplineSet
EndChar

StartChar: zacute
Encoding: 378 378 201
Width: 486
GlyphClass: 2
Flags: MW
HStem: 0 100<206 419> 411 100<84 275 70 482> 575 145<197 439 197 439>
VStem: 0 482
LayerCount: 2
Fore
SplineSet
310 720 m 1
 439 720 l 1
 439 716 l 1
 298 575 l 1
 197 575 l 1
 310 720 l 1
7 50 m 1
 275 411 l 1
 70 411 l 1
 84 511 l 1
 482 511 l 1
 476 462 l 1
 206 100 l 1
 433 100 l 1
 419 0 l 1
 0 0 l 1
 7 50 l 1
EndSplineSet
EndChar

StartChar: zcaron
Encoding: 382 382 202
Width: 486
GlyphClass: 2
Flags: MW
HStem: 0 100<206 419> 411 100<84 275 70 482> 575 145<109 329 109 226>
VStem: 0 487
LayerCount: 2
Fore
SplineSet
214 720 m 1
 287 637 l 1
 383 720 l 1
 487 720 l 1
 438 675 388 630 329 575 c 1
 226 575 l 1
 109 720 l 1
 214 720 l 1
7 50 m 1
 275 411 l 1
 70 411 l 1
 84 511 l 1
 482 511 l 1
 476 462 l 1
 206 100 l 1
 433 100 l 1
 419 0 l 1
 0 0 l 1
 7 50 l 1
EndSplineSet
EndChar

StartChar: zdotaccent
Encoding: 380 380 203
Width: 486
GlyphClass: 2
Flags: MW
HStem: 0 100<206 419> 411 100<84 275 70 482> 604 132<288.5 311.5>
VStem: 235 133<658.5 679.5>
LayerCount: 2
Fore
SplineSet
368 678 m 0
 368 639 333 604 290 604 c 0
 259 604 235 628 235 659 c 0
 235 700 267 736 310 736 c 0
 344 736 368 710 368 678 c 0
7 50 m 1
 275 411 l 1
 70 411 l 1
 84 511 l 1
 482 511 l 1
 476 462 l 1
 206 100 l 1
 433 100 l 1
 419 0 l 1
 0 0 l 1
 7 50 l 1
EndSplineSet
EndChar

StartChar: fi
Encoding: 64257 64257 204
Width: 641
GlyphClass: 3
Flags: MW
HStem: -185 20 0 21G<378 524 378 378> 411 100<44 91 31 105 251 356> 605 115<478 610 462 626> 630 98<296 305 242 333>
VStem: -108 734 109.5 141.5
LayerCount: 2
Fore
SplineSet
397 707 m 1xec
 385 618 l 1
 370 623 341 630 325 630 c 0
 267 630 259 591 251 511 c 1
 371 511 l 1
 356 411 l 1
 237 411 l 1
 218 276 198 133 180 -1 c 0
 163 -132 94 -185 -9 -185 c 0
 -41 -185 -85 -178 -108 -165 c 1
 -96 -74 l 1
 -81 -81 -52 -87 -36 -87 c 0
 0 -87 23 -70 30 -21 c 0
 49 121 70 270 91 411 c 1
 31 411 l 1
 44 511 l 1
 105 511 l 1
 114 574 l 2xea
 130 685 194 728 290 728 c 0
 320 728 371 721 397 707 c 1xec
626 720 m 1xf4
 610 605 l 1
 462 605 l 1
 478 720 l 1
 626 720 l 1xf4
450 511 m 1
 596 511 l 1
 524 0 l 1
 378 0 l 1
 450 511 l 1
EndSplineSet
Ligature2: "'liga' Standard Ligatures lookup 4 subtable" f i
EndChar

StartChar: fl
Encoding: 64258 64258 205
Width: 642
GlyphClass: 3
Flags: MW
HStem: -185 20 0 21G<378 524 378 378> 411 100<44 91 31 105 251 356> 630 98<296 305 242 333>
VStem: -108 733 109.5 141.5
LayerCount: 2
Fore
SplineSet
397 707 m 1xf8
 385 618 l 1
 370 623 341 630 325 630 c 0
 267 630 259 591 251 511 c 1
 371 511 l 1
 356 411 l 1
 237 411 l 1
 218 276 198 133 180 -1 c 0
 163 -132 94 -185 -9 -185 c 0
 -41 -185 -85 -178 -108 -165 c 1
 -96 -74 l 1
 -81 -81 -52 -87 -36 -87 c 0
 0 -87 23 -70 30 -21 c 0
 49 121 70 270 91 411 c 1
 31 411 l 1
 44 511 l 1
 105 511 l 1
 114 574 l 2xf4
 130 685 194 728 290 728 c 0
 320 728 371 721 397 707 c 1xf8
479 720 m 1
 625 720 l 1
 524 0 l 1
 378 0 l 1
 479 720 l 1
EndSplineSet
Ligature2: "'liga' Standard Ligatures lookup 4 subtable" f l
EndChar

StartChar: ordfeminine
Encoding: 170 170 206
Width: 389
GlyphClass: 2
Flags: MW
HStem: 374 61<144 145.5> 632 64<169.5 186.5 122.5 200.5> 670 20G<276 341 341 341>
VStem: 22 87<472 493.5 472 550.5> 222 123
LayerCount: 2
Fore
SplineSet
276 690 m 1xb0
 341 690 l 1xb8
 333 635 308 460 308 451 c 0
 308 441 314 435 324 435 c 0
 332 435 343 439 349 443 c 1
 341 387 l 1
 328 380 307 374 286 374 c 0
 245 374 225 390 222 420 c 1
 198 393 165 374 126 374 c 0
 58 374 22 420 22 496 c 0
 22 605 77 696 168 696 c 0
 205 696 236 679 252 652 c 1
 256 652 l 1xd8
 276 690 l 1xb0
227 508 m 0
 235 564 236 570 236 575 c 0
 236 613 215 632 186 632 c 0
 153 632 125 607 118 558 c 0xd0
 110 502 109 496 109 491 c 0
 109 453 129 435 159 435 c 0
 191 435 220 459 227 508 c 0
EndSplineSet
EndChar

StartChar: ordmasculine
Encoding: 186 186 207
Width: 367
GlyphClass: 2
Flags: MW
HStem: 373 61<153.5 157 157 167> 635 61<202 212 212 215.5>
VStem: 25 88<474 496 474 558> 256 88<573 595>
LayerCount: 2
Fore
SplineSet
344 570 m 0
 344 458 282 373 167 373 c 2
 157 373 l 2
 79 373 25 419 25 499 c 0
 25 617 92 696 202 696 c 2
 212 696 l 2
 289 696 344 650 344 570 c 0
248 510 m 0
 255 565 256 571 256 575 c 0
 256 615 232 635 199 635 c 0
 161 635 128 610 121 559 c 0
 114 504 113 498 113 494 c 0
 113 454 137 434 170 434 c 0
 207 434 241 459 248 510 c 0
EndSplineSet
EndChar

StartChar: Delta
Encoding: 916 916 208
Width: 673
GlyphClass: 2
Flags: MW
HStem: 0 92<141 487 141 590> 561 125<380 380> 666 20G<337 458 458 458>
VStem: 12 589<0 79>
LayerCount: 2
Fore
SplineSet
337 686 m 1xb0
 458 686 l 1
 601 79 l 1
 590 0 l 1
 12 0 l 1
 23 79 l 1
 337 686 l 1xb0
487 92 m 1
 380 561 l 1xd0
 141 92 l 1
 487 92 l 1
EndSplineSet
Position2: "'cpsp' Capital Spacing lookup 0 subtable" dx=5 dy=0 dh=10 dv=0
EndChar

StartChar: Omega
Encoding: 937 937 209
Width: 724
GlyphClass: 2
Flags: MW
HStem: 0 111 0 126<4 27 4 272 -12 27 632 638> 574 120<392 428 428 433.5>
VStem: 52 152<161.5 395> 512 164<430.5 484>
LayerCount: 2
Fore
SplineSet
676 442 m 0x78
 676 293 637 197 532 111 c 1xb8
 566 116 599 120 632 126 c 1
 655 126 l 1
 638 0 l 1
 354 0 l 1
 363 67 l 1
 453 91 478 166 495 289 c 0
 511 402 512 422 512 439 c 0
 512 529 474 574 393 574 c 0
 287 574 242 505 225 381 c 0
 207 254 204 223 204 195 c 0
 204 128 223 84 281 67 c 1
 272 0 l 1
 -12 0 l 1
 4 126 l 1
 27 126 l 1x78
 59 121 88 116 124 111 c 1xb8
 79 157 52 216 52 293 c 0
 52 497 163 694 392 694 c 2
 428 694 l 2
 570 694 676 604 676 442 c 0x78
EndSplineSet
Position2: "'cpsp' Capital Spacing lookup 0 subtable" dx=5 dy=0 dh=10 dv=0
EndChar

StartChar: mu
Encoding: 956 956 210
Width: 610
GlyphClass: 2
Flags: MW
HStem: -10 100<451 555.5> -10 106<209 303.5> -3 21G 491 20G<111 257 257 257 432 578 578 578>
VStem: 16 574<-161 101>
LayerCount: 2
Fore
SplineSet
432 511 m 1x38
 578 511 l 1
 523 118 522 116 522 114 c 0
 522 96 536 90 548 90 c 0
 563 90 584 98 590 101 c 1x98
 577 11 l 1
 570 7 536 -10 486 -10 c 0
 416 -10 384 18 381 63 c 1
 342 25 288 -10 216 -10 c 0x58
 202 -10 188 -8 175 -3 c 1
 177 -12 178 -23 178 -35 c 0
 178 -42 178 -49 177 -57 c 2x38
 162 -161 l 1
 16 -161 l 1
 111 511 l 1
 257 511 l 1
 210 180 210 179 210 170 c 0
 210 126 236 96 278 96 c 0x58
 329 96 380 140 388 197 c 2
 432 511 l 1x38
EndSplineSet
EndChar

StartChar: pi
Encoding: 960 960 211
Width: 679
GlyphClass: 2
Flags: MW
HStem: 0 21G<43 182 43 43 406 544 406 406> 411 100<141.5 695 309 445 309 309 587 669 587 587>
VStem: 399 143<38 58>
LayerCount: 2
Fore
SplineSet
587 411 m 1
 552 158 l 2
 546 112 542 76 542 48 c 0
 542 28 543 12 544 0 c 1
 406 0 l 1
 401 8 399 23 399 45 c 0
 399 71 402 107 408 148 c 2
 445 411 l 1
 309 411 l 1
 287 290 229 83 182 0 c 1
 43 0 l 1
 93 103 151 295 169 411 c 1
 114 411 79 408 52 400 c 1
 48 478 l 1
 78 499 137 511 238 511 c 2
 695 511 l 1
 669 411 l 1
 587 411 l 1
EndSplineSet
EndChar

StartChar: zero
Encoding: 48 48 212
Width: 612
Flags: MW
HStem: -10 117<180 307 243.5 270> 579 117<340 369 369 371.5>
VStem: 32 148<171.5 209.5 171.5 210> 431 146<481.5 510>
LayerCount: 2
Fore
SplineSet
543 230 m 0
 524 94 422 -10 270 -10 c 2
 241 -10 l 2
 119 -10 32 76 32 194 c 0
 32 226 47 324 66 455 c 0
 86 598 199 696 340 696 c 2
 369 696 l 2
 491 696 577 608 577 489 c 0
 577 444 561 360 543 230 c 0
393 214 m 0
 414 360 431 473 431 490 c 0
 431 530 404 579 339 579 c 0
 263 579 227 535 214 450 c 0
 193 310 180 221 180 198 c 0
 180 145 216 107 271 107 c 0
 343 107 385 154 393 214 c 0
EndSplineSet
EndChar

StartChar: one
Encoding: 49 49 213
Width: 612
Flags: MW
HStem: 0 121<48 214 361 507 31 214> 514 89<115 115 115 269 102 115> 671 20G<388 441 441 441>
VStem: 31 493<0 121>
LayerCount: 2
Fore
SplineSet
48 121 m 1
 214 121 l 1
 269 514 l 1
 102 514 l 1
 115 603 l 1
 193 609 301 646 388 691 c 1
 441 691 l 1
 361 121 l 1
 524 121 l 1
 507 0 l 1
 31 0 l 1
 48 121 l 1
EndSplineSet
Substitution2: "'sups' Superscript lookup 1 subtable" onesuperior
Substitution2: "'aalt' Access All Alternates lookup 0 subtable" onesuperior
EndChar

StartChar: two
Encoding: 50 50 214
Width: 612
Flags: MW
HStem: 0 129<226 513> 574 122<298 365>
VStem: 74 138<445 482.5> 426 151<403 515>
LayerCount: 2
Fore
SplineSet
577 502 m 0
 577 287 272 198 226 129 c 1
 530 129 l 1
 513 0 l 1
 10 0 l 1
 10 274 426 314 426 492 c 0
 426 538 395 574 335 574 c 0
 261 574 212 520 212 445 c 1
 74 445 l 1
 75 459 79 696 359 696 c 0
 512 696 577 603 577 502 c 0
EndSplineSet
Substitution2: "'sups' Superscript lookup 1 subtable" twosuperior
Substitution2: "'aalt' Access All Alternates lookup 0 subtable" twosuperior
EndChar

StartChar: three
Encoding: 51 51 215
Width: 612
Flags: MW
HStem: -10 119<223 236 236 263> 296 107<220 277 205 303> 577 119<342 351.5>
VStem: 13 139<159.5 168> 395 147<182.5 253 147 254.5> 418 151<490 529.5>
LayerCount: 2
Fore
SplineSet
18 205 m 1xf8
 154 205 l 1
 152 194 152 189 152 184 c 0
 152 135 188 109 258 109 c 0
 338 109 395 144 395 221 c 0xf8
 395 288 335 296 277 296 c 2
 205 296 l 1
 220 403 l 1
 303 403 l 2
 362 403 418 437 418 505 c 0
 418 554 379 577 324 577 c 0
 267 577 217 546 208 488 c 1
 75 488 l 1
 83 616 201 696 342 696 c 2
 362 696 l 2
 486 696 569 628 569 534 c 0xf4
 569 446 513 388 445 359 c 1
 444 354 l 1
 505 333 542 288 542 218 c 0
 542 76 416 -10 263 -10 c 2
 236 -10 l 2
 89 -10 13 61 13 160 c 0
 13 176 16 195 18 205 c 1xf8
EndSplineSet
Substitution2: "'sups' Superscript lookup 1 subtable" threesuperior
Substitution2: "'aalt' Access All Alternates lookup 0 subtable" threesuperior
EndChar

StartChar: four
Encoding: 52 52 216
Width: 612
Flags: MW
HStem: 0 21G<286 429 286 286> 160 118<135 308 468 543> 676 20G<266 407 407 407>
VStem: 6 554<160 278>
LayerCount: 2
Fore
SplineSet
325 278 m 1
 346 428 l 1
 388 480 429 559 451 612 c 1
 515 612 l 1
 468 278 l 1
 560 278 l 1
 543 160 l 1
 451 160 l 1
 429 0 l 1
 286 0 l 1
 308 160 l 1
 6 160 l 1
 23 279 l 1
 107 388 213 570 266 696 c 1
 407 696 l 1
 354 551 203 347 135 278 c 1
 325 278 l 1
EndSplineSet
EndChar

StartChar: five
Encoding: 53 53 217
Width: 612
Flags: MW
HStem: -10 121<240 248 248 263> 339 114<274 420 301 420> 556 130<250 547 250 250>
VStem: 29 138<176 191.5> 398 149<198.5 270.5>
LayerCount: 2
Fore
SplineSet
152 686 m 1
 565 686 l 1
 547 556 l 1
 250 556 l 1
 217 405 l 1
 238 420 290 453 357 453 c 0
 483 453 547 375 547 267 c 0
 547 100 429 -10 263 -10 c 2
 248 -10 l 2
 109 -10 29 75 29 186 c 0
 29 197 29 208 31 219 c 1
 168 219 l 1
 167 214 167 210 167 205 c 0
 167 147 214 111 266 111 c 0
 330 111 398 151 398 246 c 0
 398 295 360 339 305 339 c 2
 301 339 l 2
 247 339 212 311 190 287 c 1
 71 305 l 1
 152 686 l 1
EndSplineSet
EndChar

StartChar: six
Encoding: 54 54 218
Width: 612
Flags: MW
HStem: -10 114<247 250 250 264> 332 102<326 332> 576 120<346 360 360 367>
VStem: 33 146<165.5 194.5 165.5 202> 400 146<241.5 270> 427 140<502 510.5>
LayerCount: 2
Fore
SplineSet
339 576 m 0xf4
 280 576 225 531 217 472 c 2
 203 375 l 1
 245 414 301 434 351 434 c 0
 463 434 546 368 546 258 c 0xf8
 546 94 421 -10 264 -10 c 2
 250 -10 l 2
 125 -10 33 70 33 194 c 0
 33 210 34 218 67 455 c 0
 86 591 210 696 346 696 c 2
 360 696 l 2
 479 696 567 629 567 508 c 0
 567 496 566 483 564 469 c 1
 426 469 l 1
 427 475 427 480 427 486 c 0
 427 535 395 576 339 576 c 0xf4
397 208 m 0xf8
 400 233 400 239 400 244 c 0
 400 296 360 332 304 332 c 0
 247 332 188 289 182 228 c 0
 179 202 179 197 179 192 c 0
 179 139 219 104 275 104 c 0
 332 104 391 147 397 208 c 0xf8
EndSplineSet
EndChar

StartChar: seven
Encoding: 55 55 219
Width: 612
Flags: MW
HStem: 0 21G<105 273 105 105> 555 131<114 420 95 610>
VStem: 95 515<555 686>
LayerCount: 2
Fore
SplineSet
610 686 m 1
 600 614 l 1
 462 464 310 267 280 55 c 0
 279 45 274 12 273 0 c 1
 105 0 l 1
 135 213 287 411 420 555 c 1
 95 555 l 1
 114 686 l 1
 610 686 l 1
EndSplineSet
EndChar

StartChar: eight
Encoding: 56 56 220
Width: 612
Flags: MW
HStem: -10 110<244 308 244 339> 300 99<287.5 326> 586 110<307.5 365.5>
VStem: 27 150<153.5 209.5> 93 137<452.5 506.5 452.5 540.5> 394 147<185 246> 423 139<479.5 532>
LayerCount: 2
Fore
SplineSet
453 352 m 1xec
 452 348 l 1xec
 505 318 541 283 541 216 c 0
 541 72 422 -10 256 -10 c 0
 118 -10 27 50 27 157 c 0xf4
 27 262 86 312 160 348 c 1
 161 352 l 1
 122 380 93 410 93 468 c 0
 93 613 213 696 355 696 c 0
 476 696 562 636 562 529 c 0xea
 562 430 509 387 453 352 c 1xec
340 586 m 0xea
 275 586 230 539 230 474 c 0
 230 431 262 399 313 399 c 0
 379 399 423 447 423 511 c 0
 423 553 391 586 340 586 c 0xea
299 300 m 0xf4
 226 300 177 251 177 178 c 0
 177 129 217 100 271 100 c 0
 345 100 394 149 394 221 c 0
 394 271 353 300 299 300 c 0xf4
EndSplineSet
EndChar

StartChar: nine
Encoding: 57 57 221
Width: 612
Flags: MW
HStem: -10 120<244 251 251 265> 252 102<279 285> 582 114<347 361 361 364>
VStem: 44 140<175.5 184> 65 146<416 444.5 416 510> 432 146<491.5 520.5>
LayerCount: 2
Fore
SplineSet
272 110 m 0xf4
 331 110 386 155 394 214 c 2
 408 311 l 1
 366 272 310 252 260 252 c 0
 148 252 65 318 65 428 c 0xec
 65 592 190 696 347 696 c 2
 361 696 l 2
 486 696 578 616 578 492 c 0
 578 476 577 468 544 231 c 0
 525 95 401 -10 265 -10 c 2
 251 -10 l 2
 132 -10 44 57 44 178 c 0
 44 190 45 203 47 217 c 1
 185 217 l 1
 184 211 184 206 184 200 c 0
 184 151 216 110 272 110 c 0xf4
214 478 m 0xec
 211 453 211 447 211 442 c 0
 211 390 251 354 307 354 c 0
 364 354 423 397 429 458 c 0
 432 484 432 489 432 494 c 0
 432 547 392 582 336 582 c 0
 279 582 220 539 214 478 c 0xec
EndSplineSet
EndChar

StartChar: fraction
Encoding: 8260 8260 222
Width: 194
Flags: MW
HStem: 0 21G<-199 -199 -199 -125> 666 20G<317 388 388 388>
VStem: -199 587
LayerCount: 2
Fore
SplineSet
-199 0 m 1
 317 686 l 1
 388 686 l 1
 -125 0 l 1
 -199 0 l 1
EndSplineSet
EndChar

StartChar: onehalf
Encoding: 189 189 223
Width: 765
Flags: MW
HStem: -1 71<520 678> 306 66<32 123 204 284 22 123> 315 67<559.5 596.5> 588 49<68 68 68 153 61 68> 665 20G<219 248 248 248> 666 20G<607 676 676 676>
VStem: 436 76<244 249> 630 83<221 282.5>
LayerCount: 2
Fore
SplineSet
90 0 m 1xd7
 607 686 l 1
 676 686 l 1
 162 0 l 1
 90 0 l 1xd7
32 372 m 1
 123 372 l 1
 153 588 l 1
 61 588 l 1
 68 637 l 1
 111 640 170 661 219 685 c 1
 248 685 l 1xdb
 204 372 l 1
 294 372 l 1
 284 306 l 1
 22 306 l 1
 32 372 l 1
713 275 m 0
 713 157 545 108 520 70 c 1
 687 70 l 1
 678 -1 l 1
 401 -1 l 1
 401 150 630 172 630 270 c 0
 630 295 613 315 580 315 c 0
 539 315 512 285 512 244 c 1
 436 244 l 1
 436 254 439 382 593 382 c 0xb7
 677 382 713 331 713 275 c 0
EndSplineSet
Ligature2: "'frac' Diagonal Fractions lookup 2 subtable" one slash two
EndChar

StartChar: onequarter
Encoding: 188 188 224
Width: 745
Flags: MW
HStem: 0 153<537 537 537 559> 88 65<393 393 455 550 384 393 637 679> 306 66<32 123 204 284 22 123> 588 49<68 68 68 153 61 68> 665 20G<219 248 248 248> 666 20G<615 684 684 684>
VStem: 22 666<153 306>
LayerCount: 2
Fore
SplineSet
98 0 m 1xb6
 615 686 l 1
 684 686 l 1
 170 0 l 1
 98 0 l 1xb6
32 372 m 1
 123 372 l 1
 153 588 l 1
 61 588 l 1
 68 637 l 1
 111 640 170 661 219 685 c 1
 248 685 l 1xba
 204 372 l 1
 294 372 l 1
 284 306 l 1
 22 306 l 1
 32 372 l 1
559 153 m 1
 570 235 l 1
 593 264 616 307 628 336 c 1
 663 336 l 1
 637 153 l 1
 688 153 l 1xb6
 679 88 l 1
 628 88 l 1x76
 615 0 l 1
 537 0 l 1xb6
 550 88 l 1
 384 88 l 1
 393 153 l 1x76
 439 213 497 313 527 382 c 1
 604 382 l 1
 575 303 492 190 455 153 c 1
 559 153 l 1
EndSplineSet
Ligature2: "'frac' Diagonal Fractions lookup 2 subtable" one slash four
EndChar

StartChar: threequarters
Encoding: 190 190 225
Width: 755
Flags: MW
HStem: 0 153<537 537 537 559> 88 65<393 393 455 549 383 393 637 678> 301 65<160.5 168 168 182> 469 59<159 190 151 204> 624 65<226 231> 666 20G<617 686 686 686>
VStem: 45 76<394.5 398.5> 255 81<407 445.5 387 446.5> 268 83<576 597.5>
LayerCount: 2
Fore
SplineSet
48 419 m 1xbb
 122 419 l 1
 121 413 121 410 121 408 c 0
 121 381 141 366 180 366 c 0
 224 366 255 386 255 428 c 0
 255 465 222 469 190 469 c 2xb7
 151 469 l 1
 159 528 l 1
 204 528 l 2
 237 528 268 547 268 584 c 0
 268 611 246 624 216 624 c 0
 185 624 157 607 152 575 c 1
 79 575 l 1
 83 645 148 689 226 689 c 2
 237 689 l 2
 305 689 351 652 351 600 c 0xba80
 351 552 320 521 282 505 c 1
 282 500 l 1
 315 489 336 465 336 426 c 0
 336 348 266 301 182 301 c 2
 168 301 l 2
 87 301 45 340 45 394 c 0
 45 403 47 414 48 419 c 1xbb
101 0 m 1
 617 686 l 1
 686 686 l 1
 173 0 l 1
 101 0 l 1
559 153 m 1
 570 235 l 1
 593 264 616 307 627 336 c 1
 662 336 l 1
 637 153 l 1
 688 153 l 1xbb
 678 88 l 1
 627 88 l 1x7b
 615 0 l 1
 537 0 l 1xbb
 549 88 l 1
 383 88 l 1
 393 153 l 1x7b
 439 213 497 313 527 382 c 1
 604 382 l 1
 575 303 492 190 455 153 c 1
 559 153 l 1
EndSplineSet
Ligature2: "'frac' Diagonal Fractions lookup 2 subtable" three slash four
EndChar

StartChar: onesuperior
Encoding: 185 185 226
Width: 319
Flags: MW
HStem: 422 65<22 112 192 262 13 112> 700 48<59 59 59 142 52 59>
VStem: 13 258<422 487>
LayerCount: 2
Fore
SplineSet
22 487 m 1
 112 487 l 1
 142 700 l 1
 52 700 l 1
 59 748 l 1
 101 751 159 772 207 796 c 1
 236 796 l 1
 192 487 l 1
 271 487 l 1
 262 422 l 1
 13 422 l 1
 22 487 l 1
EndSplineSet
EndChar

StartChar: twosuperior
Encoding: 178 178 227
Width: 505
Flags: MW
HStem: 419 71<133 291> 735 67<172.5 209.5>
VStem: 49 76<664 669> 243 83<641 702.5>
LayerCount: 2
Fore
SplineSet
326 695 m 0
 326 577 158 528 133 490 c 1
 300 490 l 1
 291 419 l 1
 14 419 l 1
 14 570 243 592 243 690 c 0
 243 715 226 735 193 735 c 0
 152 735 125 705 125 664 c 1
 49 664 l 1
 49 674 52 802 206 802 c 0
 290 802 326 751 326 695 c 0
EndSplineSet
EndChar

StartChar: threesuperior
Encoding: 179 179 228
Width: 506
Flags: MW
HStem: 412 65<137.5 145 145 159> 580 59<136 167 128 181> 735 65<203 208>
VStem: 22 76<505.5 509.5> 232 81<518 556.5 498 557.5> 245 83<687 708.5>
LayerCount: 2
Fore
SplineSet
25 530 m 1xf8
 99 530 l 1
 98 524 98 521 98 519 c 0
 98 492 118 477 157 477 c 0
 201 477 232 497 232 539 c 0
 232 576 199 580 167 580 c 2xf8
 128 580 l 1
 136 639 l 1
 181 639 l 2
 214 639 245 658 245 695 c 0
 245 722 223 735 193 735 c 0
 162 735 134 718 129 686 c 1
 56 686 l 1
 60 756 125 800 203 800 c 2
 214 800 l 2
 282 800 328 763 328 711 c 0xf4
 328 663 297 632 259 616 c 1
 259 611 l 1
 292 600 313 576 313 537 c 0
 313 459 243 412 159 412 c 2
 145 412 l 2
 64 412 22 451 22 505 c 0
 22 514 24 525 25 530 c 1xf8
EndSplineSet
EndChar

StartChar: asterisk
Encoding: 42 42 229
Width: 583
Flags: MW
HStem: 666 20G<270 369 369 369>
VStem: 76 433<494 496>
LayerCount: 2
Fore
SplineSet
434 339 m 1
 344 279 l 1
 279 417 l 1
 178 280 l 1
 104 339 l 1
 226 458 l 1
 76 496 l 1
 121 589 l 1
 261 526 l 1
 270 686 l 1
 369 686 l 1
 332 526 l 1
 493 588 l 1
 509 494 l 1
 346 458 l 1
 434 339 l 1
EndSplineSet
EndChar

StartChar: backslash
Encoding: 92 92 230
Width: 560
Flags: MW
HStem: 666 20G<49 155 155 155>
VStem: 49 475
LayerCount: 2
Fore
SplineSet
155 686 m 1
 524 -171 l 1
 417 -171 l 1
 49 686 l 1
 155 686 l 1
EndSplineSet
EndChar

StartChar: periodcentered
Encoding: 183 183 231
Width: 277
Flags: MW
HStem: 214 148<75 200 54 221>
VStem: 54 167<214 362>
LayerCount: 2
Fore
SplineSet
221 362 m 1
 200 214 l 1
 54 214 l 1
 75 362 l 1
 221 362 l 1
EndSplineSet
EndChar

StartChar: bullet
Encoding: 8226 8226 232
Width: 544
Flags: MW
HStem: 181 324<242 297>
VStem: 108 325<313 369>
LayerCount: 2
Fore
SplineSet
433 365 m 0
 433 261 347 181 247 181 c 0
 166 181 108 241 108 319 c 0
 108 419 191 505 293 505 c 0
 374 505 433 444 433 365 c 0
EndSplineSet
EndChar

StartChar: colon
Encoding: 58 58 233
Width: 277
Flags: MW
HStem: 0 147<49 175 29 195> 363 148<100 226 80 246>
VStem: 29 217
LayerCount: 2
Fore
SplineSet
246 511 m 1
 226 363 l 1
 80 363 l 1
 100 511 l 1
 246 511 l 1
195 147 m 1
 175 0 l 1
 29 0 l 1
 49 147 l 1
 195 147 l 1
EndSplineSet
EndChar

StartChar: comma
Encoding: 44 44 234
Width: 277
Flags: MW
HStem: 0 147<85 127 64 231>
VStem: 64 167<0 147>
LayerCount: 2
Fore
SplineSet
127 0 m 1
 64 0 l 1
 85 147 l 1
 231 147 l 1
 214 24 l 1
 148 -144 l 1
 75 -144 l 1
 127 0 l 1
EndSplineSet
EndChar

StartChar: ellipsis
Encoding: 8230 8230 235
Width: 874
Flags: MW
HStem: 0 147<83 209 62 230 83 353 374 499 664 789>
VStem: 62 748<0 147>
LayerCount: 2
Fore
SplineSet
230 147 m 1
 209 0 l 1
 62 0 l 1
 83 147 l 1
 230 147 l 1
520 147 m 1
 499 0 l 1
 353 0 l 1
 374 147 l 1
 520 147 l 1
810 147 m 1
 789 0 l 1
 643 0 l 1
 664 147 l 1
 810 147 l 1
EndSplineSet
EndChar

StartChar: exclam
Encoding: 33 33 236
Width: 290
Flags: MW
HStem: 0 147<44 169 23 190> 666 20G<104 281 281 281>
VStem: 23 258
LayerCount: 2
Fore
SplineSet
281 686 m 1
 172 202 l 1
 75 202 l 1
 104 686 l 1
 281 686 l 1
190 147 m 1
 169 0 l 1
 23 0 l 1
 44 147 l 1
 190 147 l 1
EndSplineSet
EndChar

StartChar: exclamdown
Encoding: 161 161 237
Width: 290
Flags: MW
HStem: 364 147<99 266 120 245>
VStem: 8 258
LayerCount: 2
Fore
SplineSet
99 364 m 1
 120 511 l 1
 266 511 l 1
 245 364 l 1
 99 364 l 1
8 -175 m 1
 117 309 l 1
 214 309 l 1
 185 -175 l 1
 8 -175 l 1
EndSplineSet
EndChar

StartChar: numbersign
Encoding: 35 35 238
Width: 600
Flags: MW
HStem: 0 21G<20 117 20 20 247 343 247 247> 172 92<-8 82 -21 116 -8 309 -8 178 440 537> 402 92<65 166 52 198 520 605> 676 20G<271 368 368 368 498 594 594 594>
VStem: -21 639<172 494>
LayerCount: 2
Fore
SplineSet
65 494 m 1
 198 494 l 1
 222 561 247 628 271 696 c 1
 368 696 l 1
 344 628 319 561 295 494 c 1
 425 494 l 1
 449 561 474 628 498 696 c 1
 594 696 l 1
 570 628 545 561 520 494 c 1
 618 494 l 1
 605 402 l 1
 489 402 l 1
 440 264 l 1
 550 264 l 1
 537 172 l 1
 405 172 l 1
 385 115 364 57 343 0 c 1
 247 0 l 1
 268 57 289 115 309 172 c 1
 178 172 l 1
 117 0 l 1
 20 0 l 1
 82 172 l 1
 -21 172 l 1
 -8 264 l 1
 116 264 l 1
 166 402 l 1
 52 402 l 1
 65 494 l 1
343 263 m 1
 393 401 l 1
 261 401 l 1
 212 263 l 1
 343 263 l 1
EndSplineSet
EndChar

StartChar: period
Encoding: 46 46 239
Width: 277
Flags: MW
HStem: 0 147<75 200 54 221>
VStem: 54 167<0 147>
LayerCount: 2
Fore
SplineSet
221 147 m 1
 200 0 l 1
 54 0 l 1
 75 147 l 1
 221 147 l 1
EndSplineSet
EndChar

StartChar: question
Encoding: 63 63 240
Width: 572
Flags: MW
HStem: 0 147<186 314 166 334> 582 114<318 329>
VStem: 52 141<452 525.5> 383 155<504 523>
LayerCount: 2
Fore
SplineSet
198 201 m 1
 207 263 l 2
 221 362 382 393 383 504 c 0
 383 542 356 582 302 582 c 0
 217 582 195 515 193 452 c 1
 52 452 l 1
 52 599 165 696 318 696 c 2
 340 696 l 2
 473 696 538 605 538 516 c 0
 538 337 348 310 338 237 c 2
 333 201 l 1
 198 201 l 1
314 0 m 1
 166 0 l 1
 173 49 180 98 186 147 c 1
 334 147 l 1
 327 98 320 49 314 0 c 1
EndSplineSet
EndChar

StartChar: questiondown
Encoding: 191 191 241
Width: 572
Flags: MW
HStem: -185 114<172.5 309.5 240 251> 364 147<255 383 235 403>
VStem: 31 155<-12 7 -12 84.5> 376 141<-14.5 59>
LayerCount: 2
Fore
SplineSet
255 511 m 1
 403 511 l 1
 396 462 389 413 383 364 c 1
 235 364 l 1
 242 413 249 462 255 511 c 1
371 310 m 1
 362 248 l 2
 348 149 187 118 186 7 c 0
 186 -31 213 -71 267 -71 c 0
 352 -71 374 -4 376 59 c 1
 517 59 l 1
 517 -88 404 -185 251 -185 c 2
 239 -185 l 2
 106 -185 31 -94 31 -5 c 0
 31 174 221 201 231 274 c 2
 236 310 l 1
 371 310 l 1
EndSplineSet
EndChar

StartChar: quotedbl
Encoding: 34 34 242
Width: 461
Flags: MW
HStem: 401 285<102 145 95 220 102 273 280 323> 666 20G<102 220 220 220 280 399 399 399>
VStem: 81 318<539 686>
LayerCount: 2
Fore
SplineSet
102 686 m 1x60
 220 686 l 1
 199 539 l 1
 181 492 164 447 145 401 c 1
 95 401 l 1xa0
 81 539 l 1
 102 686 l 1x60
323 401 m 1
 273 401 l 1
 269 447 264 492 259 539 c 1
 280 686 l 1
 399 686 l 1
 378 539 l 1
 359 492 341 447 323 401 c 1
EndSplineSet
EndChar

StartChar: quotesingle
Encoding: 39 39 243
Width: 272
Flags: MW
HStem: 666 20G<96 215 215 215>
VStem: 75 140
LayerCount: 2
Fore
SplineSet
139 401 m 1
 89 401 l 1
 85 447 80 492 75 539 c 1
 96 686 l 1
 215 686 l 1
 194 539 l 1
 175 492 158 447 139 401 c 1
EndSplineSet
EndChar

StartChar: semicolon
Encoding: 59 59 244
Width: 277
Flags: MW
HStem: 0 147<59 102 39 205> 363 148<111 236 90 257>
VStem: 39 218
LayerCount: 2
Fore
SplineSet
257 511 m 1
 236 363 l 1
 90 363 l 1
 111 511 l 1
 257 511 l 1
122 -144 m 1
 49 -144 l 1
 66 -96 84 -48 102 0 c 1
 39 0 l 1
 59 147 l 1
 205 147 l 1
 188 24 l 1
 122 -144 l 1
EndSplineSet
EndChar

StartChar: slash
Encoding: 47 47 245
Width: 564
Flags: MW
HStem: 666 20G<465 570 570 570>
VStem: -25 595
LayerCount: 2
Fore
SplineSet
-25 -171 m 1
 465 686 l 1
 570 686 l 1
 81 -171 l 1
 -25 -171 l 1
EndSplineSet
EndChar

StartChar: underscore
Encoding: 95 95 246
Width: 500
Flags: MW
HStem: -126 61<4 495 -4 504>
VStem: -4 508<-126 -65>
LayerCount: 2
Fore
SplineSet
4 -65 m 1
 504 -65 l 1
 495 -126 l 1
 -4 -126 l 1
 4 -65 l 1
EndSplineSet
EndChar

StartChar: braceleft
Encoding: 123 123 247
Width: 347
Flags: MW
HStem: -159 59<234 247> 224 79<45 53> 627 59<334.5 358>
VStem: 73 114<-66 -51.5> 103 103<168 189>
LayerCount: 2
Fore
SplineSet
34 224 m 1xe8
 45 303 l 1
 80 303 124 319 130 360 c 2
 158 560 l 2
 174 678 283 686 366 686 c 1
 358 627 l 1
 311 627 280 618 267 545 c 2
 236 371 l 2
 224 306 192 268 126 268 c 1
 125 259 l 1
 183 259 206 229 206 178 c 0xe8
 206 119 187 17 187 -39 c 0
 187 -93 213 -100 255 -100 c 1
 247 -159 l 1
 172 -159 73 -153 73 -57 c 0xb0
 73 -46 74 -42 103 168 c 1
 103 210 72 224 34 224 c 1xe8
EndSplineSet
EndChar

StartChar: braceright
Encoding: 125 125 248
Width: 347
Flags: MW
HStem: -159 59<-13 10.5 -13 20.5> 224 79<292 300> 627 59<98 111>
VStem: 139 103<338 359 338 378.5> 158 114<578.5 593>
LayerCount: 2
Fore
SplineSet
311 303 m 1xf0
 300 224 l 1
 265 224 221 208 215 167 c 2
 187 -33 l 2
 171 -151 62 -159 -21 -159 c 1
 -13 -100 l 1
 34 -100 65 -91 78 -18 c 2
 109 156 l 2
 121 221 153 259 219 259 c 1
 220 268 l 1
 162 268 139 298 139 349 c 0xf0
 139 408 158 510 158 566 c 0
 158 620 132 627 90 627 c 1
 98 686 l 1
 173 686 272 680 272 584 c 0xa8
 272 573 271 569 242 359 c 1
 242 317 273 303 311 303 c 1xf0
EndSplineSet
EndChar

StartChar: bracketleft
Encoding: 91 91 249
Width: 338
Flags: MW
HStem: -161 69<127 205> 617 69<226 314 226 226>
VStem: 2 322
LayerCount: 2
Fore
SplineSet
121 686 m 1
 324 686 l 1
 314 617 l 1
 226 617 l 1
 127 -92 l 1
 215 -92 l 1
 205 -161 l 1
 2 -161 l 1
 121 686 l 1
EndSplineSet
EndChar

StartChar: bracketright
Encoding: 93 93 250
Width: 338
Flags: MW
HStem: -161 69<21 109 21 214 11 109> 617 69<130 208 120 333>
VStem: 11 322
LayerCount: 2
Fore
SplineSet
21 -92 m 1
 109 -92 l 1
 208 617 l 1
 120 617 l 1
 130 686 l 1
 333 686 l 1
 214 -161 l 1
 11 -161 l 1
 21 -92 l 1
EndSplineSet
EndChar

StartChar: parenleft
Encoding: 40 40 251
Width: 326
Flags: MW
HStem: 666 20G<253 333 333 333>
VStem: 28 119<114 257 106.5 272>
LayerCount: 2
Fore
SplineSet
28 176 m 0
 28 368 114 546 253 686 c 1
 333 686 l 1
 223 536 147 350 147 164 c 0
 147 49 173 -68 214 -157 c 1
 134 -157 l 1
 65 -64 28 52 28 176 c 0
EndSplineSet
EndChar

StartChar: parenright
Encoding: 41 41 252
Width: 326
Flags: MW
HStem: 666 20G<105 184 184 184>
VStem: 171 119<268 412.5 257.5 418.5>
LayerCount: 2
Fore
SplineSet
290 351 m 0
 290 164 204 -18 65 -157 c 1
 -14 -157 l 1
 94 -10 171 175 171 361 c 0
 171 476 146 596 105 686 c 1
 184 686 l 1
 254 592 290 474 290 351 c 0
EndSplineSet
EndChar

StartChar: emdash
Encoding: 8212 8212 253
Width: 911
Flags: MW
HStem: 209 126<8 901 -8 918>
VStem: -8 926<209 335>
LayerCount: 2
Fore
SplineSet
8 335 m 1
 918 335 l 1
 901 209 l 1
 -8 209 l 1
 8 335 l 1
EndSplineSet
EndChar

StartChar: endash
Encoding: 8211 8211 254
Width: 500
Flags: MW
HStem: 209 127<8 491 -8 508>
VStem: -8 516<209 336>
LayerCount: 2
Fore
SplineSet
8 336 m 1
 508 336 l 1
 491 209 l 1
 -8 209 l 1
 8 336 l 1
EndSplineSet
EndChar

StartChar: hyphen
Encoding: 45 45 255
Width: 260
Flags: MW
HStem: 208 128<8 244 -8 261>
VStem: -8 269<208 336>
LayerCount: 2
Fore
SplineSet
261 336 m 1
 244 208 l 1
 -8 208 l 1
 8 336 l 1
 261 336 l 1
EndSplineSet
EndChar

StartChar: softhyphen
Encoding: 173 173 256
Width: 260
Flags: MW
HStem: 208 128<8 244 -8 261>
VStem: -8 269<208 336>
LayerCount: 2
Fore
SplineSet
261 336 m 1
 244 208 l 1
 -8 208 l 1
 8 336 l 1
 261 336 l 1
EndSplineSet
EndChar

StartChar: guillemetleft
Encoding: 171 171 257
Width: 459
Flags: MW
HStem: 337 174<47 254 141 254 228 228 192 323>
VStem: 47 389<337 511>
LayerCount: 2
Fore
SplineSet
47 337 m 1
 192 511 l 1
 254 511 l 1
 141 337 l 1
 205 163 l 1
 143 163 l 1
 47 337 l 1
228 337 m 1
 374 511 l 1
 436 511 l 1
 323 337 l 1
 387 163 l 1
 325 163 l 1
 228 337 l 1
EndSplineSet
EndChar

StartChar: guillemetright
Encoding: 187 187 258
Width: 459
Flags: MW
HStem: 337 174<71 136 71 231>
VStem: 22 390<163 337>
LayerCount: 2
Fore
SplineSet
136 337 m 1
 71 511 l 1
 133 511 l 1
 231 337 l 1
 84 163 l 1
 22 163 l 1
 136 337 l 1
318 337 m 1
 253 511 l 1
 315 511 l 1
 412 337 l 1
 266 163 l 1
 204 163 l 1
 318 337 l 1
EndSplineSet
EndChar

StartChar: guilsinglleft
Encoding: 8249 8249 259
Width: 277
Flags: MW
HStem: 491 20G<192 254 254 254>
VStem: 47 207<337 511>
LayerCount: 2
Fore
SplineSet
47 337 m 1
 192 511 l 1
 254 511 l 1
 141 337 l 1
 205 163 l 1
 143 163 l 1
 47 337 l 1
EndSplineSet
EndChar

StartChar: guilsinglright
Encoding: 8250 8250 260
Width: 277
Flags: MW
HStem: 491 20G<71 133 133 133>
VStem: 22 208<163 337>
LayerCount: 2
Fore
SplineSet
136 337 m 1
 71 511 l 1
 133 511 l 1
 230 337 l 1
 84 163 l 1
 22 163 l 1
 136 337 l 1
EndSplineSet
EndChar

StartChar: quotedblbase
Encoding: 8222 8222 261
Width: 472
Flags: MW
HStem: 0 147<85 127 64 231 85 259 280 322>
VStem: 64 362<0 147>
LayerCount: 2
Fore
SplineSet
127 0 m 1
 64 0 l 1
 85 147 l 1
 231 147 l 1
 214 24 l 1
 148 -144 l 1
 75 -144 l 1
 127 0 l 1
322 0 m 1
 259 0 l 1
 280 147 l 1
 426 147 l 1
 409 24 l 1
 343 -144 l 1
 270 -144 l 1
 322 0 l 1
EndSplineSet
EndChar

StartChar: quotedblleft
Encoding: 8220 8220 262
Width: 472
Flags: MW
HStem: 395 147<148 190 44 211 148 239 343 385> 666 20G<127 200 200 200 322 395 395 395>
VStem: 44 362<395 542>
LayerCount: 2
Fore
SplineSet
148 542 m 1
 211 542 l 1
 190 395 l 1
 44 395 l 1
 61 518 l 1
 127 686 l 1
 200 686 l 1
 148 542 l 1
343 542 m 1
 406 542 l 1
 385 395 l 1
 239 395 l 1
 256 518 l 1
 322 686 l 1
 395 686 l 1
 343 542 l 1
EndSplineSet
EndChar

StartChar: quotedblright
Encoding: 8221 8221 263
Width: 472
Flags: MW
HStem: 539 147<85 127 64 231 85 259 280 322>
VStem: 64 362<539 686>
LayerCount: 2
Fore
SplineSet
127 539 m 1
 64 539 l 1
 85 686 l 1
 231 686 l 1
 214 563 l 1
 148 395 l 1
 75 395 l 1
 127 539 l 1
322 539 m 1
 259 539 l 1
 280 686 l 1
 426 686 l 1
 409 563 l 1
 343 395 l 1
 270 395 l 1
 322 539 l 1
EndSplineSet
EndChar

StartChar: quoteleft
Encoding: 8216 8216 264
Width: 277
Flags: MW
HStem: 395 147<148 190 44 211> 666 20G<127 200 200 200>
VStem: 44 167<395 542>
LayerCount: 2
Fore
SplineSet
148 542 m 1
 211 542 l 1
 190 395 l 1
 44 395 l 1
 61 518 l 1
 127 686 l 1
 200 686 l 1
 148 542 l 1
EndSplineSet
EndChar

StartChar: quoteright
Encoding: 8217 8217 265
Width: 277
Flags: MW
HStem: 539 147<85 127 64 231>
VStem: 64 167<539 686>
LayerCount: 2
Fore
SplineSet
127 539 m 1
 64 539 l 1
 85 686 l 1
 231 686 l 1
 214 563 l 1
 148 395 l 1
 75 395 l 1
 127 539 l 1
EndSplineSet
EndChar

StartChar: quotesinglbase
Encoding: 8218 8218 266
Width: 277
Flags: MW
HStem: 0 147<85 127 64 231>
VStem: 64 167<0 147>
LayerCount: 2
Fore
SplineSet
127 0 m 1
 64 0 l 1
 85 147 l 1
 231 147 l 1
 214 24 l 1
 148 -144 l 1
 75 -144 l 1
 127 0 l 1
EndSplineSet
EndChar

StartChar: cent
Encoding: 162 162 269
Width: 571
Flags: MW
HStem: -8 184<238.5 293 192 295> 77 99<216 295 293 293> 507 99<282 366> 507 186<291 339.5>
VStem: 38 146<242.5 273 242.5 354.5> 390 145<421.5 446>
LayerCount: 2
Fore
SplineSet
198 382 m 0x9c
 185 285 184 277 184 269 c 0
 184 216 212 176 265 176 c 0x9c
 325 176 369 213 380 289 c 1
 518 289 l 1
 498 152 399 86 293 77 c 1x5c
 293 -8 l 1
 192 -8 l 1x9c
 216 77 l 1
 105 89 38 160 38 278 c 0
 38 431 114 587 291 605 c 1
 291 693 l 1
 392 693 l 1x5c
 366 606 l 1xac
 461 597 535 534 535 427 c 0
 535 416 535 405 533 393 c 1
 388 393 l 1
 389 402 390 411 390 420 c 0
 390 472 366 507 313 507 c 0
 251 507 207 451 198 382 c 0x9c
EndSplineSet
EndChar

StartChar: currency
Encoding: 164 164 270
Width: 663
Flags: MW
HStem: 90 89<268 323.5> 496 90<337 391.5>
VStem: 78 96<280.5 334.5> 485 95<342.5 397.5 342.5 399.5>
LayerCount: 2
Fore
SplineSet
78 302 m 0
 78 367 103 433 150 483 c 1
 104 538 l 1
 166 593 l 1
 213 539 l 1
 253 567 310 586 364 586 c 0
 421 586 472 567 502 539 c 1
 566 595 l 1
 582 575 598 556 615 537 c 1
 553 482 l 1
 570 455 580 418 580 377 c 0
 580 308 554 239 510 192 c 1
 525 173 542 155 557 137 c 1
 496 83 l 1
 476 104 461 122 447 139 c 1
 407 108 352 90 295 90 c 0
 239 90 189 107 156 137 c 1
 135 119 114 101 93 82 c 1
 46 137 l 1
 110 192 l 1
 89 222 78 259 78 302 c 0
352 496 m 0
 260 496 174 411 174 315 c 0
 174 238 229 179 307 179 c 0
 403 179 485 265 485 362 c 0
 485 437 431 496 352 496 c 0
EndSplineSet
EndChar

StartChar: dollar
Encoding: 36 36 271
Width: 586
Flags: MW
HStem: 20 117 560 198<293 357>
VStem: 14 137<186 193> 67 146<440 511 440 519.5> 382 150<194 266> 419 135<512 514>
LayerCount: 2
Fore
SplineSet
551 476 m 1xd4
 417 476 l 1
 417 476 419 489 419 495 c 0xd4
 419 533 386 560 328 560 c 0
 256 560 213 530 213 492 c 0xd8
 213 388 532 449 532 256 c 0
 532 98 412 28 278 20 c 1
 278 -8 278 -37 279 -66 c 1
 178 -66 l 1
 203 21 l 1
 96 30 14 79 14 185 c 0
 14 201 17 229 20 236 c 1
 155 236 l 1
 155 230 151 217 151 208 c 0xe8
 151 164 185 137 253 137 c 0
 351 137 382 175 382 213 c 0xd8
 382 319 67 254 67 454 c 0
 67 585 170 657 294 671 c 1
 294 700 294 729 293 758 c 1
 394 758 l 1
 385 729 377 701 369 672 c 1
 475 665 554 616 554 517 c 0
 554 507 554 497 551 476 c 1xd4
EndSplineSet
EndChar

StartChar: euro
Encoding: 8364 8364 272
Width: 582
Flags: MW
HStem: -8 126<394.5 412.5> 231 79<25 109 25 109 14 109 265 429 265 265> 371 78<45 118 34 140 293 449> 567 125<446 497.5 411.5 499>
VStem: 14 573<231 679>
LayerCount: 2
Fore
SplineSet
45 449 m 1
 140 449 l 1
 203 620 347 692 476 692 c 0
 519 692 557 686 587 679 c 1
 569 554 l 1
 548 560 516 567 482 567 c 0
 410 567 335 530 293 449 c 1
 460 449 l 1
 449 371 l 1
 265 371 l 1
 262 363 261 353 260 342 c 0
 258 330 256 320 256 310 c 1
 440 310 l 1
 429 231 l 1
 265 231 l 1
 289 150 358 118 431 118 c 0
 459 118 487 127 511 137 c 1
 493 8 l 1
 463 0 430 -8 395 -8 c 0
 266 -8 127 45 109 231 c 1
 14 231 l 1
 25 310 l 1
 109 310 l 1
 118 371 l 1
 34 371 l 1
 45 449 l 1
EndSplineSet
EndChar

StartChar: florin
Encoding: 402 402 273
Width: 381
Flags: MW
HStem: -185 20 411 100<58 105 45 119 265 370> 630 98<310 319 256 347>
VStem: -94 505 123.5 141.5
LayerCount: 2
Fore
SplineSet
411 707 m 1xf0
 399 618 l 1
 384 623 355 630 339 630 c 0
 281 630 273 591 265 511 c 1
 385 511 l 1
 370 411 l 1
 251 411 l 1
 232 276 212 133 194 -1 c 0
 177 -132 108 -185 5 -185 c 0
 -27 -185 -71 -178 -94 -165 c 1
 -82 -74 l 1
 -67 -81 -38 -87 -22 -87 c 0
 14 -87 37 -70 44 -21 c 0
 63 121 84 270 105 411 c 1
 45 411 l 1
 58 511 l 1
 119 511 l 1
 128 574 l 2xe8
 144 685 208 728 304 728 c 0
 334 728 385 721 411 707 c 1xf0
EndSplineSet
EndChar

StartChar: sterling
Encoding: 163 163 274
Width: 654
Flags: MW
HStem: 0 118<6 83 212 488 -10 83> 279 118<12 106 -3 122 270 396> 579 119<355 401>
VStem: 450 150<518 527>
LayerCount: 2
Fore
SplineSet
122 397 m 1
 133 476 l 2
 152 613 259 698 397 698 c 0
 515 698 600 633 600 527 c 0
 600 509 600 507 596 478 c 1
 447 478 l 1
 450 502 450 503 450 508 c 0
 450 546 422 579 380 579 c 0
 330 579 292 546 285 499 c 2
 270 397 l 1
 412 397 l 1
 396 279 l 1
 254 279 l 1
 212 118 l 1
 505 118 l 1
 488 0 l 1
 -10 0 l 1
 6 118 l 1
 83 118 l 1
 106 279 l 1
 -3 279 l 1
 12 397 l 1
 122 397 l 1
EndSplineSet
EndChar

StartChar: yen
Encoding: 165 165 275
Width: 642
Flags: MW
HStem: 0 21G<196 349 196 196> 231 79<44 214 44 229 33 214 419 582> 370 78<63 156 63 188 52 156 514 601> 666 20G<58 232 232 232 522 680 680 680>
VStem: 33 647<231 686>
LayerCount: 2
Fore
SplineSet
156 448 m 1
 58 686 l 1
 232 686 l 1
 266 595 301 504 336 414 c 1
 340 414 l 1
 401 504 462 595 522 686 c 1
 680 686 l 1
 514 448 l 1
 612 448 l 1
 601 370 l 1
 460 370 l 1
 419 310 l 1
 593 310 l 1
 582 231 l 1
 382 231 l 1
 349 0 l 1
 196 0 l 1
 229 231 l 1
 33 231 l 1
 44 310 l 1
 214 310 l 1
 206 330 197 350 188 370 c 1
 52 370 l 1
 63 448 l 1
 156 448 l 1
EndSplineSet
EndChar

StartChar: Ohm
Encoding: 8486 8486 276
Width: 724
Flags: MW
HStem: 0 111 0 126<4 27 4 272 -12 27 632 638> 574 120<392 428 428 433.5>
VStem: 52 152<161.5 395> 512 164<430.5 484>
LayerCount: 2
Fore
SplineSet
676 442 m 0x78
 676 293 637 197 532 111 c 1xb8
 566 116 599 120 632 126 c 1
 655 126 l 1
 638 0 l 1
 354 0 l 1
 363 67 l 1
 453 91 478 166 495 289 c 0
 511 402 512 422 512 439 c 0
 512 529 474 574 393 574 c 0
 287 574 242 505 225 381 c 0
 207 254 204 223 204 195 c 0
 204 128 223 84 281 67 c 1
 272 0 l 1
 -12 0 l 1
 4 126 l 1
 27 126 l 1x78
 59 121 88 116 124 111 c 1xb8
 79 157 52 216 52 293 c 0
 52 497 163 694 392 694 c 2
 428 694 l 2
 570 694 676 604 676 442 c 0x78
EndSplineSet
EndChar

StartChar: approxequal
Encoding: 8776 8776 277
Width: 714
Flags: MW
HStem: 65 105<419 495.5> 131 105<186.5 264> 280 105<449 526.5> 346 105<217.5 294>
VStem: 46 621<53 463>
LayerCount: 2
Fore
SplineSet
667 463 m 1x68
 653 358 l 1
 653 358 574 280 479 280 c 0xa8
 394 280 338 346 250 346 c 0
 155 346 76 268 76 268 c 1
 91 373 l 1
 91 373 170 451 265 451 c 0x58
 350 451 405 385 493 385 c 0
 588 385 667 463 667 463 c 1x68
637 248 m 1
 622 143 l 1
 622 143 543 65 448 65 c 0xa8
 363 65 308 131 220 131 c 0
 125 131 46 53 46 53 c 1
 60 158 l 1
 60 158 139 236 234 236 c 0x68
 319 236 375 170 463 170 c 0
 558 170 637 248 637 248 c 1
EndSplineSet
EndChar

StartChar: asciitilde
Encoding: 126 126 278
Width: 714
Flags: MW
HStem: 212 106<434 510.5> 278 106<202.5 279>
VStem: 61 591<200 396>
LayerCount: 2
Fore
SplineSet
652 396 m 1xa0
 637 290 l 1
 637 290 558 212 463 212 c 0xa0
 378 212 323 278 235 278 c 0
 140 278 61 200 61 200 c 1
 76 306 l 1
 76 306 155 384 250 384 c 0x60
 335 384 390 318 478 318 c 0
 573 318 652 396 652 396 c 1xa0
EndSplineSet
EndChar

StartChar: bulletoperator
Encoding: 8729 8729 279
Width: 277
Flags: MW
HStem: 214 148<75 200 54 221>
VStem: 54 167<214 362>
LayerCount: 2
Fore
SplineSet
221 362 m 1
 200 214 l 1
 54 214 l 1
 75 362 l 1
 221 362 l 1
EndSplineSet
EndChar

StartChar: divide
Encoding: 247 247 280
Width: 600
Flags: MW
HStem: 34 108<231 321 216 336> 203 106<51 548 36 563> 369 109<279 368 263 384>
VStem: 36 527<203 309>
LayerCount: 2
Fore
SplineSet
384 478 m 1
 368 369 l 1
 263 369 l 1
 279 478 l 1
 384 478 l 1
51 309 m 1
 563 309 l 1
 548 203 l 1
 36 203 l 1
 51 309 l 1
336 142 m 1
 321 34 l 1
 216 34 l 1
 231 142 l 1
 336 142 l 1
EndSplineSet
EndChar

StartChar: divisionslash
Encoding: 8725 8725 281
Width: 194
Flags: MW
HStem: 0 21G<-199 -199 -199 -125> 666 20G<317 388 388 388>
VStem: -199 587
LayerCount: 2
Fore
SplineSet
-199 0 m 1
 317 686 l 1
 388 686 l 1
 -125 0 l 1
 -199 0 l 1
EndSplineSet
EndChar

StartChar: equal
Encoding: 61 61 282
Width: 600
Flags: MW
HStem: 93 106<38 531 23 546> 309 106<68 561 53 576>
VStem: 23 553<93 415>
LayerCount: 2
Fore
SplineSet
68 415 m 1
 576 415 l 1
 561 309 l 1
 53 309 l 1
 68 415 l 1
38 199 m 1
 546 199 l 1
 531 93 l 1
 23 93 l 1
 38 199 l 1
EndSplineSet
EndChar

StartChar: greater
Encoding: 62 62 283
Width: 600
Flags: MW
HStem: -3 21G<8 8> 492 20G<81 81>
VStem: 8 554<-3 315>
LayerCount: 2
Fore
SplineSet
562 315 m 1
 545 192 l 1
 366 127 187 61 8 -3 c 1
 24 110 l 1
 432 254 l 1
 309 302 187 349 65 398 c 1
 81 512 l 1
 562 315 l 1
EndSplineSet
EndChar

StartChar: greaterequal
Encoding: 8805 8805 284
Width: 600
Flags: MW
HStem: 0 105<8 533 23 518> 500 20G<81 81>
VStem: 8 563<0 384>
LayerCount: 2
Fore
SplineSet
26 126 m 1
 42 240 l 1
 174 267 307 294 441 322 c 1
 315 350 190 377 65 405 c 1
 81 520 l 1
 571 384 l 1
 554 261 l 1
 26 126 l 1
8 0 m 1
 23 105 l 1
 533 105 l 1
 518 0 l 1
 8 0 l 1
EndSplineSet
EndChar

StartChar: increment
Encoding: 8710 8710 285
Width: 673
Flags: MW
HStem: 0 92<141 487 141 590> 561 125<380 380> 666 20G<337 458 458 458>
VStem: 12 589<0 79>
LayerCount: 2
Fore
SplineSet
337 686 m 1xb0
 458 686 l 1
 601 79 l 1
 590 0 l 1
 12 0 l 1
 23 79 l 1
 337 686 l 1xb0
487 92 m 1
 380 561 l 1xd0
 141 92 l 1
 487 92 l 1
EndSplineSet
EndChar

StartChar: infinity
Encoding: 8734 8734 286
Width: 812
Flags: MW
HStem: 102 81<184.5 229.5 556.5 613.5> 382 80<207.5 263 575 627.5>
VStem: 44 83<243 301 243 312.5> 681 85<277 324.5>
LayerCount: 2
Fore
SplineSet
766 316 m 0
 766 212 684 102 566 102 c 0
 511 102 451 123 394 216 c 1
 332 152 271 102 188 102 c 0
 108 102 44 160 44 251 c 0
 44 374 141 462 248 462 c 0
 327 462 378 418 420 350 c 1
 471 396 528 462 620 462 c 0
 705 462 766 404 766 316 c 0
209 183 m 0
 266 183 321 234 360 276 c 1
 350 294 l 2
 322 344 292 382 234 382 c 0
 181 382 127 336 127 266 c 0
 127 220 160 183 209 183 c 0
603 382 m 0
 547 382 487 321 452 283 c 1
 502 205 533 183 580 183 c 0
 647 183 681 254 681 300 c 0
 681 349 652 382 603 382 c 0
EndSplineSet
EndChar

StartChar: integral
Encoding: 8747 8747 287
Width: 355
Flags: MW
HStem: -250 59<56 70 56 93.5> 692 58<290 304>
VStem: 114 131
LayerCount: 2
Fore
SplineSet
114 638 m 0
 114 744 230 750 304 750 c 1
 304 692 l 1
 276 692 218 684 218 643 c 2
 218 643 245 17 245 -138 c 0
 245 -244 131 -250 56 -250 c 1
 56 -191 l 1
 84 -191 141 -183 141 -141 c 2
 141 -141 114 483 114 638 c 0
EndSplineSet
EndChar

StartChar: less
Encoding: 60 60 288
Width: 599
Flags: MW
HStem: -3 21G<517 517> 492 20G<590 590>
VStem: 36 554<192 512>
LayerCount: 2
Fore
SplineSet
590 512 m 1
 574 398 l 1
 164 254 l 1
 533 110 l 1
 517 -3 l 1
 356 61 197 127 36 192 c 1
 53 315 l 1
 590 512 l 1
EndSplineSet
EndChar

StartChar: lessequal
Encoding: 8804 8804 289
Width: 600
Flags: MW
HStem: 0 105<23 518 8 533> 500 20G<591 591>
VStem: 8 583<0 520>
LayerCount: 2
Fore
SplineSet
591 520 m 1
 575 405 l 1
 175 322 l 1
 300 294 426 267 552 240 c 1
 536 126 l 1
 46 261 l 1
 63 384 l 1
 591 520 l 1
533 105 m 1
 518 0 l 1
 8 0 l 1
 23 105 l 1
 533 105 l 1
EndSplineSet
EndChar

StartChar: logicalnot
Encoding: 172 172 290
Width: 600
Flags: MW
HStem: 347 121<56 451 39 585>
VStem: 39 546<347 468>
LayerCount: 2
Fore
SplineSet
425 166 m 1
 451 347 l 1
 39 347 l 1
 56 468 l 1
 585 468 l 1
 542 166 l 1
 425 166 l 1
EndSplineSet
EndChar

StartChar: micro
Encoding: 181 181 291
Width: 610
Flags: MW
HStem: -10 100<451 555.5> -10 106<209 303.5> -3 21G 491 20G<111 257 257 257 432 578 578 578>
VStem: 16 574<-161 101>
LayerCount: 2
Fore
SplineSet
432 511 m 1x38
 578 511 l 1
 523 118 522 116 522 114 c 0
 522 96 536 90 548 90 c 0
 563 90 584 98 590 101 c 1x98
 577 11 l 1
 570 7 536 -10 486 -10 c 0
 416 -10 384 18 381 63 c 1
 342 25 288 -10 216 -10 c 0x58
 202 -10 188 -8 175 -3 c 1
 177 -12 178 -23 178 -35 c 0
 178 -42 178 -49 177 -57 c 2x38
 162 -161 l 1
 16 -161 l 1
 111 511 l 1
 257 511 l 1
 210 180 210 179 210 170 c 0
 210 126 236 96 278 96 c 0x58
 329 96 380 140 388 197 c 2
 432 511 l 1x38
EndSplineSet
EndChar

StartChar: minus
Encoding: 8722 8722 292
Width: 625
Flags: MW
HStem: 217 120<64 559 47 576>
VStem: 47 529<217 337>
LayerCount: 2
Fore
SplineSet
576 337 m 1
 559 217 l 1
 47 217 l 1
 64 337 l 1
 576 337 l 1
EndSplineSet
EndChar

StartChar: multiply
Encoding: 215 215 293
Width: 600
Flags: MW
HStem: 37 437<124 185>
VStem: 61 476<112 399>
LayerCount: 2
Fore
SplineSet
310 330 m 1
 474 474 l 1
 496 449 516 424 537 399 c 1
 372 255 l 1
 496 112 l 1
 468 87 440 62 413 37 c 1
 372 85 329 132 289 180 c 1
 124 37 l 1
 103 62 83 87 61 112 c 1
 225 255 l 1
 102 399 l 1
 130 424 158 449 185 474 c 1
 310 330 l 1
EndSplineSet
EndChar

StartChar: notequal
Encoding: 8800 8800 294
Width: 600
Flags: MW
HStem: 0 199<43 139 43 43> 93 106<38 120 23 206 301 530 38 217> 309 106<68 298 53 383 477 560 68 393> 309 202<53 556 463 556 463 560 393 556>
VStem: 23 552<93 415>
LayerCount: 2
Fore
SplineSet
575 415 m 1x68
 560 309 l 1
 393 309 l 1
 301 199 l 1
 545 199 l 1
 530 93 l 1
 217 93 l 1x68
 139 0 l 1
 43 0 l 1xa8
 120 93 l 1
 23 93 l 1
 38 199 l 1
 206 199 l 1
 236 236 267 272 298 309 c 1
 53 309 l 1
 68 415 l 1
 383 415 l 1x68
 463 511 l 1
 556 511 l 1x58
 477 415 l 1
 575 415 l 1x68
EndSplineSet
EndChar

StartChar: partialdiff
Encoding: 8706 8706 295
Width: 600
Flags: MW
HStem: -10 111<235.5 240 240 258> 339 95<265.5 301.5 210.5 324.5> 578 118<231 335 215 360>
VStem: 25 143<164.5 192.5 164.5 264.5> 427 145<486 508>
LayerCount: 2
Fore
SplineSet
231 696 m 1
 360 696 l 2
 484 696 572 613 572 492 c 0
 572 480 571 468 538 230 c 0
 518 89 395 -10 258 -10 c 2
 240 -10 l 2
 114 -10 25 67 25 187 c 0
 25 342 144 434 277 434 c 0
 326 434 381 413 411 371 c 1
 426 478 427 481 427 485 c 0
 427 531 388 578 335 578 c 2
 215 578 l 1
 231 696 l 1
388 205 m 0
 393 240 393 246 393 251 c 0
 393 302 354 339 295 339 c 0
 236 339 181 294 173 235 c 0
 168 200 168 195 168 190 c 0
 168 139 206 101 265 101 c 0
 326 101 380 146 388 205 c 0
EndSplineSet
EndChar

StartChar: percent
Encoding: 37 37 296
Width: 739
Flags: MW
HStem: -1 64<476 539.5 508 523> 285 63<557 572 572 573> 336 64<133 196.5 165 180> 622 63<214 229 229 230>
VStem: 58 81<435 446> 254 80<579 586.5> 401 81<98 109> 597 80<242 249.5>
LayerCount: 2
Fore
SplineSet
70 0 m 1xdf
 586 686 l 1
 666 686 l 1
 153 0 l 1
 70 0 l 1xdf
319 458 m 0xbf
 309 391 250 336 180 336 c 2
 165 336 l 2
 101 336 58 381 58 439 c 0
 58 453 68 522 74 563 c 0
 83 630 138 685 214 685 c 2
 229 685 l 2
 292 685 334 640 334 582 c 0
 334 576 334 569 319 458 c 0xbf
236 449 m 2
 236 449 254 562 254 573 c 0
 254 600 247 622 213 622 c 0
 184 622 161 600 157 573 c 2
 157 573 139 458 139 449 c 0
 139 421 148 400 182 400 c 0
 211 400 233 421 236 449 c 2
662 121 m 0
 652 54 593 -1 523 -1 c 2
 508 -1 l 2
 444 -1 401 44 401 102 c 0
 401 116 411 185 417 226 c 0
 426 293 481 348 557 348 c 2
 572 348 l 2xdf
 635 348 677 303 677 245 c 0
 677 239 677 232 662 121 c 0
579 112 m 2xdf
 579 112 597 225 597 236 c 0
 597 263 590 285 556 285 c 0
 527 285 504 263 500 236 c 2
 500 236 482 121 482 112 c 0
 482 84 491 63 525 63 c 0
 554 63 576 84 579 112 c 2xdf
EndSplineSet
EndChar

StartChar: perthousand
Encoding: 8240 8240 297
Width: 1080
Flags: MW
HStem: -1 64<476 539.5 508 523 845 860> 285 63<557 572 572 573 894 909 909 910> 336 64<133 196.5 165 180> 622 63<214 229 229 230>
VStem: 58 81<435 446> 254 80<579 586.5> 401 81<98 109> 597 80<242 249.5> 738 81<98 109> 934 80<242 249.5>
LayerCount: 2
Fore
SplineSet
70 0 m 1xdfc0
 586 686 l 1
 666 686 l 1
 153 0 l 1
 70 0 l 1xdfc0
319 458 m 0xbd
 309 391 250 336 180 336 c 2
 165 336 l 2
 101 336 58 381 58 439 c 0
 58 453 68 522 74 563 c 0
 83 630 138 685 214 685 c 2
 229 685 l 2
 292 685 334 640 334 582 c 0
 334 576 334 569 319 458 c 0xbd
236 449 m 2
 236 449 254 562 254 573 c 0
 254 600 247 622 213 622 c 0
 184 622 161 600 157 573 c 2
 157 573 139 458 139 449 c 0
 139 421 148 400 182 400 c 0
 211 400 233 421 236 449 c 2
662 121 m 0
 652 54 593 -1 523 -1 c 2
 508 -1 l 2
 444 -1 401 44 401 102 c 0
 401 116 411 185 417 226 c 0
 426 293 481 348 557 348 c 2
 572 348 l 2xc3
 635 348 677 303 677 245 c 0
 677 239 677 232 662 121 c 0
999 121 m 0xc3c0
 989 54 930 -1 860 -1 c 2
 845 -1 l 2
 781 -1 738 44 738 102 c 0
 738 116 748 185 754 226 c 0
 763 293 818 348 894 348 c 2
 909 348 l 2
 972 348 1014 303 1014 245 c 0
 1014 239 1014 232 999 121 c 0xc3c0
579 112 m 2
 579 112 597 225 597 236 c 0
 597 263 590 285 556 285 c 0
 527 285 504 263 500 236 c 2
 500 236 482 121 482 112 c 0
 482 84 491 63 525 63 c 0
 554 63 576 84 579 112 c 2
916 112 m 2
 916 112 934 225 934 236 c 0
 934 263 927 285 893 285 c 0
 864 285 841 263 837 236 c 2
 837 236 819 121 819 112 c 0
 819 84 828 63 862 63 c 0
 891 63 913 84 916 112 c 2
EndSplineSet
EndChar

StartChar: plus
Encoding: 43 43 298
Width: 600
Flags: MW
HStem: 0 21G<211 316 211 211> 202 106<51 239 36 254 359 548 51 344> 491 20G<282 387 387 387>
VStem: 36 527<202 308>
LayerCount: 2
Fore
SplineSet
563 308 m 1
 548 202 l 1
 344 202 l 1
 316 0 l 1
 211 0 l 1
 239 202 l 1
 36 202 l 1
 51 308 l 1
 254 308 l 1
 282 511 l 1
 387 511 l 1
 359 308 l 1
 563 308 l 1
EndSplineSet
EndChar

StartChar: plusminus
Encoding: 177 177 299
Width: 600
Flags: MW
HStem: 0 105<24 517 10 531> 276 106<61 249 46 264 369 558 61 354> 491 20G<282 387 387 387>
VStem: 10 563<0 382>
LayerCount: 2
Fore
SplineSet
573 382 m 1
 558 276 l 1
 354 276 l 1
 336 147 l 1
 231 147 l 1
 249 276 l 1
 46 276 l 1
 61 382 l 1
 264 382 l 1
 282 511 l 1
 387 511 l 1
 369 382 l 1
 573 382 l 1
24 105 m 1
 531 105 l 1
 517 0 l 1
 10 0 l 1
 24 105 l 1
EndSplineSet
EndChar

StartChar: product
Encoding: 8719 8719 300
Width: 818
Flags: MW
HStem: 581 138<79 176 60 854 334 559 334 334 717 717 717 835>
VStem: 60 794<581 719>
LayerCount: 2
Fore
SplineSet
621 -100 m 1
 463 -100 l 1
 559 581 l 1
 334 581 l 1
 238 -100 l 1
 80 -100 l 1
 176 581 l 1
 60 581 l 1
 79 719 l 1
 854 719 l 1
 835 581 l 1
 717 581 l 1
 621 -100 l 1
EndSplineSet
EndChar

StartChar: radical
Encoding: 8730 8730 301
Width: 683
Flags: MW
HStem: -150 971<246 775 246 775>
VStem: 26 749<325 821>
LayerCount: 2
Fore
SplineSet
661 821 m 1
 775 821 l 1
 640 497 506 173 371 -150 c 1
 246 -150 l 1
 128 282 l 1
 42 249 l 1
 37 275 32 300 26 325 c 1
 238 409 l 1
 270 274 305 136 331 1 c 1
 438 275 550 548 661 821 c 1
EndSplineSet
EndChar

StartChar: summation
Encoding: 8721 8721 302
Width: 643
Flags: MW
HStem: -100 142<199 567> 584 135<298 641 298 298>
VStem: -34 694
LayerCount: 2
Fore
SplineSet
-21 -9 m 1
 288 309 l 1
 78 617 l 1
 92 719 l 1
 660 719 l 1
 641 584 l 1
 298 584 l 1
 298 580 l 1
 473 327 l 1
 199 46 l 1
 199 42 l 1
 587 42 l 1
 567 -100 l 1
 -34 -100 l 1
 -21 -9 l 1
EndSplineSet
EndChar

StartChar: lozenge
Encoding: 9674 9674 303
Width: 568
Flags: MW
HStem: 0 21G<174 295 174 174> 0 97<250 250 250 295 174 250> 588 98 666 20G<271 392 392 392>
VStem: 55 457<343 343>
LayerCount: 2
Fore
SplineSet
55 343 m 1x98
 271 686 l 1
 392 686 l 1
 512 343 l 1
 295 0 l 1
 174 0 l 1
 55 343 l 1x98
319 588 m 1x68
 266 506 216 424 164 343 c 1
 250 97 l 1
 300 179 352 261 404 343 c 1
 375 424 346 506 319 588 c 1x68
EndSplineSet
EndChar

StartChar: bar
Encoding: 124 124 304
Width: 250
Flags: MW
HStem: -199 919<75 175 75 175>
VStem: 75 100<-199 720 -199 720>
LayerCount: 2
Fore
SplineSet
75 720 m 1
 175 720 l 1
 175 -199 l 1
 75 -199 l 1
 75 720 l 1
EndSplineSet
EndChar

StartChar: brokenbar
Encoding: 166 166 305
Width: 277
Flags: MW
HStem: 0 21G<29 149 29 29> 0 270<67 149 29 187> 415 271<126 208 88 246> 666 20G<126 246 246 246>
VStem: 29 217
LayerCount: 2
Fore
SplineSet
246 686 m 1x98
 208 415 l 1
 88 415 l 1x68
 126 686 l 1
 246 686 l 1x98
187 270 m 1
 149 0 l 1
 29 0 l 1
 67 270 l 1
 187 270 l 1
EndSplineSet
EndChar

StartChar: at
Encoding: 64 64 306
Width: 927
Flags: MW
HStem: -153 58<291.5 401.5> 22 91<690 709.5> 247 77<489.5 549> 431 90<495 515 515 517.5> 639 58<405.5 615>
VStem: 38 66<82 325.5 82 334> 217 143<146 195 146 222.5> 264 132<364 371.5 364 408.5> 566 136<370.5 390.5> 823 67<327.5 475.5>
LayerCount: 2
Fore
SplineSet
702 394 m 0xfdc0
 702 328 673 194 669 146 c 0
 669 123 681 113 699 113 c 0
 780 113 823 268 823 387 c 0
 823 564 704 639 526 639 c 0
 285 639 104 481 104 170 c 0
 104 -6 195 -95 388 -95 c 0
 434 -95 519 -81 558 -63 c 1
 549 -126 l 1
 504 -142 423 -153 380 -153 c 0
 167 -153 38 -55 38 165 c 0
 38 503 242 697 534 697 c 0
 742 697 890 608 890 396 c 0
 890 176 780 22 639 22 c 0
 577 22 542 47 536 104 c 1
 488 56 440 22 363 22 c 0
 287 22 217 48 217 147 c 0xfec0
 217 298 364 324 560 324 c 1
 563 349 566 366 566 375 c 0
 566 406 546 431 489 431 c 0
 415 431 396 379 396 364 c 1
 264 364 l 1
 264 453 360 521 495 521 c 2
 515 521 l 2
 642 521 702 471 702 394 c 0xfdc0
545 217 m 0
 547 227 549 247 549 247 c 1
 430 247 360 224 360 166 c 0
 360 126 387 114 431 114 c 0xfec0
 481 114 535 152 545 217 c 0
EndSplineSet
EndChar

StartChar: ampersand
Encoding: 38 38 307
Width: 670
Flags: MW
HStem: 0 113<182 384 273 384 273 516> 292 116<308 314 314 409 573 651> 577 119<300.5 341> 671 20G<394 394>
VStem: 12 151<163 217.5> 75 144<469 517 469 555>
LayerCount: 2
Fore
SplineSet
394 691 m 1xd8
 377 570 l 1
 370 573 346 577 336 577 c 0
 265 577 219 547 219 487 c 0
 219 451 248 408 308 408 c 2xe4
 430 408 l 1
 449 452 469 495 489 539 c 1
 591 539 l 1
 573 408 l 1
 667 408 l 1
 662 369 657 331 651 292 c 1
 557 292 l 1
 544 195 530 97 516 0 c 1
 244 0 l 2
 120 0 12 44 12 164 c 0xe8
 12 271 77 331 163 357 c 1
 109 379 75 423 75 486 c 0
 75 624 192 696 338 696 c 0xe4
 358 696 377 694 394 691 c 1xd8
409 292 m 1
 314 292 l 2
 200 292 163 249 163 190 c 0xe8
 163 136 212 113 273 113 c 2
 384 113 l 1
 392 173 401 233 409 292 c 1
EndSplineSet
EndChar

StartChar: paragraph
Encoding: 182 182 308
Width: 526
Flags: MW
HStem: 616 70<350 424 350 350 499 565 499 499>
VStem: 53 522<386.5 686>
LayerCount: 2
Fore
SplineSet
165 -165 m 1
 223 251 l 1
 122 259 53 336 53 437 c 0
 53 583 171 686 302 686 c 2
 575 686 l 1
 565 616 l 1
 499 616 l 1
 390 -165 l 1
 315 -165 l 1
 424 616 l 1
 350 616 l 1
 241 -165 l 1
 165 -165 l 1
EndSplineSet
EndChar

StartChar: copyright
Encoding: 169 169 309
Width: 740
Flags: MW
HStem: -10 52<282.5 456 282.5 467.5> 130 74<350 370 370 379> 482 74<368 376 376 400> 643 53<282.5 456>
VStem: 16 58<254.5 431.5 254.5 441.5> 189 98<314 373 373 386 268.5 431.5> 458 85<266.5 299> 665 59<254.5 431.5>
LayerCount: 2
Fore
SplineSet
724 344 m 0
 724 147 565 -10 370 -10 c 0
 174 -10 16 147 16 344 c 0
 16 539 174 696 370 696 c 0
 565 696 724 539 724 344 c 0
665 344 m 0
 665 519 542 643 370 643 c 0
 195 643 74 519 74 344 c 0
 74 165 195 42 370 42 c 0
 542 42 665 165 665 344 c 0
287 386 m 2
 287 300 l 2
 287 237 326 204 374 204 c 0
 432 204 458 234 458 299 c 1
 543 299 l 1
 543 189 471 130 379 130 c 2
 370 130 l 2
 267 130 189 193 189 314 c 2
 189 373 l 2
 189 490 269 556 368 556 c 2
 376 556 l 2
 470 556 543 500 543 386 c 1
 455 386 l 1
 455 449 426 482 374 482 c 0
 325 482 287 449 287 386 c 2
EndSplineSet
EndChar

StartChar: registered
Encoding: 174 174 310
Width: 740
Flags: MW
HStem: -10 52<282.5 456 282.5 467.5> 308 73<306 376 306 396> 476 75<306 396 306 306> 644 52<282.5 456>
VStem: 16 58<254.5 432 254.5 441.5> 214 92<137 308 381 476> 441 90<223.5 228> 445 94<426 431 431 444> 666 58<254.5 432>
LayerCount: 2
Fore
SplineSet
724 344 m 0xfe80
 724 147 565 -10 370 -10 c 0
 174 -10 16 147 16 344 c 0
 16 539 174 696 370 696 c 0
 565 696 724 539 724 344 c 0xfe80
666 344 m 0
 666 520 542 644 370 644 c 0
 195 644 74 520 74 344 c 0
 74 165 195 42 370 42 c 0
 542 42 666 165 666 344 c 0
562 161 m 1
 562 140 l 1
 548 135 527 132 510 132 c 0
 474 132 441 147 441 198 c 0
 441 258 430 308 376 308 c 2xfe80
 306 308 l 1
 306 137 l 1
 214 137 l 1
 214 551 l 1
 399 551 l 2
 468 551 539 527 539 448 c 0xfd80
 539 404 507 359 465 351 c 1
 465 346 l 1
 494 337 531 305 531 237 c 0
 531 210 535 169 562 161 c 1
306 381 m 1
 396 381 l 2
 423 381 445 401 445 426 c 2
 445 431 l 2
 445 457 425 476 396 476 c 2xfd80
 306 476 l 1
 306 381 l 1
EndSplineSet
EndChar

StartChar: section
Encoding: 167 167 311
Width: 550
Flags: MW
HStem: -185 96<197.5 255.5 197.5 273.5> 599 97<293 351>
VStem: 12 132<-100.5 -35> 37 128<246.5 275.5> 89 137<491 556.5 489.5 578.5> 322 138<-46 18.5 -66 21> 386 125<234.5 261.5> 404 132<536 609.5 545 609.5>
LayerCount: 2
Fore
SplineSet
89 513 m 0xcc
 89 644 220 696 337 696 c 0
 447 696 536 652 536 567 c 0
 536 562 536 556 533 536 c 1
 404 536 l 1
 404 545 l 2xc9
 404 579 377 599 325 599 c 0
 261 599 226 573 226 540 c 0
 226 439 511 439 511 274 c 0xca
 511 195 458 129 406 103 c 1
 439 80 460 41 460 -4 c 0
 460 -128 336 -185 211 -185 c 0
 102 -185 12 -143 12 -58 c 0
 12 -49 13 -39 16 -27 c 1
 144 -27 l 1
 144 -35 l 2xe4
 144 -66 171 -89 224 -89 c 0
 287 -89 322 -63 322 -29 c 0
 322 71 37 71 37 236 c 0xd4
 37 315 90 381 142 407 c 1
 109 430 89 469 89 513 c 0xcc
332 149 m 1xd2
 360 164 386 192 386 227 c 0
 386 296 283 326 220 359 c 1
 195 347 165 318 165 281 c 0
 165 212 267 181 332 149 c 1xd2
EndSplineSet
EndChar

StartChar: trademark
Encoding: 8482 8482 312
Width: 904
Flags: MW
HStem: 608 78<28 148 28 360 241 241 241 360>
VStem: 148 93<288 608> 390 84<535 584 535 686> 775 93<288 586 586 586>
LayerCount: 2
Fore
SplineSet
241 288 m 1
 148 288 l 1
 148 608 l 1
 28 608 l 1
 28 686 l 1
 360 686 l 1
 360 608 l 1
 241 608 l 1
 241 288 l 1
775 586 m 1
 773 583 l 1
 741 485 706 385 674 288 c 1
 573 288 l 1
 541 386 509 483 476 581 c 1
 474 584 l 1
 474 486 474 386 475 288 c 1
 390 288 l 1
 390 686 l 1
 539 686 l 1
 628 419 l 1
 719 686 l 1
 868 686 l 1
 868 288 l 1
 775 288 l 1
 775 586 l 1
EndSplineSet
EndChar

StartChar: degree
Encoding: 176 176 313
Width: 400
Flags: MW
HStem: 396 71<172 214.5 172 228> 623 73<183.5 229>
VStem: 47 77<518 563.5 518 578.5> 274 78<527.5 569>
LayerCount: 2
Fore
SplineSet
352 561 m 0
 352 466 272 396 184 396 c 0
 100 396 47 453 47 530 c 0
 47 627 129 696 214 696 c 0
 299 696 352 637 352 561 c 0
193 467 m 0
 236 467 274 502 274 553 c 0
 274 585 254 623 204 623 c 0
 163 623 124 588 124 539 c 0
 124 497 151 467 193 467 c 0
EndSplineSet
EndChar

StartChar: estimated
Encoding: 8494 8494 314
Width: 743
Flags: MW
HStem: -10 78<359 428 359 445.5> 307 75<244 525 244 700 244 525> 619 77<357.5 412.5>
VStem: 70 174<113 362 382 466.5> 525 175<307 576>
LayerCount: 2
Fore
SplineSet
385 696 m 0
 574 696 700 571 700 363 c 2
 700 307 l 1
 244 307 l 1
 244 113 l 1
 282 83 331 68 387 68 c 0
 469 68 542 98 583 164 c 1
 654 116 l 1
 598 35 504 -10 387 -10 c 0
 196 -10 70 115 70 324 c 2
 70 362 l 2
 70 571 196 696 385 696 c 0
244 382 m 1
 525 382 l 1
 525 576 l 1
 488 605 440 619 385 619 c 0
 330 619 281 604 244 574 c 1
 244 382 l 1
EndSplineSet
EndChar

StartChar: literSign
Encoding: 8467 8467 315
Width: 508
Flags: MW
HStem: -11 98<187.5 310.5> 230 86<28 86 16 98> 590 108<336.5 376.5>
VStem: 74 149<130 131> 418 94<474 539.5>
LayerCount: 2
Fore
SplineSet
232 230 m 1
 225 184 l 2
 223 169 223 162 223 156 c 0
 223 104 254 87 294 87 c 0
 327 87 364 99 394 111 c 1
 382 20 l 1
 346 1 288 -11 239 -11 c 0
 136 -11 74 43 74 126 c 0
 74 136 75 149 78 172 c 2
 86 230 l 1
 16 230 l 1
 28 316 l 1
 98 316 l 1
 111 405 l 1
 123 489 l 2
 143 629 233 698 348 698 c 0
 453 698 512 641 512 531 c 0
 512 410 442 239 232 230 c 1
257 406 m 1
 244 316 l 1
 382 324 418 438 418 510 c 0
 418 569 394 590 359 590 c 0
 314 590 279 556 269 489 c 2
 257 406 l 1
EndSplineSet
EndChar

StartChar: asciicircum
Encoding: 94 94 316
Width: 598
Flags: MW
HStem: 0 21G<5 117 5 5 409 520 409 409> 385 126 491 20G<273 394 394 394>
VStem: 5 515<0 0>
LayerCount: 2
Fore
SplineSet
520 0 m 1xb0
 409 0 l 1
 378 128 347 256 317 385 c 1xd0
 250 256 184 128 117 0 c 1
 5 0 l 1
 273 511 l 1
 394 511 l 1
 520 0 l 1xb0
EndSplineSet
EndChar

StartChar: dagger
Encoding: 8224 8224 317
Width: 572
Flags: MW
HStem: 490 20G<75 75 567 567> 666 20G<279 403 403 403>
VStem: 279 78<491 686>
LayerCount: 2
Fore
SplineSet
285 -166 m 1
 167 -166 l 1
 268 411 l 1
 58 392 l 1
 75 510 l 1
 279 491 l 1
 279 686 l 1
 403 686 l 1
 357 491 l 1
 567 510 l 1
 550 392 l 1
 346 411 l 1
 285 -166 l 1
EndSplineSet
EndChar

StartChar: daggerdbl
Encoding: 8225 8225 318
Width: 572
Flags: MW
HStem: 1 21G<4 4 495 495> 411 80<280 343> 490 20G<75 75 566 566> 666 20G<280 403 403 403>
VStem: 225 118<100 411 256 411>
LayerCount: 2
Fore
SplineSet
511 118 m 1xb8
 495 1 l 1
 428 7 358 13 291 20 c 1
 291 -175 l 1
 167 -175 l 1
 182 -109 197 -45 213 20 c 1
 143 13 74 7 4 1 c 1
 20 118 l 1
 225 100 l 1
 225 256 l 1
 238 308 254 359 268 411 c 1
 198 404 129 398 59 392 c 1xd8
 75 510 l 1xb8
 143 503 211 497 280 491 c 1xd8
 280 686 l 1
 403 686 l 1
 358 491 l 1
 426 497 497 503 566 510 c 1
 550 392 l 1
 343 411 l 1
 343 256 l 1
 329 204 316 151 303 100 c 1
 511 118 l 1xb8
EndSplineSet
EndChar

StartChar: acute
Encoding: 180 180 319
Width: 333
Flags: MW
HStem: 575 145<40 282 40 282>
VStem: 40 242<575 720>
LayerCount: 2
Fore
SplineSet
153 720 m 1
 282 720 l 1
 282 716 l 1
 141 575 l 1
 40 575 l 1
 153 720 l 1
EndSplineSet
EndChar

StartChar: breve
Encoding: 728 728 320
Width: 520
Flags: MW
HStem: 613 74<232 289 232 304.5>
VStem: 75 386<701.5 737>
LayerCount: 2
Fore
SplineSet
251 613 m 0
 150 613 75 674 75 729 c 0
 75 731 75 734 76 737 c 2
 157 737 l 1
 160 713 203 687 261 687 c 0
 317 687 371 715 379 737 c 1
 461 737 l 1
 453 680 358 613 251 613 c 0
EndSplineSet
EndChar

StartChar: caron
Encoding: 711 711 321
Width: 538
Flags: MW
HStem: 575 145<88 308 88 205>
VStem: 88 378<720 720>
LayerCount: 2
Fore
SplineSet
193 720 m 1
 266 637 l 1
 362 720 l 1
 466 720 l 1
 417 675 367 630 308 575 c 1
 205 575 l 1
 88 720 l 1
 193 720 l 1
EndSplineSet
EndChar

StartChar: cedilla
Encoding: 184 184 322
Width: 342
Flags: MW
HStem: -197 55<134.5 170.5 133.5 176> -68 51<158 171 151 181>
VStem: 211 75<-114.5 -89>
LayerCount: 2
Fore
SplineSet
49 -168 m 1
 77 -116 l 1
 83 -119 110 -142 157 -142 c 0
 184 -142 211 -130 211 -99 c 0
 211 -79 197 -68 171 -68 c 2
 151 -68 l 1
 158 -17 l 1
 181 -17 l 2
 233 -17 286 -32 286 -91 c 0
 286 -180 199 -197 153 -197 c 0
 116 -197 73 -187 49 -168 c 1
EndSplineSet
EndChar

StartChar: circumflex
Encoding: 710 710 323
Width: 538
Flags: MW
HStem: 575 145<67 329 226 445 226 340>
VStem: 67 378<575 575>
LayerCount: 2
Fore
SplineSet
226 720 m 1
 329 720 l 1
 367 672 406 623 445 575 c 1
 340 575 l 1
 268 658 l 1
 171 575 l 1
 67 575 l 1
 226 720 l 1
EndSplineSet
EndChar

StartChar: dieresis
Encoding: 168 168 324
Width: 440
Flags: MW
HStem: 618 122<67 171 50 188 67 254 271 375>
VStem: 50 342<618 740>
LayerCount: 2
Fore
SplineSet
188 740 m 1
 171 618 l 1
 50 618 l 1
 67 740 l 1
 188 740 l 1
392 740 m 1
 375 618 l 1
 254 618 l 1
 271 740 l 1
 392 740 l 1
EndSplineSet
EndChar

StartChar: dotaccent
Encoding: 729 729 325
Width: 280
Flags: MW
HStem: 604 132<126.5 149.5>
VStem: 73 133<658.5 679.5>
LayerCount: 2
Fore
SplineSet
206 678 m 0
 206 639 171 604 128 604 c 0
 97 604 73 628 73 659 c 0
 73 700 105 736 148 736 c 0
 182 736 206 710 206 678 c 0
EndSplineSet
EndChar

